<?xml version="1.0" encoding="UTF-8"?>
<!-- Created with Inkscape (http://www.inkscape.org/) -->
<svg width="1068" height="655.2" version="1.1" viewBox="0 0 1068 655.2" xmlns="http://www.w3.org/2000/svg" xmlns:cc="http://creativecommons.org/ns#" xmlns:dc="http://purl.org/dc/elements/1.1/" xmlns:rdf="http://www.w3.org/1999/02/22-rdf-syntax-ns#"><metadata><rdf:RDF><cc:Work rdf:about=""><dc:format>image/svg+xml</dc:format><dc:type rdf:resource="http://purl.org/dc/dcmitype/StillImage"/><dc:title/></cc:Work></rdf:RDF></metadata><path d="m738.41 619.93-1.2059-1.7217-14.079 2.006-20.487-1.7627h-9.3967l-1.6754-2.13-1.6754-2.13-.46934-1.87-.46935-1.87h-1.6618l-6.834 5.6h-.93073v-6.8942l2-2.3971 6.0233-4.4079 8.9279-4.0873 13.59-.84785 1.7658-3.8755-.95275-5.556-.95276-5.556-5.1054-9.1781-6.823-8.9837-20.473-19.613-18.946-14.184-14.226-8.0195h-.78033l-8.4726-3.8754-4.7748-1.1736-28.8-10.687-12.8-4.1599-23.003-5.6911-16.997-8.4983-17.349-10.032-.42463.42461-.42462.42463 3.5143 5.9563 3.1387 8.1121 1.1897 5.5331 1.1896 5.5331 3.4849 5.7339 14.481 15.237 8.8 11.461 1.3565 3.4508 1.3565 3.4508.078 5.6-1.6656 5.9974-3.5255 3.9639-13.491 7.3874-7.2934 5.5689-22.237 21.788 14.396 4.0943 1.3972 1.168 1.3972 1.168 1.9347 4.3747 1.9347 4.3747-.49018 1.4705-8.6872-8.156h-1.1991l-.86492 3.212-.8649 3.212-1.6073 2.7241-1.6073 2.7241-4.9561 1.7277h-9.3718l-16.389-2.5099-15.2.086-13.6 3.3268-9.7234 1.7202-7.3754-1.106-5.7722-3.9171-21.129-.0601-6.0857-5.2117-.58856-3.9641-.58858-3.9641-3.9372.44484-10.06 4.6991 1.1578-1.9439 4.5586-5.7372 5.9434-3.3266 9.831-2.5362h9.4888l11.76 4h8.1519l11.804-3.2712 7.3635-4.2833 4.8-3.258 25.6-19.106 10.4-10.64 4.4-8.8012v-3.2001l-4.6194-6.3768-10.981-9.7655-10.4-7.2021-21.6-12.822-12-6.503-23.498-11.824-7.702-5.2871-7.4671-7.4508-3.9898-7.8734-.87158-4.7148-.87157-4.7148v-6.9061h-.47272l-15.927 8.8091-11.432 4.7671-11.368 1.9495v1.7065l1.6594 5.9839 1.6594 5.9839 3.0688 16 3.0088 13.6 2.5804 15.2 1.3001 10.795 1.3001 10.796-.4711 7.2045-.47109 7.2045-1.5245 37.048-1.9579 9.9519-2.4762 3.1964-2.4762 3.1964-20 .41355-7.4994 2.4868-10.901 1.0651-10.085-6.7476-1.0501 1.4361-1.0501 1.4361-5.0486-2.0912-11.566.79641-10.4 3.713-12 .0988-9.6-6.4.27392-4.6.27393-4.6h-2.596l-9.7017 4.0834-.81652-.27217-.81652-.27218 8.5829-8.9091 11.242-2.6488 11.08-1.3339 11.278 2.309 7.2 1.3483 8.1395.0954 15.06-4.5244 10.573-5.0489 7.0078-7.2311.55347-1.3978.55348-1.3978.1004-12-1.6786-10.346-3.3276-10.454-5.5512-9.6-9.8926-14.4-6.8128-10.879-6.3008-16.168-2.6928-2.9755-8.9316-5.8642-12.876-12.481-12.992 12.767-18.932-.032-26.875-3.8805-11.525-2.6511-16-3.891-25.6-1.6052-12.716-1.3886-6.4842 5.2373-8.3095 2.7095-3.7348 2.9378-9.5312 13.888-11.225-1.0395-1.3013-.36518-1.3013-.36519-3.4453 7.6452-2.3704 4.8.48381-7.8.4838-7.8h-1.1184l-4.8446 4.0765-6.0395 3.0811-6.9468 1.0608-1.9729 1.555-2.7193 8.6266h-1.1179l-.89498-3.5543-.89496-3.5543v-8.0915h-8.8514l-5.1486-2.355-1.7535-1.2892-1.7535-1.2892-2.4814 4.6667-2.4814 4.6667.46146-3.5072.46146-3.5072 1.4402-4.266 1.4402-4.266-.82679-.82679-.82673-.82668h-1.8577l-3.8196-7.2h-1.4786l-9.408 8.1828-.93837-.93837 5.4222-9.0206 4-3.1155 7.2-4.6799 7.2-2.2894 11.119-1.0164 24.081-8.0765 14.4-5.6286 9.4446-3.0292 10.555-.94073 23.588 3.3523 13.212-.01 13.2-1.0276v-1.7198l-9.4644-9.643-1.6212-2.9413-1.6212-2.9413-.85901-3.0587-.85902-3.0587-10.504-6.4-5.402-5.9279-3.2984-6.4654-3.9669-14.807-.004-8.6018 2.5565-14.998-2.6675-15.6-.69961-11.031-.6996-11.031.7004-8.6175.70042-8.6175 2.0113-7.1534 2.0113-7.1534 4.2262-9.5953 8.5688-12.909 11.927-11.329 10.017-6.6538 24.12-12.075 7.2274-5.0211 11.007-9.5586 5.8689-8.0521 1.8647-3.2 1.8648-3.2 1.5062-4.3505 1.5063-4.3505.81242-5.0856.81242-5.0856-1.6812-6.2434-5.8613-4.8314-6.7798-1.0167-5.4867 1.8108-13.447 10.753-6.7676 3.2-.009 1.4198-.009 1.4198-3.6 1.3423-7.7553 1.1394.48189 2.5687.48188 2.5687-14.808 8.6582-10.4 5.2912-19.2 2.3016-14.4 2.4435-22.4 5.8134-15.434 3.6365-.8999.55617-.8999.55616 9.2277 9.8844 11.606 11.884v.51613h-9.0144l-6.5856-1.8788-15.2-15.56-4.8-2.3366-4.0582-.96925-3.5319-4.7771.82478-2.1694.82479-2.1694-1.3084-1.3084-16.225-1.0633-.45201-1.6839-.45201-1.6839-.0206-13.6 2.3045-4.8 2.3045-4.8 6.37-6.1101 5.4198 3.3041 3.2-.038 15.512-9.9561 13.621-8.8.0672-1.2h-2.4l.006-2 2.9543-4.8 7.4397-8.2351.0109-4.2824.0109-4.2825 2.859-9.5513 6.1819 13.173 1.9578 1.6248 4.4755-7.6469 7.3755-8 6.3285-9.4012 8.3351-7.6216 8.0649-4.9624v1.0342l-3.766 4.951-5.0838 9.7842-.48718 4.3079-.48717 4.3079.90877-.81793 7.8879-11.982 4.4506-4-.51115 3.2-.51114 3.2-.50648 2-.50647 2 21.412-21.167 12.086-9.2428 15.133-7.5111 9.5172-2.4789 14.464.0508-1.6 1.2341-1.6 1.2341-11.2 6.5139-15.205 10.013-12.395 12.275v1.4783h11.004l2.1959-2.6376 5.0383-8.8755.87638 3.1566.87637 3.1566.01 2.4942 1.0445 1.4284 1.0445 1.4284 7.0522-9.141 8.8163-7.1817.70745 2.6859.70744 2.6858-.91214 10h9.9673l7.9725-6.9679 6.7803-3.4546 9.6687-1.0106-.88039 2.3165-.88039 2.3165-3.1441 5.7971-3.1441 5.7971v.80581h13.4l.49748 2.4874.49747 2.4874 4.0476-1.0159 8.6585-3.9605 15.699-1.6327 2.1855.47753 2.1854.47754-1.5123 2.9396-1.5123 2.9396-4.9452 6.7845-5.5814 3.6155-.02 1.2235 5.2 3.0486 8.5473 5.2244-.53353 4.2703-.53354 4.2703 7.7198 3.3265 8 3.722 6.5538 6.9145 3.5768 6.0001-2.9306.93005-1.8343.73339-1.8343.73338-15.531 1.8507-.25602.19887-.25603.19887 1.6958 3.4773 1.6958 3.4773 4.1065 10.191-1.093.69246-1.093.69245-5.6.184-3.6289 1.0405 7.2325 9.6 4.7964 12.348v10.985l-.82587.82587-9.9741-3.0379-8.4354-3.9213h-.74002l1.0034 9.6h-8.2279v1.6637l3.6 6.7363v21.867l-1.2201 1.2193-5.3935-2.572-5.6022-4.9188-3.3175-8.396-.70947-2.8-.70948-2.8-2.8084 12.4h-7.1416l6.4412 9.2 2.461 7.0012v2.693l-1.1031 1.5086-1.1031 1.5086-6.5018-1.948-7.292-8.3358v6.5687l7.3833 6.8056 10.861-.77711 10.956-6.1032 8-5.9498 17.6-11.157 18.4-9.6725 12.8-4.0652 4.4275-.91456 10.607-16.363 3.4915-5.6 4.3083-9.4689 3.1654-12.398v-13.408l-3.2104-14.71-4.6432-11.615-9.7835-17.463-5.7664-7.6683-5.7667-7.6682-19.23-19.769-16.8-13.948-28-20.88-16.385-10.624-8.2076-4.0575-8.2087-4.057-12.8-4.592-10.4-2.7398-19.2-.93283-3.2-6.4-1.6-1.1759-8.5902-2.5241-6.0767-3.8361-6.0692-7.2607-2.1818-5.4981-2.1818-5.4981-.9324-14.207 1.4296 3.2 1.2039 8.8 3.5348 8.0027 6.1825 5.4283 6.7363 2.9798 7.4413 1.0199 6.176-6.0307h4.1398l12.138 8.2h4.5892l12.007-3.8129 10.054 2.1727 10.281 1.7158 34.519 2.2921 19.2 1.6306 35.2.72259 86.4 1.0669 13.6 3.0452 12.8 3.8638 14.4 4.2274 28 9.4187 24 8.9588 8.8 3.0098 13.6 4.9573 9.6 3.0086 4.8 1.7254 14.887 4.7957 25.113 16.517 13.6 8.521 12 7.5551 28.8 17.905 22.156 14.321 14.711 7.7889 8.7333 5.6715 6.7318 6.4545 6.8682 3.4682 8 5.6586 10.941 10.54 6.1084 8.8905 3.9466 9.5095.55398 3.084.55399 3.084-1.5964-.56801-18.732-17.584-5.288-4.0341-5.288-4.0341-7.4748-4.3417-13.015-4.7989.99328 1.6072 10.697 8.4307 4 2.7082 16.8 12.109 22.4 18.553 5.6 7.117 9.7827 7.0532 11.048 11.63 5.077 8.996 2.4926 9.6193v7.369h-1.2675l-6.1678-10.544-3.3397-4.5281-3.3396-4.5281-3.5427-3.3676-3.5426-3.3676-2.5574-1.8862-2.5573-1.8862-10.5-1.9346-11.859-6.3576h-8.3085l-6.2969 3.5391-3.3224 5.3757.3763 10.943.37631 10.943 5.2318 14.936 7.1499 12.926 10.805 14.538 4.1006 6.4 1.0673 3.2 1.0673 3.2 5.806 8.0321 5.0035 8.8658 1.5676 4.5562 1.5675 4.5562.49464 6.9948.49456 6.9948-8.7742-16.405-5.5972-7.5948-4.5681-4.3477-10.843-2.2728-1.7005-1.4898-1.7005-1.4898-5.1337-5.6-6.2218-8-1.3888-2.1793-1.3888-2.1793-13.19-16.418-16-16.675-12.886-11.349-24.714-21.619-8.8-7.322-9.6-6.1113-4.067-2.715-4.067-2.715-4.675-4.3172-11.899-10.967-14.808-11.033h-1.4408l-1.3215 4.0919-1.3215 4.0919-.004 6.6163 10.357 20.855 4.0481 17.132-.0356 8.4132-2.7839-3.6167-6.904-13.183-3.4765-5.6754-9.04-12.741-8.955-8.4692-9.121-4.0338-10.484-.87722-9.8835 2.5339-7.7165 3.5712-9.6 9.7751-2.2284 4.4943-2.2284 4.4943-1.1577 5.464-1.1577 5.464.004 7.2 2.2378 16.807 4.3443 12.793 8.2987 17.6 4.308 6.8h1.4721l.9845-3.1018 8.8726-9.0155.62378.62378-4.5744 11.894-1.1213 9.7024 2.1226 1.7252 10.705 5.6513 1.2957-1.8789 6.3997-12.493 11.425-12.307 1.1397 1.0975-4.9642 10.507-.01 1.1957-2.4869 4.7694-1.4834 5.3531-1.4834 5.3531 2.6636 2.168 7.4616 5.1565h1.0914l4.7703 3.3967 1.2224-1.3967 9.1957-12.4 8.0752-7.064 7.8914-4.295.38774.38773.38774.38775-6.5918 10.183-5.4182 11.4-.93944 3.7308-.93944 3.7308.60538.57144 14.4 4.8523 1.5959-2.1425 1.5959-2.1425 8.0369-9.5061 9.9925-6.8382 8.2509-2.4502.69187.69186-9.8935 11.703-6.2668 10.673-.20183 1.8636-.20259 1.8636 16 5.2536 7.192-8.4536 8.6529-8.4972 7.8816-3.9939 1.453.49112-8.829 14.4-1.2428 4.2368-1.2428 4.2368 1.9168 2.3096 15.143 4.8508 7.2832-8.1007 8.9917-6.8216 6-3.4577v1.298l-3.2773 2.9659-5.3639 8.8821-2.0152 6.8103.40161.40161.40161.40162 22.634 4.446 10.819-10.944 7.0743-4.7154h2.2081l-10.638 15.365 1.4654 1.4654 10.532 3.0119 8.558.35663 5.6777-.1986 6.9825-6.7094 7.1279-6.1692.7456.7456-1.6775 3.7923-1.6775 3.7923-.47648 2.9801-.47656 2.9801 20.85 1.1597 4.795-.55654 4.7951-.55652 13.914-14.345.68272.68271-2.0315 5.3971-2.0326 5.3973v2.2284l6.8-.92122 19.2-3.1497 4.3492-.86399 2.6387-4.142 2.6388-4.142 4.7733-6.7393.6636-.0303.66352-.0304-.48168 2.2-.4816 2.2-.66248 4.2-.6624 4.2h1.3831l19.091-6.3142 4.5122-2.3333 7.0894-13.79 1.5488-1.3814 1.5488-1.3814-.46376 1.6-.46368 1.6-.2336 7.2.1488 2.1386 16.701-8.8394 11.699-7.5707 1.4025-1.6642 1.4025-1.6642 2.5816-8.8 2.4614-2.8h1.352v5.5056l.69784.43128.69784.43129 14.241-14.768 7.6654-10.011 3.4742-6.5946 3.4743-6.5946 4.004-10.4 4.0662-13.206.87632-4.997.8764-4.997.76328-4.3334.76336-4.3334v-29.35l-1.2491-7.7623-1.249-7.7623-3.1914-9.6581-10.073-20.89-11.369-18.738-9.2389-12.372-20.83-20.946-12.134-9.0472-12.939-7.7764-14.928-6.5375-3.7036-.98643-3.7035-.98643-6.8217 5.0167-8.6736 1.9411-13.739-1.8382-18.159-9.1024v-1.017l.94664-.94666.94672-.94667-.34672-.28551-.34664-.2855-15.744-4.3019-7.7423-3.9233-.97968-1.5852 2.6832-4.0951-.30832-.25472-.3084-.25472-9.6-2.5577-12-3.3808-2.4-.87407 6.2762-2.2399 32.124-1.5444 36.8.98729 6.5089 5.9336 8.6911 5.5175 15.2 8.1401 20.8 12.884 9.0932 5.8468 9.0931 5.8468 7.3069 6.0484 7.3068 6.0484 15.613 16.852 11.614 15.051 9.2905 14.4 5.4531 11.2 5.4531 11.2 4.9228 15.2 1.9642 8.4 1.9643 8.4 1.9582 20.596-.4633 12.102-.4634 12.102-1.2442 5.6-1.2443 5.6-1.9265 8-1.9266 8-3.3406 11.2-1.4408 3.2-2.6356 5.6-2.6357 5.6-5.5544 8.8-10.741 12.8-19.018 19.238-13.6 10.5-12.8 8.7588-13.6 7.9539-14.4 7.408-17.6 7.5279-14.941 4.7137-13.859 3.1774-25.6 3.9617-24.8 3.15-9.6 1.6011-44.8-.0476-14.4-2.3173-49.6-1.6632-20.8-2.5367-17.6 3.4583-11.6 2.4247v1.2815l7.3334 12.944 6.2401 5.6376 13.247 6.3528 10.73 6.9039 18.849 18.472 7.2 5.6809 8.8 6.1269 6.4 4.3304 17.6 9.2046 4.4415 4.0955 6.583 12.061 10.012 12.8 1.5149 1.6 1.5149 1.6 10.457 12 13.857 14.157 5.8844 9.843 2.7362 3.8 2.7361 3.8 5.8638.0548 12.701 6.7451 1.4081 2 1.4082 2 1.1042 6.2289-7.3094-5.0289-1.3117.058-5.6298 8.3421-2.9306 1.5771-2.9306 1.5771-15.535-3.5261-11.655 8.7718h-.82854l-1.2059-1.7217zm-613.76-399.14 2.0711-2.4614v-1.4772h-.63422l-11.766 4.7945-.4.004v1.6h8.6578l2.0711-2.4614z" stroke-width=".8"/></svg>
