<?xml version="1.0" encoding="UTF-8" standalone="no"?>
<!-- Created with Inkscape (http://www.inkscape.org/) -->

<svg
   xmlns:dc="http://purl.org/dc/elements/1.1/"
   xmlns:cc="http://creativecommons.org/ns#"
   xmlns:rdf="http://www.w3.org/1999/02/22-rdf-syntax-ns#"
   xmlns:svg="http://www.w3.org/2000/svg"
   xmlns="http://www.w3.org/2000/svg"
   xmlns:sodipodi="http://sodipodi.sourceforge.net/DTD/sodipodi-0.dtd"
   xmlns:inkscape="http://www.inkscape.org/namespaces/inkscape"
   width="545.59717mm"
   height="244.92764mm"
   viewBox="0 0 1933.2183 867.85385"
   id="svg5218"
   version="1.1"
   inkscape:version="0.91 r13725"
   sodipodi:docname="behemothtrace.svg">
  <defs
     id="defs5220" />
  <sodipodi:namedview
     id="base"
     pagecolor="#ffffff"
     bordercolor="#666666"
     borderopacity="1.0"
     inkscape:pageopacity="0.0"
     inkscape:pageshadow="2"
     inkscape:zoom="0.061871843"
     inkscape:cx="-4504.6819"
     inkscape:cy="1382.3448"
     inkscape:document-units="px"
     inkscape:current-layer="layer1"
     showgrid="false"
     inkscape:snap-global="false"
     inkscape:window-width="1920"
     inkscape:window-height="1056"
     inkscape:window-x="0"
     inkscape:window-y="24"
     inkscape:window-maximized="1"
     fit-margin-top="0"
     fit-margin-left="0"
     fit-margin-right="0"
     fit-margin-bottom="0" />
  <metadata
     id="metadata5223">
    <rdf:RDF>
      <cc:Work
         rdf:about="">
        <dc:format>image/svg+xml</dc:format>
        <dc:type
           rdf:resource="http://purl.org/dc/dcmitype/StillImage" />
        <dc:title></dc:title>
      </cc:Work>
    </rdf:RDF>
  </metadata>
  <g
     inkscape:label="Layer 1"
     inkscape:groupmode="layer"
     id="layer1"
     transform="translate(-5193.2291,-2179.3262)">
    <g
       id="g7215"
       transform="matrix(0.47646635,0,0,0.47646635,6218.3125,2334.5838)">
      <path
         sodipodi:nodetypes="scccsccsccsssssccscsssccsacsccccscsccssc"
         inkscape:connector-curvature="0"
         id="path5184"
         d="m -2130.2461,417.60742 c -4.8226,0.0746 -9.6594,0.78019 -11.6191,3.05274 -3.2079,3.7218 -1.6011,7.19531 -2.0118,14.60351 -0.5385,9.6462 9.834,27.26563 9.834,27.26563 35.6154,58.612 73.4798,117.22393 108.3282,175.83593 10.3088,17.3386 28.6702,46.24858 29.998,52.01368 0.5376,1.7351 -1.0234,16.35742 -1.0234,16.35742 -25.6245,121.71931 -38.7414,257.16613 -17.5059,364.76367 9.6468,48.8792 29.7849,77.272 53.0859,121.9062 7.8115,8.626 6.0165,7.6382 19.7227,6.9961 15.5568,-22.113 33.8332,-50.7988 45.3999,-86.4855 11.5668,-35.6868 16.7785,-72.9257 69.541,-79.0528 46.3017,-5.3767 51.7146,21.2429 111.0039,19.8711 14.3961,-0.3331 -35.3957,55.4373 -58.0039,60.4668 -16.5689,3.686 -36.976,0.7696 -62.0996,9.5645 -36.308,12.7099 -60.2909,56.4068 -65.7925,60.4992 -7.7664,10.0214 -2.7902,14.0481 1.2832,18.4102 104.8523,-5.7314 265.8991,-35.9505 347.5899,-83.8242 81.6907,-47.8737 140.1937,-131.23698 152.084,-151.43754 3.5552,-33.07221 -16.6106,-97.1581 -45.2289,-147.86794 -9.9488,-17.62879 -17.8144,-33.88941 -30.723,-46.29548 -2.5702,-2.47011 -13.1367,-8.46978 -16.8424,-7.85052 -27.9845,4.67658 -101.3392,57.55198 -110.4616,55.00613 15.7452,-8.58831 91.308,-56.61343 97.8571,-82.64468 6.5041,-25.85204 -16.914,-75.15086 -31.0036,-106.29282 -13.7297,-30.34647 -41.8843,-116.07643 -87.0625,-153.95313 -11.0342,-9.25089 -30.3521,-14.37727 -40.7343,-14.37727 -4.7144,13.5958 -12.2047,45.87275 -32.3918,67.59279 -24.1333,25.96585 -66.4126,38.57818 -143.7879,9.77081 -45.789,-16.3886 -91.5781,-35.65651 -137.3672,-57.94531 0,0 -63.5302,-35.57448 -96.8907,-49.98828 -13.8892,-6.0005 -42.8007,-15.10938 -42.8007,-15.10938 0,0 -6.1765,-0.94748 -12.377,-0.85156 z m 450.1582,318.55274 c 12.4895,0 -41.4151,62.79167 -64.9336,75.63867 -32.915,17.9795 -54.8235,17.84772 -69.9824,-0.42188 l 0,0.004 c -21.3574,-25.734 -3.9789,-41.77443 63.6641,-58.76563 36.0261,-9.0492 68.089,-16.45507 71.2519,-16.45507 z"
         style="font-style:normal;font-variant:normal;font-weight:normal;font-stretch:ultra-condensed;font-size:medium;line-height:100%;font-family:'Bowlby One SC';-inkscape-font-specification:'Bowlby One SC Ultra-Condensed';text-align:start;letter-spacing:0px;word-spacing:0px;text-anchor:start;fill:#000000;fill-opacity:1;stroke:#ffffff;stroke-width:15;stroke-linecap:butt;stroke-linejoin:miter;stroke-miterlimit:4;stroke-dasharray:none;stroke-opacity:1" />
      <path
         sodipodi:nodetypes="cssssscscssccssccccssscsssc"
         inkscape:connector-curvature="0"
         id="path7150"
         d="m -1665.7143,449.14792 c 0,0 39.3687,4.69895 57.5514,22.88164 7.5052,7.50517 28.1725,35.31851 45.8933,67.66962 25.2113,46.02582 48.5968,101.2364 55.122,120.21876 11.1117,32.32488 62.6295,131.82491 77.7818,163.13964 15.1523,31.31473 28.2842,67.17514 32.3249,78.28682 4.0406,11.11168 12.1217,41.92133 12.1217,41.92133 0,0 42.9316,-56.06347 96.4696,-82.32743 53.5381,-26.26397 117.6828,-46.9721 117.6828,-46.9721 0,0 -29.2944,-125.25891 -39.3959,-156.57364 -10.1016,-31.31473 -43.4366,-97.47972 -46.9721,-97.47972 -3.5356,0 -114.7688,87.05259 -114.7688,87.05259 l -18.9285,-29.81617 c 0,0 127.6363,-62.79226 127.6363,-66.32779 0,-3.53554 -27.7792,-50.00256 -37.8807,-63.63961 -10.1015,-13.63706 -67.6802,-64.14469 -67.6802,-64.14469 l -74.7513,102.53048 -17.1726,-27.77919 86.3681,-85.84266 c 0,0 -33.3351,-60.12439 -65.66,-83.86297 -32.3248,-23.73859 -80.3071,-53.03301 -117.6827,-63.63961 -37.3757,-10.6066 -83.3376,-10.10153 -109.6016,-19.69798 -26.2639,-9.59644 -103.0355,-74.24621 -103.0355,-74.24621 0,0 -6.566,61.11423 12.6269,108.08632 19.1929,46.9721 30.3045,60.10408 51.5178,74.75129 21.2132,14.64721 41.4162,17.1726 40.9111,39.90103 -0.505,22.72843 -0.4778,55.91025 -0.4778,55.91025 z"
         style="color:#000000;clip-rule:nonzero;display:inline;overflow:visible;visibility:visible;opacity:1;isolation:auto;mix-blend-mode:normal;color-interpolation:sRGB;color-interpolation-filters:linearRGB;solid-color:#000000;solid-opacity:1;fill:#000000;fill-opacity:1;fill-rule:evenodd;stroke:#ffffff;stroke-width:15;stroke-linecap:butt;stroke-linejoin:miter;stroke-miterlimit:4;stroke-dasharray:none;stroke-dashoffset:0;stroke-opacity:1;color-rendering:auto;image-rendering:auto;shape-rendering:auto;text-rendering:auto;enable-background:accumulate" />
      <path
         sodipodi:nodetypes="cssscssssssssssssssscsssscssssssssccscccc"
         inkscape:connector-curvature="0"
         id="path7152"
         d="m -1349.2858,20.933632 c 0,0 -135.7142,127.857148 -149.9999,149.285718 -14.2857,21.42857 -11.4286,37.85714 7.1428,54.28571 18.5715,16.42857 55,47.85714 62.8572,68.57143 7.8571,20.71429 24.4004,48.05233 38.0358,70.35714 13.6354,22.30481 30.8807,43.92858 46.2499,61.78572 15.8287,18.39092 39.2857,32.14285 65,64.99999 25.7143,32.85715 79.2857,149.28572 94.2857,194.28572 15,45 32.8572,101.42857 32.8572,130.71429 0,29.28571 -54.2858,199.28575 -80.7143,257.14285 -26.4286,57.8571 -67.8572,175.7143 -117.1429,221.4286 -49.2857,45.7143 -38.5714,40 -60.7143,52.8571 -22.1428,12.8572 -65.7143,15 -99.2857,34.2857 -33.5714,19.2857 -78.5714,51.4286 -80.7143,70.7143 -2.1428,19.2857 -9.2857,32.1429 42.8572,32.1429 52.1428,0 274.2857,-1.4286 292.8571,-0.7143 18.5714,0.7143 40.7143,-12.8572 40.7143,-27.1429 0,-14.2857 -21.4286,-41.4285 -22.8571,-62.8571 -1.4286,-21.4286 108.5714,-84.2857 163.5714,-122.1429 55,-37.8571 145.71427,-138.9286 174.99999,-166.7857 29.28571,-27.8572 -17.14286,-216.07141 -17.14286,-216.07141 0,0 67.14285,28.57143 127.14285,70.71429 60,42.14282 367.14286,312.85712 387.14286,332.14282 20,19.2857 57.85715,50 123.57143,65.7143 65.71429,15.7143 237.142859,29.2857 275.7142871,27.8572 38.5714289,-1.4286 99.2857149,-36.4286 99.2857149,-36.4286 0,0 -40.000001,-80.7143 -65.714286,-112.1429 -25.714286,-31.4285 -75,-95.7143 -112.142858,-92.8571 -37.142858,2.8571 -53.571428,38.5714 -61.428568,52.1428 -7.85715,13.5715 -12.85715,41.4286 -50,-5.7142 -37.14286,-47.1429 -1.09215,-3.8028 -104.12771,-74.5134 C -400.02041,1044.281 -620.23366,803.86468 -672.76159,729.11339 -725.28953,654.3621 -781.85807,516.98136 -804.08143,454.3519 c -22.22335,-62.62946 -96.97464,-210.11173 -133.34013,-299.00516 -36.36549,-88.893419 -114.72134,-270.84168 -114.72134,-270.84168 -12.8863,-46.07367 -40.8324,-31.90843 -68.5714,-18.57143 0,0 -64.2857,22.14286 -112.8572,55.714288 -48.5714,33.571428 -104.2856,89.285714 -104.2856,89.285714 l 313.5714,506.428568 -30.7143,25 z"
         style="color:#000000;clip-rule:nonzero;display:inline;overflow:visible;visibility:visible;opacity:1;isolation:auto;mix-blend-mode:normal;color-interpolation:sRGB;color-interpolation-filters:linearRGB;solid-color:#000000;solid-opacity:1;fill:#000000;fill-opacity:1;fill-rule:evenodd;stroke:#ffffff;stroke-width:15;stroke-linecap:butt;stroke-linejoin:miter;stroke-miterlimit:4;stroke-dasharray:none;stroke-dashoffset:0;stroke-opacity:1;color-rendering:auto;image-rendering:auto;shape-rendering:auto;text-rendering:auto;enable-background:accumulate" />
      <path
         sodipodi:nodetypes="csssssssscsssssscccsccccsscc"
         inkscape:connector-curvature="0"
         id="path7154"
         d="m -873.78195,-240.63305 c -71.72083,29.29442 -156.57365,61.6193 -165.66505,71.72083 -9.0913,10.10152 -13.132,18.18274 -6.0609,37.37564 7.0711,19.1929 132.33,295.9747 151.5229,343.45187 19.1929,47.47717 84.85281,174.75639 98.99495,212.13203 14.14213,37.37565 65.65991,165.66502 87.88327,205.06097 22.22335,39.39595 52.52793,77.78174 76.77159,115.15739 24.24366,37.37564 105.05587,131.31983 125.25892,149.50258 20.20305,18.18274 91.92388,92.93403 127.27922,123.23864 35.35534,30.3045 169.93991,135.3553 169.93991,135.3553 0,0 -14.28572,-12.8571 -15.71429,-75.7143 C -225,1013.7908 -220,938.07649 -220,895.21935 c 0,-42.85715 -10,-107.85715 -10,-133.57143 0,-25.71429 -43.57143,-98.57143 -73.57143,-146.42857 -30,-47.85715 -82.85714,-110.71429 -97.14286,-132.85715 -14.28571,-22.14285 -32.85714,-83.57142 -40.71428,-91.42857 -7.85714,-7.85714 -137.14286,85.71429 -137.14286,85.71429 L -594.28571,443.07649 -450,374.50506 c 0,0 -15,-12.85714 -36.42857,-67.85714 -21.42857,-55 -61.42857,-194.28572 -61.42857,-194.28572 l -143.72988,101.28372 -15.96682,-34.35006 150.41098,-81.219371 c 0,0 -5,-5.714285 -18.57143,-49.285714 C -589.28571,5.2193465 -609.28571,-78.352082 -627.14286,-119.06637 -645,-159.78065 -685,-292.6378 -685,-292.6378 c 0,0 -148.99247,34.00949 -188.78195,52.00475 z"
         style="color:#000000;clip-rule:nonzero;display:inline;overflow:visible;visibility:visible;opacity:1;isolation:auto;mix-blend-mode:normal;color-interpolation:sRGB;color-interpolation-filters:linearRGB;solid-color:#000000;solid-opacity:1;fill:#000000;fill-opacity:1;fill-rule:evenodd;stroke:#ffffff;stroke-width:15;stroke-linecap:butt;stroke-linejoin:miter;stroke-miterlimit:4;stroke-dasharray:none;stroke-dashoffset:0;stroke-opacity:1;color-rendering:auto;image-rendering:auto;shape-rendering:auto;text-rendering:auto;enable-background:accumulate" />
      <path
         sodipodi:nodetypes="sssssssscscssccssscscssssccssscscsscssssccccssss"
         inkscape:connector-curvature="0"
         id="path7156"
         d="m -653.71758,-273.82685 c 13.11255,37.26815 42.75184,122.10667 62.28901,182.617624 25.71429,79.642855 35.35714,122.142858 59.64285,182.857143 C -507.5,152.3622 -505,180.93363 -470,266.29077 c 35,85.35715 42.14286,98.21429 63.92857,143.21429 21.78572,45 39.28572,76.07143 77.14286,125.71429 37.85714,49.64285 66.78571,95 96.42857,142.85714 29.64286,47.85714 57.5,163.57143 63.21429,203.57143 5.71428,40 -12.14286,143.57138 -12.14286,143.57138 0,0 40.71428,7.8572 84.285713,10.7143 43.571428,2.8572 98.5714284,2.1429 98.5714284,2.1429 0,0 2.8571429,-11.4286 -12.8571424,-138.57144 C -27.142857,772.3622 -70,582.3622 -102.85714,520.93363 c -32.85715,-61.42857 -70,-105.71428 -70,-105.71428 l 17.14285,-1.42857 c 0,0 35.00106,44.09665 65.305637,107.73626 30.304577,63.63961 44.951788,119.70308 55.55839,177.28177 10.606602,57.5787 44.4467122,216.17265 46.972094,268.70058 2.525381,52.52791 2.525381,71.21571 2.525381,71.21571 0,0 45.456864,-1.0101 107.076168,-6.0609 61.61931,-5.0507 113.64216,-18.6878 113.64216,-18.6878 0,0 -14.64721,-90.91372 -21.2132,-132.83505 -6.56599,-41.92133 0.50508,-161.11933 6.06092,-183.84777 5.55583,-22.72843 26.26396,-136.37059 37.88072,-177.78684 11.61675,-41.41626 39.39594,-120.20816 46.46701,-137.38075 7.07107,-17.17259 54.54824,-92.42896 54.54824,-92.42896 l 9.09137,18.68782 c 0,0 -19.95051,24.49621 -46.21447,81.06475 -26.26397,56.56854 -53.53809,145.7145 -71.72083,224.00132 -18.18275,78.28683 -25.40483,132.31767 -25.40483,178.27961 0,45.96194 27.67767,219.72047 27.67767,219.72047 0,0 45.45686,-12.62688 81.31728,-26.26394 35.86041,-13.63706 61.6193,-36.36549 61.6193,-36.36549 0,0 0.50508,-80.8122 -0.50507,-161.11933 -1.01016,-80.30713 -13.63706,-69.70053 15.65736,-125.76399 29.29442,-56.06347 124.24876,-140.91628 124.24876,-140.91628 0,0 33.69566,-58.65977 67.98137,-302.94548 34.28572,-244.285714 -0.71428,-370 -3.92857,-386.07143 -3.21428,-16.07143 -17.14285,-50 -47.14285,-48.92857 -30,1.07143 -223.48614,35.88946 -340.66384,39.93007 -117.177693,4.04061 -261.629507,0 -261.629507,0 L 95.964492,296.7681 63.63961,305.85947 -82.832509,-182.04421 c 0,0 -117.177691,-26.26396 -192.939131,-43.43656 -75.76145,-17.17259 -120.20816,-48.48733 -217.1828,-63.63961 -66.32532,-10.36333 -119.50979,-9.25086 -146.99734,-6.79109 -12.70216,1.13667 -17.91163,10.30146 -13.7658,22.08462 z"
         style="color:#000000;clip-rule:nonzero;display:inline;overflow:visible;visibility:visible;opacity:1;isolation:auto;mix-blend-mode:normal;color-interpolation:sRGB;color-interpolation-filters:linearRGB;solid-color:#000000;solid-opacity:1;fill:#000000;fill-opacity:1;fill-rule:evenodd;stroke:#ffffff;stroke-width:15;stroke-linecap:butt;stroke-linejoin:miter;stroke-miterlimit:4;stroke-dasharray:none;stroke-dashoffset:0;stroke-opacity:1;color-rendering:auto;image-rendering:auto;shape-rendering:auto;text-rendering:auto;enable-background:accumulate" />
      <path
         sodipodi:nodetypes="sssssssssssssssssssssscsccsssssccsssssc"
         inkscape:connector-curvature="0"
         id="path7158"
         d="m 654.50781,125.58398 c -4.45949,-0.0438 -6.11574,0.78444 -10.53515,2.99414 -14.14214,7.07107 -15.65745,4.54463 -20.20313,28.28321 -4.54569,23.73859 -20.70864,151.01941 -34.3457,225.26562 -13.63706,74.24621 -42.93167,148.99694 -53.03321,167.17969 -10.10152,18.18274 -34.9615,31.62695 -70.67578,101.62695 -35.71429,70 -22.85742,147.14314 -22.85742,232.85743 0,85.71428 -4.28544,194.28498 -12.14258,251.42778 -7.85715,57.1429 -17.14396,143.572 -36.42968,175.7148 -19.28571,32.1429 -56.42886,68.572 -82.85743,90.7148 -26.42857,22.1429 -50,37.8567 -55,54.2852 -5,16.4286 -4.99916,30.7134 93.57227,31.4277 98.57143,0.7143 146.42912,1.43 175.71484,-0.7129 29.28571,-2.1428 5.71373,-89.2871 39.28516,-129.2871 33.57143,-40 51.42802,-55 84.28516,-65 32.85715,-10 57.14341,-21.428 55.71484,-94.2851 -1.42857,-72.8572 1.42885,-111.4283 7.85742,-132.1426 6.42858,-20.7143 68.57199,-78.57088 85.71485,-119.28516 17.14286,-40.71429 52.85602,-225.71541 78.57031,-321.42969 25.71428,-95.71429 77.14368,-285.71456 88.57226,-342.85742 11.42857,-57.14285 9.58789,-115.90278 9.58789,-127.51953 0,-11.61676 -5.05168,-27.27501 -40.91211,-28.28516 -35.86041,-1.01016 -150.51171,6.56641 -150.51171,6.56641 -96.18547,-3.12517 -119.56021,-7.44276 -129.3711,-7.53907 z m 112.91407,195.02149 14.73046,2.83203 c 0,0 -25.26616,131.38514 -34.33007,181.74023 -9.60822,53.37896 -52.29979,119.74627 -70.98829,174.82813 -19.36103,57.0641 -52.46934,135.51371 -65.3789,208.00586 -13.1559,73.87543 -22.19114,113.09408 -26.17774,157.94338 -2.86136,32.1903 -4.19465,59.7869 -4.72535,73.0149 -0.21474,5.3524 -0.29808,8.3523 -0.29808,8.3523 l -14.99414,-0.418 c 0,0 0.0827,-2.9815 0.2953,-8.3056 0.53218,-13.3242 1.8785,-41.3201 4.78087,-73.9717 4.09463,-46.06453 13.2435,-85.63736 26.35156,-159.24419 13.35441,-74.99013 46.91664,-154.12428 65.94141,-210.19726 19.6973,-58.05522 61.8571,-125.02776 70.43164,-172.66407 9.11882,-50.66014 34.36133,-181.91601 34.36133,-181.91601 z"
         style="color:#000000;clip-rule:nonzero;display:inline;overflow:visible;visibility:visible;opacity:1;isolation:auto;mix-blend-mode:normal;color-interpolation:sRGB;color-interpolation-filters:linearRGB;solid-color:#000000;solid-opacity:1;fill:#000000;fill-opacity:1;fill-rule:evenodd;stroke:#ffffff;stroke-width:15;stroke-linecap:butt;stroke-linejoin:miter;stroke-miterlimit:4;stroke-dasharray:none;stroke-dashoffset:0;stroke-opacity:1;color-rendering:auto;image-rendering:auto;shape-rendering:auto;text-rendering:auto;enable-background:accumulate" />
      <path
         sodipodi:nodetypes="sssssssssssssscssssscssssssssssssssss"
         inkscape:connector-curvature="0"
         id="path7165"
         d="m 777.85715,-230.49494 c -71.42857,-0.71428 -91.42858,9.28571 -114.28572,17.14286 -22.85714,7.85714 -40.71429,15.71428 -40.71429,34.28571 0,18.57143 14.28572,85.000002 14.28572,140.000002 0,55 -3.57143,117.142857 -3.57143,128.571429 0,11.428569 10,19.285719 25.71428,20.714289 15.71429,1.42857 98.57143,5.71428 146.42858,0 47.85714,-5.71429 143.57143,-8.57143 155.71428,-5.71429 12.14286,2.85714 30.71429,8.57143 32.14286,50 1.42857,41.42857 2.14286,85 -7.14286,129.28572 -9.28571,44.28571 -37.14285,142.14285 -52.14285,196.42857 -15,54.28571 -39.85715,125.71428 -55.57143,204.28571 C 863,763.07649 852.85714,788.07649 842.85714,838.79078 c -10,50.71428 -21.42857,85.71428 -26.42857,102.14285 -5,16.42857 -44.28571,73.57147 -44.28571,73.57147 0,0 50,-27.1429 109.28571,-39.28575 59.28572,-12.14286 128.57143,-23.57143 207.85713,-69.28572 79.2857,-45.71428 108.5714,-100.71428 137.8572,-149.28571 29.2857,-48.57143 55.7142,-90.71429 85,-141.42857 29.2857,-50.71429 84.2857,-218.57143 90,-236.42857 5.7142,-17.85715 31.4285,-89.28572 31.4285,-89.28572 0,0 11.4286,0.71429 64.2857,-7.85714 52.8572,-8.57143 95,-48.57143 125.7143,-87.14286 C 1654.2857,155.93363 1640,83.076489 1619.2857,30.219347 1598.5714,-22.637796 1558.5714,-49.780654 1490,-78.352082 1421.4286,-106.92351 1375,-112.6378 1342.8571,-147.6378 c -32.1428,-35 -39.2857,-65.71428 -39.2857,-100.71428 0,-35 -32.1428,-70 -44.2857,-70 -12.1428,0 -37.1428,45 -43.5714,82.85714 -6.4286,37.85714 -22.8572,57.14286 30,102.14286 52.8571,44.999998 92.1428,50.714284 139.2857,74.999998 47.1429,24.285714 114.2857,43.571428 140.7143,96.428571 26.4286,52.857143 41.4286,79.285711 -4.2857,103.571431 -45.7143,24.28571 -112.8572,-17.85714 -165.7143,-65.000002 -52.8572,-47.142857 -124.2857,-150.714286 -210,-198.571428 -85.7143,-47.85714 -178.57144,-95 -249.28573,-105.71429 -70.71428,-10.71428 -76.11174,-2.43255 -118.57142,-2.85714 z"
         style="color:#000000;clip-rule:nonzero;display:inline;overflow:visible;visibility:visible;opacity:1;isolation:auto;mix-blend-mode:normal;color-interpolation:sRGB;color-interpolation-filters:linearRGB;solid-color:#000000;solid-opacity:1;fill:#000000;fill-opacity:1;fill-rule:evenodd;stroke:#ffffff;stroke-width:15;stroke-linecap:butt;stroke-linejoin:miter;stroke-miterlimit:4;stroke-dasharray:none;stroke-dashoffset:0;stroke-opacity:1;color-rendering:auto;image-rendering:auto;shape-rendering:auto;text-rendering:auto;enable-background:accumulate" />
      <path
         sodipodi:nodetypes="cscsccccsssssssssccccsssc"
         inkscape:connector-curvature="0"
         id="path7167"
         d="m 1451.4286,325.21935 c 0,0 -92.8572,260 -121.4286,335.71428 -28.5714,75.71429 -155.7143,292.85715 -155.7143,292.85715 0,0 78.5714,69.99992 168.5714,112.85712 21.6752,10.3215 99.635,45.3755 99.635,45.3755 l 42.5937,-83.9018 32.85,14.128 -38.4145,86.4029 c 0,0 82.0236,36.1959 94.7644,43.7097 55.7143,32.8571 95.7143,78.5714 104.2857,142.8571 8.5715,64.2858 44.2857,150 55.7143,160 11.4286,10 45.7143,10 52.8572,10 7.1428,0 65.7142,-138.5714 82.8571,-182.8571 17.1429,-44.2857 32.8571,-97.1429 27.1429,-118.5714 -5.7143,-21.4286 -68.5715,-4.2857 -95.7143,-15.7143 -27.1429,-11.4286 -57.1429,-65.7143 -58.5715,-111.4286 -1.4285,-45.7143 14.2858,-114.28569 -45.7142,-141.42855 -29.9762,-13.56065 -105.9906,-55.48421 -105.9906,-55.48421 l -21.0091,86.474 -33.2303,-20.62759 31.6564,-81.9858 c 0,0 -45.9601,-35.63946 -61.4264,-48.3764 -48.5715,-40.00005 -35.3506,-29.74047 -41.4116,-39.33692 -6.0609,-9.59645 22.7285,-75.76144 23.2336,-137.88582 0.505,-62.12438 -37.5363,-292.77726 -37.5363,-292.77726 z"
         style="color:#000000;clip-rule:nonzero;display:inline;overflow:visible;visibility:visible;opacity:1;isolation:auto;mix-blend-mode:normal;color-interpolation:sRGB;color-interpolation-filters:linearRGB;solid-color:#000000;solid-opacity:1;fill:#000000;fill-opacity:1;fill-rule:evenodd;stroke:#ffffff;stroke-width:15;stroke-linecap:butt;stroke-linejoin:miter;stroke-miterlimit:4;stroke-dasharray:none;stroke-dashoffset:0;stroke-opacity:1;color-rendering:auto;image-rendering:auto;shape-rendering:auto;text-rendering:auto;enable-background:accumulate" />
    </g>
  </g>
</svg>
