<?xml version="1.0" encoding="utf-8"?>
<svg id="master-artboard" viewBox="0 0 1400 980" version="1.1" xmlns="http://www.w3.org/2000/svg" x="0px" y="0px" style="enable-background:new 0 0 336 235.2;" width="1400px" height="980px"><g transform="matrix(1.8421052631578947, 0, 0, 1.8421052631578947, -0.000013094553651171736, 38.68421052631578)"><metadata id="metadata8">
    
  </metadata><g id="g10">
    <path style="opacity: 1; fill: rgb(0, 0, 0); fill-opacity: 1; stroke-width: 2.32637; stroke-linecap: round; paint-order: markers;" d="m 139.47118,267.58613 40.06126,-4.01579 c 2.89526,24.57794 10.61307,54.00112 26.59622,70.09305 l -25.50253,77.03128 c -5.8625,17.70791 0.37848,22.38234 12.87882,22.83544 34.10999,1.23635 30.62234,-25.74903 34.16123,-25.86857 13.56873,-0.45832 15.51516,-0.73395 19.99863,-3.0402 4.89895,-2.51998 19.3582,-42.99948 19.3582,-42.99948 -5.07356,-1.93985 -8.65022,-2.19904 -12.70574,-6.71294 l 27.26764,4.86497 -32.8848,91.90303 c -10.91929,30.51615 -0.81244,29.28435 18.11446,25.06435 22.31434,-4.97528 34.74342,-13.18761 33.69914,-33.81129 33.16618,1.35207 31.47039,-13.61653 37.3367,-29.46259 2.58111,-6.97208 -0.78211,-13.03353 3.15178,-19.61757 5.99675,-10.03656 10.46932,-20.85697 10.46932,-20.85697 l 59.42644,-1.69304 -8.3319,29.96463 c -9.69497,34.86676 -5.87458,41.75075 12.63319,37.94757 7.02778,-1.44415 27.61089,-6.14344 25.85673,-17.757 -1.32763,-8.78964 1.42469,-8.8793 10.23399,-11.10067 12.09457,-3.0498 10.22721,-16.40673 9.69873,-19.85539 -1.32392,-8.63947 9.72353,-24.06279 9.72353,-24.06279 l 7.40607,-0.48218 c 5.93571,15.8876 11.98262,27.92482 32.72886,33.44962 0,0 -4.57846,23.68378 7.85343,24.20094 11.71022,0.48715 11.55668,-22.44736 11.55668,-22.44736 l 11.066,2.00522 c -11.36347,37.93992 24.22132,30.05521 18.43703,4.90456 5.77422,-0.49926 8.60701,-4.29397 10.45507,-9.19189 -0.38675,33.698 30.65589,16.16582 18.82812,-10.83299 5.47624,-2.2566 11.32342,-6.00058 17.49653,-11.05144 l 0.46032,13.85499 c -21.08823,43.92995 -58.76863,87.32621 -26.38351,89.05405 13.43516,0.71681 23.29287,-2.36835 39.01176,-10.52082 7.4819,-3.88041 3.93628,-20.69781 15.59384,-21.29167 20.49512,-1.04406 10.80584,-33.30793 20.39608,-42.61412 14.41319,-13.98628 42.18312,-18.49334 33.55833,-53.39603 -9.97013,-40.34696 -13.23454,-87.65416 -13.23454,-87.65416 14.02435,-21.66689 20.26979,-64.60016 19.8401,-125.78225 0,0 8.39068,5.67821 10.96428,24.58877 1.43315,10.53062 -6.32481,27.20825 -0.54363,38.40805 -25.12624,32.09015 31.27111,69.68832 43.79696,45.03189 -6.73801,-4.38813 -12.76634,-10.17069 -13.93908,-15.11941 -1.95353,-8.2434 2.52818,-20.72983 0.19438,-26.82083 -4.34179,-11.33168 -17.46349,-10.39338 -17.46349,-10.39338 -1.4449,-19.56658 9.42002,-28.69916 3.01275,-54.3696 -8.18525,-32.79375 -36.49874,-27.99181 -36.49874,-27.99181 C 680.21283,89.06743 675.23868,67.474543 630.89471,48.223859 578.36985,25.421684 468.58429,-0.97369537 295.44617,14.833008 c -64.8809,-16.9773962 2.65872,8.167401 -196.036249,117.220252 0,0 -10.160683,-21.27332 -13.770112,-21.18542 -9.029727,0.21992 -6.260517,23.19331 -6.260517,23.19331 l -9.579721,3.97246 c 0,0 -9.217294,-12.15835 -12.974021,-17.78203 -1.003809,-1.50267 -8.333996,-2.52471 -10.53017,-0.77273 -2.193384,1.74975 0.127541,25.99193 0.127541,25.99193 l 6.698426,14.16551 c -10.471334,4.92444 -21.758843,7.42926 -34.49495,9.75914 -1.583912,16.17505 6.403838,26.14861 31.708484,24.90256 0,0 -6.648306,35.82203 -24.593489,55.00952 -26.48461394,28.3181 -15.070243,50.81455 1.558266,64.4602 12.631381,10.36552 42.06432,14.05526 51.825812,-9.88556 6.162577,-15.11421 32.68617,-9.16928 45.90071,-14.42563 13.94741,-5.54786 14.445,-21.87039 14.445,-21.87039 z" id="path848"/>
    <path style="fill:none;stroke:#e6e6e6;stroke-width:5.0137;stroke-linecap:round;stroke-linejoin:miter;stroke-miterlimit:4;stroke-dasharray:none;stroke-opacity:1" d="m 105.66778,170.09097 c 0,0 -7.057733,6.98268 -13.451036,12.39911 -6.516736,5.521 -15.354014,10.50684 -15.354014,10.50684" id="path856"/>
    <path style="fill:none;stroke:#e6e6e6;stroke-width:5.0137;stroke-linecap:round;stroke-linejoin:miter;stroke-miterlimit:4;stroke-dasharray:none;stroke-opacity:1" d="m 730.59056,208.06066 c -0.32165,-1.92411 -3.75201,-4.52437 -6.24131,-4.34062" id="path856-7"/>
    <path style="fill:none;stroke:#e6e6e6;stroke-width:5.0137;stroke-linecap:round;stroke-linejoin:miter;stroke-miterlimit:4;stroke-dasharray:none;stroke-opacity:1" d="m 317.17993,38.639179 c -3.88391,-5.048597 -8.29467,-8.727105 -14.16911,-6.785821" id="path856-7-2"/>
    <path style="fill:none;stroke:#e6e6e6;stroke-width:5.0137;stroke-linecap:round;stroke-linejoin:miter;stroke-miterlimit:4;stroke-dasharray:none;stroke-opacity:1" d="m 681.33403,362.94779 c 0.92106,-2.02281 0.69925,-5.02206 -0.18541,-6.53882" id="path856-7-2-4"/>
    <path style="fill:none;stroke:#e6e6e6;stroke-width:5.0137;stroke-linecap:round;stroke-linejoin:miter;stroke-miterlimit:4;stroke-dasharray:none;stroke-opacity:1" d="m 82.781282,225.44097 c -0.428241,-2.76382 1.148816,-9.2211 2.957511,-10.55262" id="path856-7-2-4-7"/>
    <path style="fill:none;stroke:#e6e6e6;stroke-width:3.81041;stroke-linecap:round;stroke-linejoin:miter;stroke-miterlimit:4;stroke-dasharray:none;stroke-opacity:1" d="m 52.767817,167.83369 c 0,0 1.703234,-1.68752 2.895908,-2.83379" id="path856-7-2-4-7-8"/>
    <path style="fill:none;stroke:#e6e6e6;stroke-width:3.81041;stroke-linecap:round;stroke-linejoin:miter;stroke-miterlimit:4;stroke-dasharray:none;stroke-opacity:1" d="m 53.867983,125.75455 c 0.588884,0.4849 10.429253,15.88201 12.478955,17.33917" id="path856-7-2-4-7-8-1"/>
    <g id="g1150" transform="matrix(0.4572060108184815, -0.1068396344780922, 0.10872220247983934, 0.4621176421642304, 102.10222118281638, 826.1587345901316)" style="fill:#feffff;fill-opacity:1;stroke-width:2.34607">
      <g id="g1146" style="fill:#feffff;fill-opacity:1;stroke-width:2.34607">
        <g id="g1144" style="fill:#feffff;fill-opacity:1;stroke-width:2.34607">
          <path id="path1122" d="m 88.211,74.299 c 0,0.553 0.368,-5.341 0.92,-6.26 0,-2.578 3.866,-22.65 6.628,-35.908 1.657,-8.288 5.156,-21.361 5.156,-21.361 1.29,-5.341 4.419,-8.288 7.734,-9.576 6.077,-2.209 21.729,2.947 25.965,6.998 4.234,4.234 1.472,15.284 -0.185,20.992 l -25.597,97.043 -3.683,12.154 c -0.736,2.21 -1.104,2.579 0.185,6.075 0.551,4.052 0.37,5.155 -0.368,6.445 -4.051,4.605 -18.598,2.579 -24.123,1.104 -18.23,-5.34 -15.1,-7.734 -17.862,-26.517 l -8.839,-56.165 -0.92,-5.524 -2.947,22.096 c -3.129,22.285 -13.626,57.644 -13.994,58.373 -1.289,4.975 -1.289,8.29 -8.104,9.21 -6.445,1.105 -22.833,-2.209 -26.517,-5.709 -4.234,-4.23 0.922,-19.703 1.29,-21.728 L 30.94,18.871 c 0.921,-3.683 4.236,-16.389 9.575,-18.415 4.236,-1.657 20.257,1.475 26.701,4.972 12.155,6.261 13.995,26.702 17.495,44.011 1.842,9.392 3.5,24.86 3.5,24.86 z" fill="#ff6702" style="fill:#feffff;fill-opacity:1;stroke-width:5.3424"/>
          <path id="path1124" d="m 156.064,28.709 c 2.542,-0.299 19.45,1.946 23.938,4.189 4.041,1.945 0.899,10.024 -1.196,18.103 l -21.246,84.537 c -2.542,9.874 -4.339,18.704 -12.718,17.807 -3.74,-0.299 -16.159,-2.396 -20.049,-6.283 -4.787,-4.491 -0.449,-16.459 0.299,-19.002 L 149.03,38.585 c 1.948,-7.182 3.892,-9.427 7.034,-9.876 z" fill="#ff6702" style="fill:#feffff;fill-opacity:1;stroke-width:5.3424"/>
          <path id="path1126" d="m 234.312,60.729 c 0.15,-2.096 -1.645,-3.441 -4.189,-2.994 -0.898,0.149 -2.393,1.048 -3.741,2.095 -11.072,9.876 -17.804,44.586 -17.356,53.564 0.15,2.845 1.047,5.237 2.993,6.286 1.196,0.597 2.993,0.597 4.488,-0.898 3.292,-3.144 5.237,-11.223 9.577,-14.365 4.339,-2.992 13.466,-4.038 19.15,-1.794 2.693,1.048 4.788,2.546 5.087,5.388 0.599,5.984 -5.685,25.585 -18.104,36.058 -9.126,7.78 -24.686,11.221 -33.364,8.379 -10.773,-3.592 -16.309,-13.018 -18.703,-22.893 -5.536,-22.293 2.543,-64.636 24.239,-86.629 11.819,-12.12 28.28,-16.16 39.949,-13.615 7.481,1.646 13.466,7.031 16.008,14.364 1.797,5.236 1.797,20.498 -2.693,25.882 -4.938,6.133 -13.315,6.584 -18.703,5.835 -3.142,-0.299 -5.684,-1.646 -6.733,-4.19 -0.748,-1.795 1.796,-5.835 2.095,-10.473 z" fill="#ff6702" style="fill:#feffff;fill-opacity:1;stroke-width:5.3424"/>
          <path id="path1128" d="m 298.046,75.689 c 15.261,-7.778 21.995,-15.259 29.326,-29.624 2.095,-4.041 3.741,-8.679 4.339,-10.475 1.347,-3.889 1.347,-5.535 5.834,-6.134 2.244,-0.148 18.553,4.489 21.096,7.631 2.246,2.992 -1.645,11.52 -2.693,13.615 -7.333,18.104 -24.389,41.893 -45.484,49.824 1.497,1.945 23.491,41.297 24.239,43.092 1.645,3.44 3.44,6.134 1.345,8.977 -3.439,4.637 -17.503,11.073 -20.795,10.774 -4.489,-0.151 -11.223,-14.517 -12.568,-17.358 l -15.261,-30.519 -7.481,33.212 c -0.597,2.396 -1.646,5.089 -4.041,4.64 -3.739,-0.45 -21.544,-3.591 -23.79,-5.984 -3.142,-3.141 0.3,-13.616 1.348,-17.207 l 22.292,-85.882 c 1.047,-4.189 1.197,-4.338 2.394,-8.678 0.749,-3.141 2.396,-6.283 6.882,-6.881 2.693,-0.3 19.151,1.645 22.442,4.937 3.292,3.44 -1.046,14.96 -1.945,18.104 z" fill="#ff6702" style="fill:#feffff;fill-opacity:1;stroke-width:5.3424"/>
          <path id="path1130" d="m 386.018,58.634 c -1.197,0 9.725,3.891 10.771,7.331 0.449,0.897 -2.094,13.167 -2.094,13.167 h 11.969 c 2.244,0 18.403,-0.299 20.348,3.292 1.647,2.993 -3.741,19.75 -5.836,22.893 -3.292,5.686 -12.865,3.74 -17.654,3.441 h -17.207 l -3.891,15.408 h 15.411 c 8.828,0 16.906,-0.447 18.552,3.293 1.348,3.291 -2.094,16.758 -4.34,20.347 -3.439,5.388 -13.166,5.089 -17.654,4.94 h -17.954 c -7.481,0.146 -13.915,0.599 -20.499,-7.482 -8.978,-11.221 -5.834,-12.567 -2.843,-26.632 l 2.244,-10.174 c 0.749,-4.041 -5.386,-0.45 -5.538,-5.536 -0.148,-2.993 2.845,-20.199 7.184,-22.742 1.944,-1.198 4.04,-0.899 6.283,-0.899 0,0 2.843,-10.174 4.937,-20.646 -3.741,-0.449 -7.181,0 -8.529,-2.843 -1.346,-2.542 4.788,-20.199 5.686,-21.845 2.843,-4.938 9.875,-4.338 17.056,-4.338 h 40.847 c 8.679,0 14.662,0.598 16.458,4.04 1.347,2.992 -3.442,18.554 -5.687,21.844 -2.094,3.74 -4.488,3.891 -8.978,3.891 -1.346,0 -2.693,-0.299 -4.787,-0.45 -1.646,-0.148 -3.592,-0.299 -5.239,-0.299 z" fill="#ff6702" style="fill:#feffff;fill-opacity:1;stroke-width:5.3424"/>
          <path id="path1132" d="m 462.019,120.728 h 17.208 c 12.417,0 14.812,-0.749 16.757,2.394 1.646,2.691 -4.788,22.742 -5.387,24.091 -3.292,6.432 -9.125,5.534 -16.906,5.534 h -14.063 c -7.333,0 -14.365,1.048 -19.75,-5.986 -12.418,-15.708 -11.67,-17.205 -7.78,-33.215 l 18.853,-73.912 c 1.944,-4.638 2.394,-9.426 7.631,-10.772 4.338,-1.197 21.694,2.992 23.788,5.386 2.693,2.544 -1.346,14.362 -1.945,17.356 z" fill="#ff6702" style="fill:#feffff;fill-opacity:1;stroke-width:5.3424"/>
          <path id="path1134" d="m 558.373,43.971 c 4.338,-3.891 16.456,-15.112 20.646,-13.766 4.786,1.346 7.332,8.378 8.827,13.614 6.584,24.538 1.646,69.125 -21.693,93.96 -11.521,12.12 -27.829,17.655 -38.752,15.265 -13.468,-2.845 -21.396,-10.625 -26.483,-24.988 -7.48,-21.696 -0.896,-56.855 17.207,-78.85 10.623,-12.717 27.532,-21.544 36.657,-20.498 2.691,0.299 4.338,1.198 5.087,3.292 0.748,1.796 -0.3,6.584 -1.496,11.971 z m -2.843,12.568 c -0.451,1.197 -0.451,2.245 -1.647,3.292 -0.599,0.899 -2.691,1.947 -3.291,2.394 -2.243,1.498 -2.691,1.795 -3.59,2.694 -12.569,10.473 -19.151,35.01 -17.506,45.634 0.747,4.488 2.244,7.632 5.386,9.128 2.692,1.345 7.182,-1.496 8.38,-2.697 14.961,-15.559 16.009,-47.727 13.614,-63.286 -0.451,-0.302 -1.346,2.392 -1.346,2.841 z" fill="#ff6702" style="fill:#feffff;fill-opacity:1;stroke-width:5.3424"/>
          <path id="path1136" d="m 608.788,60.878 c -3.441,1.346 -7.479,4.339 -10.471,3.59 -1.498,-0.598 -1.947,-1.945 -1.947,-3.891 -0.148,-0.897 1.347,-5.087 1.646,-6.134 l 1.048,-3.441 c 3.592,-12.269 2.094,-16.606 14.514,-19.899 17.207,-4.338 43.391,-4.787 60.446,12.27 13.466,13.316 14.362,37.557 10.323,53.115 -7.778,29.476 -25.436,47.131 -54.609,55.36 -5.836,1.795 -17.807,3.438 -23.792,-2.244 -17.505,-16.609 -14.363,-18.556 -10.771,-35.462 z m 42.194,39.649 c 4.789,-9.877 6.883,-24.389 0.147,-34.264 -6.882,-10.024 -21.545,-10.024 -30.222,-8.978 4.638,0.898 11.817,2.245 15.71,6.435 3.44,4.038 -0.299,13.766 -1.349,17.355 l -9.724,39.649 c 12.72,-2.391 20.051,-9.722 25.438,-20.197 z" fill="#ff6702" style="fill:#feffff;fill-opacity:1;stroke-width:5.3424"/>
          <path id="path1138" d="m 724.59,58.634 c -1.197,0 9.727,3.891 10.773,7.331 0.447,0.897 -2.096,13.167 -2.096,13.167 h 11.971 c 2.242,0 18.4,-0.299 20.348,3.292 1.647,2.993 -3.741,19.75 -5.834,22.893 -3.293,5.686 -12.87,3.74 -17.656,3.441 H 724.891 L 721,124.166 h 15.409 c 8.829,0 16.906,-0.447 18.553,3.293 1.348,3.291 -2.093,16.758 -4.338,20.347 -3.441,5.388 -13.167,5.089 -17.655,4.94 h -17.957 c -7.479,0.146 -13.913,0.599 -20.496,-7.482 -8.976,-11.221 -5.835,-12.567 -2.842,-26.632 l 2.242,-10.174 c 0.751,-4.041 -5.386,-0.45 -5.534,-5.536 -0.148,-2.993 2.843,-20.199 7.181,-22.742 1.945,-1.198 4.04,-0.899 6.285,-0.899 0,0 2.845,-10.174 4.938,-20.646 -3.741,-0.449 -7.183,0 -8.528,-2.843 -1.346,-2.542 4.787,-20.199 5.687,-21.845 2.842,-4.938 9.875,-4.338 17.058,-4.338 h 40.845 c 8.68,0 14.665,0.598 16.459,4.04 1.347,2.992 -3.441,18.554 -5.685,21.844 -2.095,3.74 -4.489,3.891 -8.98,3.891 -1.345,0 -2.69,-0.299 -4.787,-0.45 -1.645,-0.148 -3.589,-0.299 -5.235,-0.299 z" fill="#ff6702" style="fill:#feffff;fill-opacity:1;stroke-width:5.3424"/>
          <path id="path1140" d="m 829.618,43.971 c 4.341,-3.891 16.458,-15.112 20.647,-13.766 4.787,1.346 7.331,8.378 8.826,13.614 6.585,24.538 1.647,69.125 -21.692,93.96 -11.521,12.12 -27.83,17.655 -38.751,15.265 -13.468,-2.845 -21.395,-10.625 -26.484,-24.988 -7.479,-21.696 -0.896,-56.855 17.208,-78.85 10.621,-12.717 27.53,-21.544 36.656,-20.498 2.691,0.299 4.34,1.198 5.086,3.292 0.75,1.796 -0.299,6.584 -1.496,11.971 z m -2.841,12.568 c -0.45,1.197 -0.45,2.245 -1.647,3.292 -0.6,0.899 -2.694,1.947 -3.292,2.394 -2.243,1.498 -2.693,1.795 -3.591,2.694 -12.569,10.473 -19.15,35.01 -17.505,45.634 0.747,4.488 2.244,7.632 5.386,9.128 2.691,1.345 7.183,-1.496 8.38,-2.697 14.961,-15.559 16.009,-47.727 13.614,-63.286 -0.449,-0.302 -1.345,2.392 -1.345,2.841 z" fill="#ff6702" style="fill:#feffff;fill-opacity:1;stroke-width:5.3424"/>
          <path id="path1142" d="m 923.723,89.006 c 0,0.451 0.302,-4.338 0.75,-5.086 0,-2.097 3.145,-18.402 5.387,-29.176 1.347,-6.733 4.189,-17.356 4.189,-17.356 1.046,-4.338 3.592,-6.731 6.285,-7.78 4.937,-1.796 17.653,2.395 21.096,5.685 3.441,3.441 1.197,12.419 -0.147,17.057 l -20.802,78.852 -2.991,9.874 c -0.598,1.794 -0.896,2.096 0.15,4.937 0.447,3.294 0.3,4.189 -0.301,5.236 -3.292,3.74 -15.11,2.097 -19.599,0.896 -14.814,-4.339 -12.27,-6.282 -14.516,-21.545 l -7.181,-45.633 -0.751,-4.491 -2.393,17.957 c -2.542,18.105 -11.07,46.829 -11.37,47.43 -1.046,4.038 -1.046,6.732 -6.583,7.481 -5.237,0.897 -18.555,-1.797 -21.547,-4.64 -3.441,-3.442 0.751,-16.011 1.05,-17.655 L 877.19,43.97 c 0.746,-2.993 3.439,-13.315 7.779,-14.962 3.442,-1.347 16.459,1.198 21.694,4.041 9.873,5.086 11.372,21.694 14.215,35.759 1.5,7.63 2.845,20.198 2.845,20.198 z" fill="#ff6702" style="fill:#feffff;fill-opacity:1;stroke-width:5.3424"/>
        </g>
      </g>
      <path id="path1148" d="m 985.56033,54.162228 0.13418,-6.50282 4.19965,-0.08023 c 2.19665,-0.02905 4.6838,0.535331 4.76265,3.211986 0,3.267318 -2.62271,3.451294 -5.32427,3.371064 z m 0,2.72922 3.66432,0.106513 5.53729,9.259705 3.71962,-0.109279 -5.93703,-9.367602 c 2.78317,-0.239308 5.48196,-2.030661 5.40173,-5.858209 -0.0526,-4.145703 -2.67389,-6.020053 -7.5223,-6.020053 l -8.1849,-0.10513 V 66.14977 h 3.31712 v -9.258322 z m 3.84968,17.12921 c 10.00945,0 18.76279,-7.815557 18.78769,-18.545693 -0.1341,-10.572442 -8.80314,-18.219238 -18.78769,-18.407365 -10.13809,0.0249 -18.78362,7.782358 -18.78362,18.541543 -0.10375,10.595958 8.64553,18.353417 18.78362,18.411515 M 974.34743,55.584244 c -0.0816,-8.913884 6.47515,-15.445753 15.06396,-15.445753 8.21533,0 15.01561,6.690947 14.90491,15.470652 0,8.826738 -6.6384,15.303275 -14.90491,15.249327 -8.3246,0.109279 -15.22443,-6.581667 -15.06396,-15.274226" fill="#ff6702" style="fill:#feffff;fill-opacity:1;stroke-width:7.39006"/>
    </g>
  </g></g></svg>