<?xml version="1.0" encoding="UTF-8" standalone="no"?>
<!-- Created with Inkscape (http://www.inkscape.org/) -->

<svg
   xmlns:dc="http://purl.org/dc/elements/1.1/"
   xmlns:cc="http://creativecommons.org/ns#"
   xmlns:rdf="http://www.w3.org/1999/02/22-rdf-syntax-ns#"
   xmlns:svg="http://www.w3.org/2000/svg"
   xmlns="http://www.w3.org/2000/svg"
   xmlns:sodipodi="http://sodipodi.sourceforge.net/DTD/sodipodi-0.dtd"
   xmlns:inkscape="http://www.inkscape.org/namespaces/inkscape"
   width="898.94122"
   height="800"
   id="svg3813"
   version="1.1"
   inkscape:version="0.48.4 r9939"
   sodipodi:docname="Дельфинарий.svg">
  <defs
     id="defs3815" />
  <sodipodi:namedview
     id="base"
     pagecolor="#ffffff"
     bordercolor="#666666"
     borderopacity="1.0"
     inkscape:pageopacity="0.0"
     inkscape:pageshadow="2"
     inkscape:zoom="0.35"
     inkscape:cx="-276.57611"
     inkscape:cy="408.6875"
     inkscape:document-units="px"
     inkscape:current-layer="layer1"
     showgrid="false"
     fit-margin-top="0"
     fit-margin-left="0"
     fit-margin-right="0"
     fit-margin-bottom="0"
     inkscape:window-width="1920"
     inkscape:window-height="1018"
     inkscape:window-x="-8"
     inkscape:window-y="-8"
     inkscape:window-maximized="1" />
  <metadata
     id="metadata3818">
    <rdf:RDF>
      <cc:Work
         rdf:about="">
        <dc:format>image/svg+xml</dc:format>
        <dc:type
           rdf:resource="http://purl.org/dc/dcmitype/StillImage" />
        <dc:title />
      </cc:Work>
    </rdf:RDF>
  </metadata>
  <g
     inkscape:label="Layer 1"
     inkscape:groupmode="layer"
     id="layer1"
     transform="translate(536.99531,-141.04968)">
    <path
       style="color:#000000;fill:#000000;stroke:none;stroke-width:1.01138985;marker:none;visibility:visible;display:inline;overflow:visible;enable-background:accumulate"
       d="m -136.99531,141.04968 c -220.91056,0 -400,179.08944 -400,400 0,220.91056 179.08944,400 400,400 220.910561,0 400,-179.08944 400,-400 0,-220.91056 -179.089439,-400 -400,-400 z m 0,50.97846 c 192.764432,0 349.05443,156.25711 349.05443,349.02154 0,192.76443 -156.289998,349.05443 -349.05443,349.05443 -192.76443,0 -349.02154,-156.29 -349.02154,-349.05443 0,-192.76443 156.25711,-349.02154 349.02154,-349.02154 z"
       id="path2996"
       inkscape:connector-curvature="0" />
    <path
       style="fill:#000000;stroke:none"
       d="m -247.69959,257.0974 c -3.55295,-0.004 -7.22104,0.98646 -10.22858,2.23648 -77.13526,32.05961 -103.64443,87.22404 -125.67012,144.08814 -18.43305,12.53983 -35.67304,26.28913 -51.57046,40.94721 -104.27416,96.14507 -128.23856,254.17205 -31.1462,352.90249 13.59621,13.82559 20.97869,29.5969 17.03668,54.2345 l -4.27562,26.57457 c -9.84354,61.52214 61.90964,64.18941 81.86154,25.52212 22.9952,-44.56528 36.16106,-91.395 54.2345,-129.7155 95.8801,37.27336 207.92006,-59.12834 198.81598,-123.33498 -58.18135,38.81607 -105.92009,46.25263 -141.4241,17.03667 111.18065,-146.91641 252.0805255,-146.67664 393.38924,-130.76797 48.98862,5.51519 78.49839,25.20658 157.34254,24.43677 -13.39607,20.62139 -24.52309,44.78772 -13.8464,74.42855 3.87217,10.74999 1.84325,18.29144 3.09159,30.25818 0.55113,5.28312 9.30848,4.60296 13.08996,-0.59201 34.00508,-46.71591 77.58006,-77.01097 40.19075,-123.2363 36.07329,-18.02681 32.29136,-59.44325 20.42428,-104.88407 -4.5825,-17.54707 -2.30298,-34.67289 -3.55205,-51.7678 -0.49951,-6.83645 -10.28545,-6.34699 -11.57704,-0.29601 -4.06426,19.04052 -27.431,37.67883 -34.2049,58.64168 -7.20788,22.30586 -12.92254,43.02314 -12.56373,74.92188 -80.7244,-33.47887 -123.35714,-74.01895 -183.91712,-110.57392 -134.833662,-81.38773 -260.37724,-92.07588 -365.36753,-63.27906 -1.84224,-17.41774 -1.22356,-26.28628 5.49251,-33.97468 11.74106,-13.44086 19.86227,-29.19907 17.53001,-41.99967 -1.64298,-9.01746 -7.23414,-11.80014 -13.15573,-11.80727 z"
       id="path3768"
       inkscape:connector-curvature="0" />
  </g>
</svg>
