<?xml version="1.0"?>
<svg xmlns:rdf="http://www.w3.org/1999/02/22-rdf-syntax-ns#" xmlns="http://www.w3.org/2000/svg" xmlns:cc="http://creativecommons.org/ns#" xmlns:dc="http://purl.org/dc/elements/1.1/" xmlns:svg="http://www.w3.org/2000/svg" id="svg2" viewBox="0 0 744.09 1052.4" version="1.1">
  <g id="layer1">
    <path id="path3916" d="m372.04 8.9554c-198.69 0-359.77 161.07-359.77 359.77 0 198.69 161.07 359.77 359.77 359.77 198.69 0 359.77-161.07 359.77-359.77 0-198.69-161.07-359.77-359.77-359.77zm-1.7855 18.524c0.59675-0.003 1.188 0 1.7855 0 0.72549 0 1.4436-0.0045 2.168 0l-0.15943 14.379c-0.67208-0.004-1.3356 0-2.0086 0-0.55552 0-1.103-0.0027-1.6579 0l-0.12748-14.379zm-2.71 0.03188 0.12747 14.379c-1.2051 0.01584-2.4328 0.03491-3.6346 0.06377l-0.42-14.379c1.3048-0.03162 2.6132-0.04683 3.9216-0.06377zm9.3736 0c1.308 0.01836 2.6172 0.03072 3.9216 0.06377l-0.44635 14.379c-1.2016-0.0301-2.4299-0.04667-3.6347-0.06377l0.15942-14.379zm-16.005 0.15942 0.41447 14.379c-1.2132 0.03908-2.4248 0.07526-3.6346 0.12753l-0.66955-14.347c1.2924-0.05594 2.5936-0.11788 3.8897-0.15941zm22.637 0c1.2966 0.04297 2.5968 0.10201 3.8897 0.15941l-0.70142 14.347c-1.2086-0.0535-2.4227-0.08722-3.6346-0.12753l0.44635-14.379zm-29.237 0.25506 0.66954 14.347c-1.2211 0.06273-2.4172 0.14708-3.6347 0.22318l-0.95649-14.315c1.3114-0.08215 2.6062-0.18778 3.9216-0.25506zm35.868 0.03188c1.3034 0.06826 2.5903 0.14034 3.8897 0.22318l-0.95649 14.347c-1.2168-0.07749-2.4142-0.15905-3.6347-0.22318l0.70143-14.347zm-42.5 0.3826 0.95649 14.347c-1.2211 0.08641-2.4492 0.18716-3.6665 0.28695l-1.2-14.347c1.3043-0.10698 2.6132-0.19468 3.9216-0.28695zm49.1 0.03188c1.3204 0.09459 2.6373 0.17738 3.9535 0.28695l-1.2753 14.347c-1.2072-0.10027-2.4237-0.19985-3.6347-0.28695l0.95649-14.347zm-55.731 0.47824 1.2434 14.347c-1.2181 0.10988-2.4205 0.22751-3.6347 0.35071l-1.5304-14.315c1.3066-0.13281 2.6107-0.26457 3.9216-0.3826zm62.363 0.03189c1.3103 0.11945 2.6157 0.24838 3.9216 0.3826l-1.5304 14.315c-1.2136-0.12458-2.4172-0.23946-3.6347-0.35071l1.2434-14.347zm-68.963 0.63766 1.4985 14.315c-1.2005 0.1319-2.4063 0.26961-3.6028 0.41448l-1.7855-14.252c1.2952-0.15697 2.5901-0.33583 3.8897-0.47824zm75.563 0.06377c1.2988 0.14381 2.5954 0.28802 3.8897 0.44636l-1.7855 14.252c-1.2064-0.1475-2.4242-0.28016-3.6346-0.41448l1.5304-14.284zm-82.162 0.73331 1.7854 14.252c-1.2031 0.15583-2.4039 0.30937-3.6028 0.47825l-2.0724-14.188c1.292-0.18217 2.5931-0.37435 3.8897-0.54201zm88.762 0.06377c1.2955 0.16901 2.5989 0.32663 3.8897 0.51013l-2.0724 14.22c-1.2096-0.17186-2.4208-0.31967-3.6347-0.47824l1.8173-14.252zm-95.33 0.86084 2.0724 14.22c-1.2038 0.17982-2.4032 0.3491-3.6028 0.54201l-2.3593-14.188c1.2909-0.20774 2.594-0.38068 3.8897-0.57389zm101.9 0.03188c1.2965 0.19482 2.5981 0.39641 3.8897 0.60578l-2.3593 14.188c-1.1989-0.19428-2.3996-0.36082-3.6028-0.54201l2.0724-14.252zm-108.47 0.98837 2.3593 14.188c-1.1994 0.20313-2.4079 0.4215-3.6028 0.63766l-2.6144-14.124c1.2858-0.23272 2.5671-0.48316 3.8578-0.70143zm115.03 0.06377c1.2908 0.21979 2.5721 0.46718 3.8578 0.70143l-2.6463 14.124c-1.1849-0.2157-2.3816-0.43478-3.5709-0.63766l2.3593-14.188zm-121.57 1.1478 2.6144 14.092c-1.1957 0.22665-2.3798 0.46179-3.5709 0.70143l-2.9014-14.06c1.2837-0.25846 2.569-0.4893 3.8578-0.73331zm128.11 0.06377c1.2883 0.24544 2.5747 0.47343 3.8578 0.73331l-2.9014 14.092c-1.2033-0.24364-2.3947-0.50293-3.6028-0.73331l2.6463-14.092zm-134.61 1.2116 2.9014 14.092c-1.1948 0.25078-2.381 0.53329-3.5709 0.79707l-3.1564-14.06c1.2738-0.28244 2.5468-0.5608 3.826-0.82896zm141.11 0.06377c1.2806 0.27 2.5507 0.57652 3.826 0.86084l-3.1883 14.029c-1.177-0.2623-2.3572-0.51563-3.539-0.76519l2.9014-14.124zm-147.62 1.371 3.1883 14.029c-1.1846 0.27297-2.3594 0.57503-3.539 0.86084l-3.4753-13.997c1.2725-0.30854 2.548-0.59849 3.826-0.89272zm154.12 0.06377c1.28 0.29624 2.5515 0.614 3.826 0.92461l-3.4752 13.997c-1.1792-0.28723-2.3549-0.58644-3.539-0.86084l3.1883-14.06zm-160.59 1.4985 3.4753 13.965c-1.1822 0.29694-2.362 0.61482-3.539 0.92461l-3.7303-13.933c1.258-0.33121 2.5305-0.63933 3.7941-0.95649zm167.04 0.09564c1.2635 0.31858 2.5363 0.62386 3.7941 0.95649l-3.7303 13.933c-1.1794-0.31185-2.3545-0.62565-3.539-0.92461l3.4752-13.965zm-173.44 1.5623 3.7303 13.933c-1.1642 0.31679-2.3482 0.5953-3.5071 0.92461l-3.9854-13.805c1.255-0.35681 2.5013-0.70938 3.7622-1.0521zm179.88 0.12753c1.2569 0.3433 2.5112 0.66298 3.7622 1.0203l-4.0173 13.837c-1.1657-0.33279-2.3362-0.63636-3.5071-0.95649l3.7622-13.901zm-186.26 1.6898 3.9854 13.837c-1.1689 0.3428-2.3437 0.66478-3.5071 1.0203l-4.2723-13.742c1.2593-0.38499 2.5286-0.74513 3.7941-1.1159zm192.64 0.09564c1.2683 0.37323 2.532 0.76027 3.7941 1.1478l-4.3042 13.742c-1.1656-0.35776-2.336-0.7071-3.5071-1.0521l4.0172-13.837zm-199.01 1.8173 4.2723 13.742c-1.1666 0.36713-2.3143 0.76797-3.4752 1.1478l-4.5274-13.678c1.2435-0.40696 2.4806-0.81854 3.7303-1.2116zm205.36 0.12753c1.2584 0.39731 2.5101 0.8001 3.7622 1.2116l-4.5593 13.678c-1.1559-0.37971-2.3137-0.78067-3.4752-1.1478l4.2723-13.742zm-211.67 1.913 4.5274 13.678c-1.1548 0.38852-2.2944 0.81053-3.4434 1.2116l-4.8143-13.582c1.2423-0.43381 2.4815-0.8874 3.7303-1.3072zm218.02 0.12753c1.2356 0.41701 2.4692 0.8446 3.6984 1.2753l-4.8143 13.614c-1.1482-0.40228-2.2893-0.82177-3.4434-1.2116l4.5593-13.678zm-224.3 2.0724 4.7825 13.582c-1.1402 0.40878-2.2772 0.82238-3.4115 1.2434l-5.04-13.49c1.2196-0.45278 2.4404-0.8999 3.6666-1.3391zm230.55 0.12753c1.247 0.44825 2.4901 0.90866 3.7303 1.371l-5.1013 13.455c-1.1433-0.42594-2.294-0.82998-3.4434-1.2434l4.8143-13.582zm-236.76 2.168 5.0375 13.487c-1.1295 0.4301-2.2562 0.86498-3.3796 1.3072l-5.3564-13.391c1.2258-0.48274 2.4657-0.93394 3.6984-1.4029zm243.01 0.12753c1.2264 0.4682 2.447 0.95284 3.6666 1.4347l-5.3563 13.359c-1.1321-0.44717-2.2732-0.87236-3.4115-1.3072l5.1013-13.487zm-124.76 2.1362 0.0318 0.51013 0.12747 2.7738 0.0318 0.51013-0.51012 0.03188-8.2577 0.35071 1.1797 25.985 0.0318 0.51013-0.51013 0.03188-3.7622 0.15942-0.51014 0.03188-0.0318-0.51013-1.1797-25.953-8.2896 0.35071-0.51012 0.03188-0.0318-0.51013-0.12748-2.7738-0.0318-0.51013 0.51012-0.03188 21.33-0.95649 0.51014-0.03188zm6.1853 0.06377 0.51012 0.03188 18.652 0.70143 0.51013 0.03188-0.0318 0.51013-0.0956 2.6782-0.0318 0.51013-0.51013-0.03188-14.411-0.54201-0.28695 8.2577 11.892 0.44636 0.51013 0.03188-0.0318 0.51013-0.0956 2.6782-0.0318 0.51013-0.51012-0.03188-11.892-0.44636-0.3826 10.936 14.379 0.54201 0.51012 0.03188-0.0318 0.51013-0.0956 2.6782-0.0318 0.51013-0.51014-0.03188-18.652-0.70143-0.51014-0.03188 0.0318-0.51013 1.1159-29.269 0.0318-0.51013zm-130.66 0.09564 5.3564 13.391c-1.1287 0.45527-2.2572 0.9035-3.3796 1.371l-5.5795-13.263c1.2024-0.50087 2.3935-1.011 3.6028-1.4985zm255.41 0.15942c1.2182 0.4927 2.4235 0.99219 3.6347 1.4985l-5.6114 13.263c-1.1217-0.46875-2.2516-0.91441-3.3796-1.371l5.3563-13.391zm-159.26 1.2116 0.0638 0.51013 3.9854 29.014 0.0638 0.51013-0.51014 0.06377-3.7303 0.54201-0.25507 0.03188-0.19129-0.22318-16.579-19.481 2.9332 21.075 0.0638 0.51013-0.51013 0.06377-3.7303 0.51013-0.51013 0.06377-0.0638-0.51013-3.9854-29.014-0.0638-0.51013 0.51014-0.06377 3.6984-0.51013 0.28696-0.03188 0.15941 0.22318 16.579 19.481-2.9014-21.107-0.0638-0.51013 0.51013-0.06377 3.7303-0.51013 0.51013-0.06377zm61.757 0 0.51012 0.06377 9.2461 1.1478c2.9028 0.36808 5.2775 1.637 7.078 3.7303 1.8057 2.0995 2.5528 4.5814 2.1999 7.365-0.26336 2.077-1.0644 3.8922-2.455 5.3563-1.2319 1.3121-2.8178 2.1537-4.5912 2.6463l4.9419 11.605 0.35071 0.79708-0.89272-0.09564-3.7303-0.47824-0.28695-0.03188-0.12747-0.28695-4.6868-11.063-5.2607-0.66954-1.2753 10.075-0.0638 0.51013-0.51014-0.06377-3.7303-0.47825-0.51014-0.06377 0.0638-0.51013 3.6666-29.045 0.0638-0.51013zm-164.04 1.1797 5.5795 13.295c-1.1067 0.47191-2.2154 0.951-3.3158 1.4347l-5.8665-13.136c1.2009-0.52821 2.3947-1.0794 3.6028-1.5941zm267.66 0.15941c1.2034 0.51438 2.4065 1.0345 3.6028 1.5623l-5.8665 13.168c-1.1124-0.49062-2.2288-0.98808-3.3477-1.4666l5.6114-13.263zm-77.763 2.1362 0.70143 0.12753 3.6347 0.79708 0.3826 0.09564 0.0318 0.35071 2.8057 24.199 12.785-20.66 0.1913-0.31883 0.35071 0.06377 3.6666 0.79708 0.73331 0.15942-0.3826 0.60578-16.484 26.335-0.1913 0.31883-0.3826-0.06377-3.6666-0.82896-0.35071-0.09564-0.0318-0.35071-3.6984-30.831-0.0957-0.70143zm-195.95 0.35071 5.8346 13.168c-1.1099 0.49898-2.2125 1.0194-3.3158 1.5304l-6.1215-13.04c1.2009-0.55648 2.3944-1.115 3.6028-1.6579zm279.77 0.15941c1.2081 0.54444 2.4022 1.0999 3.6028 1.6579l-6.1215 13.04c-1.1065-0.51412-2.2027-1.0283-3.3158-1.5304l5.8346-13.168zm-105.41 0.3826-1.4985 11.956 4.9738 0.63766c1.6558 0.20995 3.0664-0.16383 4.3361-1.1478 1.2669-0.99304 1.9752-2.3084 2.1999-4.081 0.22462-1.7718-0.13828-3.2514-1.1159-4.5274-0.98357-1.2837-2.2336-1.9899-3.8897-2.1999l-5.0056-0.63766zm-97.466 0.60578 0.12747 0.51013 6.0578 28.663 0.0956 0.47825-0.51012 0.12753-3.6984 0.76519-0.47826 0.09564-0.12748-0.51013-6.0578-28.631-0.0956-0.47824 0.51012-0.12753 3.6984-0.79708 0.47825-0.09564zm-82.96 1.6579 6.1215 13.04c-1.096 0.51873-2.1946 1.0317-3.2839 1.5623l-6.3766-12.913c1.1745-0.57235 2.3571-1.1306 3.539-1.6898zm291.89 0.15941c1.185 0.56235 2.3616 1.1461 3.539 1.7217l-6.3766 12.913c-1.0931-0.53418-2.184-1.0719-3.2839-1.5942l6.1215-13.04zm-297.85 2.7419 6.3766 12.913c-1.0994 0.54682-2.1916 1.0991-3.284 1.6579l-6.5998-12.817c1.1592-0.59306 2.3403-1.1734 3.5071-1.7536zm303.81 0.1913c1.1664 0.58169 2.3484 1.159 3.5071 1.7536l-6.6316 12.785c-1.0755-0.5517-2.1698-1.086-3.2521-1.626l6.3766-12.913zm-63.383 1.5304 0.47824 0.15942 17.791 5.7708 0.47825 0.15942-0.15943 0.47824-0.82895 2.5188-0.15941 0.47824-0.47825-0.15941-13.71-4.3999-2.5506 7.8751 11.318 3.6665 0.47825 0.15941-0.15941 0.47825-0.82896 2.5188-0.15942 0.47825-0.47825-0.15942-11.318-3.6347-3.3477 10.426 13.71 4.4317 0.47825 0.15942-0.15941 0.47824-0.82896 2.5506-0.15942 0.47824-0.47825-0.15942-17.759-5.7708-0.47824-0.15942 0.15941-0.47824 8.991-27.866 0.15941-0.47824zm-246.36 1.3072 6.6316 12.785c-1.0745 0.56093-2.1527 1.1173-3.2202 1.6898l-6.8548-12.658c1.1435-0.61348 2.2921-1.2166 3.4434-1.8173zm315.64 0.15942c1.1632 0.60861 2.32 1.2276 3.4752 1.8492l-6.8548 12.658c-1.0747-0.57823-2.1383-1.1552-3.2202-1.7217l6.6-12.789zm-254.23 1.622c2.5432-0.10747 4.9517 0.46222 7.2056 1.6579 3.6092 1.9033 6.0917 4.8872 7.3969 8.8635 1.305 3.976 1.0777 7.8382-0.70142 11.51-1.7727 3.6814-4.8548 6.242-9.1504 7.6519l-8.5446 2.8057-0.47824 0.15941-0.15942-0.47824-9.1185-27.834-0.15941-0.47824 0.47824-0.15942 8.5128-2.7738c1.6077-0.52768 3.1884-0.85993 4.7187-0.92461zm-67.241 1.3391 6.823 12.626c-1.07 0.58551-2.1256 1.1884-3.1883 1.7854l-7.11-12.498c1.1524-0.64771 2.3146-1.2783 3.4752-1.913zm327.37 0.1913c1.1434 0.62715 2.2761 1.2732 3.4115 1.913l-7.1418 12.498c-1.0501-0.59156-2.0991-1.2052-3.1564-1.7854l6.8867-12.626zm-260.04 2.6144c-1.5778-0.01966-3.3156 0.24337-5.1969 0.86084l-2.9013 0.95649 7.078 21.617 2.9332-0.95649c1.8995-0.62346 3.4314-1.4113 4.6868-2.3593 1.2713-0.96 2.2032-1.9311 2.7738-2.9014 0.5834-1.0111 0.97117-2.0629 1.1478-3.2202v-0.03188c0.19231-1.1828 0.21337-2.252 0.0957-3.1883-0.11192-0.97305-0.31686-1.9558-0.63767-2.9332-0.32104-0.97802-0.72974-1.8735-1.2116-2.7101-0.46022-0.82928-1.1145-1.6737-1.9767-2.5188-0.83083-0.83026-1.781-1.4602-2.8376-1.913-1.0368-0.45454-2.3529-0.69816-3.9535-0.70143zm-73.172 0.44636 7.1099 12.498c-1.0542 0.60389-2.1096 1.2021-3.1564 1.8173l-7.3331-12.339c1.1273-0.66281 2.244-1.3266 3.3796-1.9767zm338.98 0.15941c1.135 0.65147 2.2529 1.3126 3.3796 1.9767l-7.365 12.371c-1.0425-0.61426-2.0747-1.2462-3.1245-1.8492l7.1099-12.498zm-55.253 0.79708 0.44637 0.1913 3.4752 1.4985 0.25506 0.12753 0.0638 0.25506 4.081 25.219 8.4171-19.512 0.22319-0.47824 0.44635 0.1913 3.4434 1.4666 0.47825 0.22318-0.1913 0.44636-11.574 26.909-0.22319 0.47824-0.44636-0.1913-3.4434-1.4666-0.25506-0.12754-0.0638-0.25506-4.1129-25.251-8.4171 19.512-0.22317 0.47824-0.44637-0.19129-3.4434-1.4666-0.47824-0.22318 0.19129-0.44636 11.574-26.909 0.22317-0.47825zm-233.32 1.7854 0.22318 0.44636 11.956 26.75 0.1913 0.47825-0.44637 0.22318-3.4115 1.5304-0.25507 0.0956-0.25505-0.15941-21.33-14.06 8.6722 19.417 0.1913 0.47825-0.44635 0.22318-3.4115 1.5304-0.47825 0.1913-0.22317-0.44636-11.956-26.75-0.1913-0.47824 0.44636-0.22318 3.4115-1.5304 0.25507-0.09564 0.25507 0.15942 21.298 14.029-8.6403-19.385-0.1913-0.47824 0.44637-0.22318 3.4115-1.5304 0.47824-0.1913zm-56.114 0.60578 7.3331 12.371c-1.0349 0.6199-2.0652 1.2501-3.0926 1.8811l-7.5882-12.243c1.1096-0.6817 2.2297-1.3393 3.3477-2.0086zm350.43 0.1913c1.1215 0.67326 2.2347 1.3548 3.3477 2.0405l-7.62 12.211c-1.0284-0.63327-2.0568-1.2589-3.0927-1.8811l7.365-12.371zm-356.07 3.2521 7.5563 12.243c-1.0311 0.64516-2.0693 1.2886-3.0926 1.9449l-7.8113-12.084c1.1078-0.71065 2.2312-1.4061 3.3477-2.1043zm361.71 0.22318c1.1083 0.695 2.2161 1.3969 3.3158 2.1043l-7.8432 12.052c-1.0254-0.65931-2.0595-1.2968-3.0927-1.9449l7.62-12.211zm-367.32 3.3796 7.8113 12.084c-1.0223 0.66766-2.0465 1.3299-3.0608 2.0086l-8.0345-11.956c1.0821-0.72414 2.1931-1.4241 3.284-2.1362zm372.9 0.1913c1.0983 0.71874 2.1945 1.437 3.2839 2.168l-8.0664 11.924c-1.01-0.67752-2.0428-1.3421-3.0608-2.0086l7.8432-12.084zm-45.529 2.168 0.47825 0.25506 18.779 10.203 0.44637 0.25506-0.25507 0.44636-1.3391 2.4231-0.25506 0.44636-0.44636-0.25506-7.2693-3.9216-12.371 22.86-0.25507 0.44636-0.44637-0.25506-3.3158-1.7854-0.44637-0.25507 0.25507-0.44636 12.402-22.86-7.3012-3.9535-0.44637-0.25506 0.25507-0.44636 1.3072-2.455 0.22319-0.44636zm-332.89 1.3072 8.0345 11.924c-1.0024 0.68273-2.0027 1.3789-2.997 2.0724l-8.2577-11.765c1.0728-0.74841 2.1384-1.4955 3.2202-2.2318zm383.94 0.22318c1.0773 0.73528 2.1518 1.4846 3.2202 2.2318l-8.2896 11.765c-0.98953-0.69197-1.9676-1.3911-2.9651-2.0724l8.0345-11.924zm-389.39 3.5709 8.2577 11.765c-0.99467 0.70611-1.9787 1.4192-2.9651 2.1362l-8.4809-11.605c1.0608-0.77117 2.1183-1.5364 3.1883-2.2956zm394.84 0.22318c1.069 0.76038 2.1285 1.5232 3.1883 2.2956l-8.5446 11.605c-0.97879-0.71313-1.9463-1.4337-2.9332-2.1362l8.2896-11.765zm-400.23 3.6665 8.5128 11.605c-0.97745 0.72277-1.9323 1.4666-2.9013 2.1999l-8.736-11.446c1.0408-0.78791 2.0744-1.5831 3.1245-2.3593zm44.828 0.12753 0.28694 0.1913 25.315 19.162 0.60578 0.47824-0.66955 0.3826-3.2521 1.8811-0.28694 0.15941-0.28694-0.1913-8.1939-6.1853-10.171 5.8984 1.4347 10.171 0.0318 0.31883-0.28694 0.1913-3.2521 1.8811-0.66954 0.3826-0.0957-0.76519-4.3042-31.405-0.0318-0.31883 0.28694-0.1913 3.2521-1.8811 0.28695-0.15942zm360.79 0.09564c1.0608 0.78606 2.1051 1.5932 3.1564 2.3912l-8.7678 11.414c-0.96783-0.73439-1.957-1.4442-2.9332-2.168l8.5446-11.637zm-410.91 3.7941 8.736 11.446c-0.96811 0.7454-1.9419 1.4759-2.9014 2.2318l-8.9591-11.287c1.0289-0.8108 2.0861-1.5921 3.1245-2.3912zm416.2 0.22318c1.0366 0.79973 2.0656 1.6118 3.0927 2.4231l-8.9591 11.255c-0.95603-0.75505-1.9367-1.4873-2.9014-2.2318l8.7678-11.446zm-42.915 0.41448 0.41448 0.25506 3.1883 1.9767 0.44635 0.28695-0.25506 0.41448-15.463 24.869-0.28694 0.44636-0.41448-0.25506-3.1883-1.9768-0.44637-0.28695 0.25507-0.41448 15.463-24.869 0.28696-0.44636zm-322.15 1.5941 1.8173 11.605 7.4288-4.3361-9.2461-7.2693zm-56.369 1.8492 8.9591 11.287c-0.9499 0.76116-1.8964 1.5241-2.8376 2.2956l-9.1823-11.095c1.0146-0.83186 2.0364-1.6665 3.0608-2.4869zm426.66 0.28695c1.0146 0.81476 2.0238 1.6289 3.0289 2.455l-9.1823 11.063c-0.94018-0.77252-1.8887-1.5334-2.8376-2.2956l8.991-11.223zm-431.82 3.9216 9.1823 11.095c-0.93213 0.77708-1.8505 1.5721-2.7738 2.3594l-9.4055-10.936c0.99337-0.84708 1.9938-1.6829 2.997-2.5188zm436.92 0.25506c1.0074 0.84134 1.9995 1.6979 2.997 2.5506l-9.3736 10.872c-0.92847-0.7935-1.8683-1.5761-2.8057-2.3594l9.1823-11.063zm-441.99 4.0173 9.4055 10.936c-0.92265 0.7999-1.8284 1.6131-2.7419 2.4231l-9.5968-10.745c0.98168-0.87051 1.9415-1.7551 2.9332-2.6144zm447.1 0.28695c0.9845 0.85531 1.9268 1.748 2.9014 2.6144l-9.5968 10.681c-0.90136-0.80098-1.7998-1.6001-2.71-2.3912l9.4055-10.904zm-42.883 0.12753c3.0441 0.10652 5.9266 1.1922 8.6084 3.1883 3.5878 2.6705 5.7151 6.1942 6.3447 10.49 0.62881 4.2903-0.34864 8.2286-2.9332 11.701-2.5836 3.4709-6.0927 5.5767-10.394 6.2172-4.2966 0.62977-8.304-0.42173-11.892-3.0926-3.5776-2.6629-5.6587-6.1528-6.1853-10.362-0.51696-4.2101 0.52767-8.1165 3.1245-11.605 2.597-3.489 6.0276-5.6107 10.203-6.3128 1.0402-0.17492 2.104-0.25889 3.1245-0.22318zm-369.43 3.284 0.28696 0.41448 15.272 21.075 11.095-8.0345 0.41448-0.28695 0.28695 0.41448 1.5941 2.2318 0.28696 0.41448-0.41449 0.28695-14.539 10.521-0.41449 0.28694-0.28695-0.41448-17.153-23.721-0.28694-0.41448 0.41447-0.28694 3.0289-2.1999 0.41448-0.28695zm-39.726 0.70143 9.5968 10.745c-0.90534 0.81605-1.8139 1.629-2.7101 2.455l-9.7881-10.521c0.96836-0.89277 1.9227-1.7965 2.9014-2.6782zm456.98 0.28694c0.97188 0.87785 1.9397 1.7575 2.9014 2.6463l-9.82 10.521c-0.88921-0.82154-1.7799-1.6433-2.6782-2.455l9.5968-10.713zm-47.761 0.12754c-0.7214-0.008-1.4678 0.0472-2.1999 0.1913-2.9702 0.59431-5.3793 2.1894-7.3331 4.8143-1.946 2.6144-2.7612 5.3803-2.4869 8.3852 0.001 0.0108-0.001 0.021 0 0.0318 0.29955 3.0007 1.7035 5.4129 4.2404 7.3012 2.5453 1.8945 5.2872 2.5602 8.3852 2.0405 3.0997-0.51993 5.5598-2.0584 7.4925-4.6549 1.9314-2.5948 2.6872-5.3935 2.2956-8.5128-0.3915-3.1181-1.823-5.5663-4.368-7.4606-1.9074-1.4197-3.8924-2.1119-6.0259-2.1362zm-414.13 4.081 9.82 10.553c-0.88799 0.83211-1.7676 1.6769-2.6463 2.5188l-10.011-10.362c0.94382-0.90447 1.8834-1.8164 2.8376-2.7101zm466.77 0.31883c0.94747 0.88976 1.9003 1.7778 2.8376 2.6782l-9.9794 10.33c-0.87753-0.84287-1.7594-1.6856-2.6463-2.5188l9.7881-10.49zm-432.01 1.8811 0.31884 0.3826 1.7536 2.0086 0.35073 0.41447-0.41448 0.31883-10.904 9.4374 5.4201 6.2491 9.0229-7.7476 0.38259-0.31883 0.31883 0.35072 1.7536 2.0086 0.35071 0.41447-0.41448 0.31883-9.0229 7.7795 7.1737 8.2896 10.904-9.4055 0.38261-0.35071 0.31882 0.41448 1.7536 2.0405 0.35071 0.3826-0.41447 0.31883-14.124 12.179-0.38258 0.35071-0.31884-0.41448-19.13-22.191-0.35072-0.3826 0.41449-0.31883 14.124-12.179 0.3826-0.35071zm-39.535 2.3912 10.011 10.362c-0.87178 0.84914-1.7521 1.6919-2.6144 2.5506l-10.203-10.171c0.9244-0.92066 1.8708-1.8318 2.8057-2.7419zm476.33 0.28697c0.93365 0.91118 1.8825 1.8202 2.8057 2.7419l-10.203 10.139c-0.86122-0.85969-1.7437-1.7006-2.6144-2.5506l10.011-10.33zm-481.02 4.3999 10.203 10.139c-0.85527 0.86575-1.705 1.7392-2.5506 2.6144l-10.426-9.9475c0.91404-0.94631 1.849-1.87 2.7738-2.8057zm485.74 0.31883c0.91049 0.9237 1.842 1.8398 2.7419 2.7738l-10.426 9.9475c-0.84169-0.87339-1.6675-1.7504-2.5188-2.6144l10.203-10.107zm-34.593 0.95648 0.3826 0.35072 2.7419 2.5825 0.1913 0.1913-0.0318 0.28695-4.7187 25.06 14.539-15.463 0.35071-0.3826 0.3826 0.35071 2.7419 2.5825 0.38261 0.35072-0.35073 0.38259-20.054 21.33-0.35071 0.3826-0.38259-0.35071-2.742-2.5825-0.1913-0.1913 0.0318-0.28694 4.7506-25.092-14.571 15.495-0.35071 0.3826-0.38261-0.35071-2.71-2.5825-0.3826-0.35072 0.35072-0.3826 20.023-21.33 0.35071-0.3826zm-455.8 3.4752 10.394 9.9794c-0.83302 0.87671-1.6635 1.7604-2.4869 2.6463l-10.585-9.7243c0.89585-0.96419 1.7714-1.9476 2.6782-2.9014zm495.02 0.31883c0.90023 0.9492 1.7888 1.91 2.6782 2.8695l-10.617 9.7243c-0.82221-0.88689-1.655-1.7686-2.4869-2.6463l10.426-9.9475zm-499.51 4.5593 10.553 9.7562c-0.81804 0.89496-1.615 1.806-2.4231 2.7101l-10.776-9.5649c0.8719-0.9754 1.7634-1.9361 2.6463-2.9014zm504.04 0.28695c0.88397 0.96886 1.7415 1.9542 2.6144 2.9332l-10.776 9.533c-0.80698-0.90509-1.6062-1.814-2.4231-2.71l10.585-9.7562zm-472.89 2.5188 0.3826 0.35071 21.266 20.15 0.38259 0.35072-0.35071 0.38259-2.5825 2.7101-0.35071 0.3826-0.38261-0.35071-15.846-15.017 2.1362 11.191 0.0318 0.25506-0.15941 0.1913-1.9767 2.0724-0.19131 0.1913-0.25506-0.0318-11.191-1.4985 15.782 14.953 0.3826 0.35071-0.35073 0.3826-2.5825 2.7419-0.35071 0.3826-0.38259-0.35071-21.266-20.15-0.38259-0.35071 0.35071-0.3826 2.5825-2.7419 0.19129-0.1913 0.25507 0.0318 14.826 2.2956-3.0289-14.73-0.0318-0.25505 0.15942-0.1913 2.5825-2.742 0.35072-0.38259zm-35.613 2.1362 10.776 9.533c-0.8065 0.9173-1.5949 1.8475-2.3912 2.7738l-10.95-9.4c0.84453-0.98224 1.6952-1.9607 2.5506-2.9332zm512.93 0.31883c0.85547 0.97503 1.7062 1.9484 2.5506 2.9332l-10.968 9.3417c-0.78979-0.92105-1.5914-1.8298-2.3912-2.7419l10.808-9.533zm-517.24 4.6868 10.936 9.3417c-0.78868 0.93281-1.581 1.864-2.3593 2.8057l-11.127-9.1504c0.83635-1.0118 1.7029-1.9951 2.5506-2.997zm521.54 0.31884c0.84201 0.9978 1.688 1.9894 2.5188 2.997l-11.127 9.1185c-0.7719-0.93624-1.5773-1.8464-2.3594-2.7738l10.968-9.3417zm-525.81 4.8143 11.159 9.1186c-0.76766 0.94442-1.5383 1.8845-2.2956 2.8376l-11.318-8.8954c0.81467-1.0256 1.6288-2.0448 2.455-3.0608zm530.06 0.31884c0.82486 1.017 1.6416 2.0342 2.455 3.0608l-11.318 8.8954c-0.75414-0.95163-1.5311-1.8946-2.2956-2.8376l11.159-9.1185zm-534.2 4.8462 11.318 8.9272c-0.74801 0.95766-1.4624 1.9352-2.1999 2.9013l-11.478-8.7041c0.79316-1.0391 1.5546-2.0949 2.3593-3.1245zm538.34 0.35072c0.80028 1.0267 1.6025 2.0566 2.3912 3.0926l-11.51 8.6722c-0.73636-0.96702-1.4531-1.9428-2.1999-2.9014l11.318-8.8635zm-29.906 2.1999 0.31883 0.41447 11.829 14.443 0.35071 0.3826-0.41448 0.31883-2.0724 1.6898-0.38259 0.31882-0.31883-0.38259-9.1185-11.127-6.4404 5.2288 7.5244 9.2142 0.31882 0.38259-0.38258 0.31884-2.0405 1.6898-0.3826 0.35071-0.31883-0.41448-7.5563-9.2142-8.4809 6.9505 9.1186 11.159 0.35071 0.38259-0.41448 0.31883-2.0724 1.6898-0.38259 0.31884-0.31883-0.3826-11.829-14.443-0.35071-0.38259 0.41448-0.31883 22.669-18.556 0.3826-0.35071zm-512.46 2.71 11.478 8.7041c-0.73048 0.9735-1.4482 1.9514-2.168 2.9332l-11.637-8.449c0.77756-1.0608 1.538-2.1369 2.3275-3.1883zm546.41 0.35071c0.78051 1.0424 1.5268 2.1049 2.2956 3.1564l-11.637 8.449c-0.72356-0.98959-1.4337-1.984-2.168-2.9651l11.51-8.6403zm-263.7 3.3477c2.3462-0.0454 4.8676-0.0101 7.5882 0.0956 30.967 1.2019 45.476 5.6149 48.494 14.698 1.8688 5.6244 1.826 5.67-2.3275 4.4955-27.28-7.714-35.088 8.48-20.214 41.862 4.7109 10.573 10.802 24.312 13.55 30.512 3.2154 7.253 5.3745 11.122 6.0259 10.872 0.71876-0.27577 97.02-75.297 126.99-98.933 3.7245-2.9372 43.473 47.47 40.428 51.268-0.80871 1.0086-21.918 24.817-46.9 52.926-57.346 64.522-159.93 180.08-172.93 194.81-5.4303 6.1497-10.073 11.212-10.298 11.223-0.22498 0.0115-30.951-34.442-68.293-76.551s-88.842-100.16-114.43-129c-25.586-28.839-47.04-53.036-47.697-53.787-2.9251-3.34 37.44-53.498 40.874-50.79 0.55545 0.43801 7.999 6.2464 16.547 12.913 8.5483 6.6662 19.601 15.299 24.55 19.194 4.949 3.8944 19.286 15.133 31.883 24.964 12.597 9.8311 29.637 23.167 37.845 29.619 17.214 13.532 16.717 13.251 17.918 10.266 3.868-9.6116 36.9-81.617 38.802-84.586 7.3642-11.495 15.173-15.752 31.596-16.069zm-286.66 1.6898 11.669 8.449c-0.71184 0.98808-1.4351 1.9688-2.1362 2.9651l-11.797-8.2258c0.74936-1.065 1.5025-2.1323 2.2637-3.1883zm554.25 0.31883c0.76922 1.0698 1.5385 2.1411 2.2956 3.2202l-11.829 8.1939c-0.69697-0.99308-1.3966-1.9802-2.1043-2.9651l11.637-8.449zm-518.13 2.9332c3.1591 0.0933 6.1074 1.1482 8.7678 3.1245 3.4752 2.5817 5.5413 6.0966 6.1853 10.394 0.63351 4.2944-0.39247 8.3005-3.0608 11.892-2.6601 3.5807-6.1541 5.6549-10.362 6.1853-4.2105 0.52098-8.1148-0.5314-11.605-3.1245-3.4909-2.5933-5.6384-6.0265-6.3447-10.203-0.70748-4.1832 0.30672-8.1225 2.9651-11.701 2.6668-3.5897 6.1931-5.7427 10.49-6.3766 0.53669-0.0792 1.0684-0.1305 1.5942-0.15943 0.45946-0.0254 0.91966-0.0452 1.371-0.0318zm-39.949 2.168 11.829 8.2258c-0.68957 0.99737-1.3937 1.9916-2.0724 2.997l-11.988-8.0026c0.7299-1.0813 1.4899-2.1477 2.2318-3.2202zm561.91 0.31882c0.74571 1.0807 1.4983 2.1624 2.2318 3.2521l-11.988 8.0026c-0.68375-1.0157-1.3776-2.0213-2.0724-3.0289l11.829-8.2258zm-523.42 2.1043c-0.38099 0.013-0.75689 0.0461-1.1478 0.0956-3.1152 0.39409-5.568 1.8522-7.4606 4.3999-1.8941 2.5497-2.5325 5.222-1.9449 8.1939 0.59725 2.9705 2.1882 5.3822 4.8143 7.3331 2.6263 1.951 5.3688 2.7728 8.3852 2.4869 3.0162-0.2957 5.4408-1.6932 7.3331-4.2404 1.891-2.5456 2.5316-5.2852 2.0086-8.3852-0.52296-3.1-2.0573-5.5628-4.6549-7.4925-2.2732-1.6886-4.672-2.4825-7.3331-2.3912zm-42.181 3.0608 11.956 8.0026c-0.67459 1.0173-1.3452 2.0355-2.0086 3.0608l-12.116-7.7794c0.71328-1.1023 1.4424-2.1905 2.168-3.284zm569.33 0.35072c0.72414 1.0944 1.4562 2.1807 2.168 3.284l-12.147 7.7476c-0.66217-1.0261-1.3353-2.0426-2.0086-3.0608l11.988-7.9708zm-28.472 1.8811 0.28695 0.41448 2.1043 3.1245 0.15942 0.22319-0.0956 0.25505-10.234 23.434 17.663-11.86 0.41447-0.28696 0.28695 0.4145 2.0724 3.1245 0.28694 0.41448-0.41447 0.28694-24.327 16.324-0.41448 0.28694-0.28694-0.41447-2.0724-3.1245-0.15941-0.22318 0.0956-0.25506 10.234-23.434-17.663 11.86-0.41448 0.28694-0.28694-0.41448-2.0724-3.1245-0.28696-0.41448 0.41448-0.28694 24.295-16.324 0.41447-0.28696zm-544.53 3.3477 12.147 7.7476c-0.65692 1.0338-1.2993 2.0829-1.9449 3.1245l-12.243-7.5563c0.6846-1.1044 1.3437-2.2198 2.0405-3.3158zm576.64 0.35071c0.697 1.0994 1.3877 2.208 2.0724 3.3158l-12.307 7.5244c-0.63665-1.0299-1.2653-2.0704-1.913-3.0926l12.147-7.7476zm-580.11 5.2607 12.243 7.5563c-0.62867 1.0333-1.2317 2.0838-1.8492 3.1245l-12.402-7.3012c0.66893-1.1276 1.3271-2.2604 2.0086-3.3796zm583.62 0.35071c0.68606 1.13 1.3354 2.273 2.0086 3.4115l-12.466 7.2693c-0.62082-1.0495-1.217-2.1145-1.8492-3.1564l12.307-7.5244zm-587.03 5.3564 12.434 7.3012c-0.61097 1.0495-1.2178 2.0996-1.8173 3.1564l-12.575-7.08c0.64606-1.1391 1.2861-2.2806 1.9449-3.4115zm590.41 0.35071c0.65499 1.1278 1.2706 2.2756 1.913 3.4115l-12.562 7.0462c-0.59557-1.053-1.1786-2.1108-1.7854-3.1564l12.434-7.3012zm-562.7 1.2753 0.44636 0.25507 25.315 14.73 0.44636 0.25506-0.25506 0.44637-1.8811 3.2839-0.25507 0.44637-0.44636-0.25507-11.032-6.4085-6.8548 11.765 11.032 6.4085 0.44637 0.25507-0.25507 0.44635-1.913 3.2521-0.25506 0.44637-0.44636-0.25507-25.315-14.762-0.44636-0.25507 0.25506-0.44635 1.913-3.2202 0.25506-0.44636 0.44636 0.25506 11 6.4085 6.8867-11.765-11.032-6.4085-0.44637-0.25507 0.25507-0.44635 1.8811-3.284 0.25506-0.44637zm-30.99 4.1767 12.562 7.0462c-0.58558 1.0527-1.1793 2.0966-1.7536 3.1564l-12.689-6.7911c0.61887-1.1425 1.2496-2.2769 1.8811-3.4115zm596.95 0.35073c0.63002 1.1352 1.2637 2.2683 1.8811 3.4115l-12.689 6.7911c-0.57251-1.0598-1.1698-2.1037-1.7536-3.1564l12.562-7.0461zm-600.1 5.452 12.689 6.823c-0.57265 1.0784-1.1289 2.1666-1.6898 3.2521l-12.849-6.5998c0.60285-1.1668 1.2333-2.3164 1.8492-3.4752zm603.29 0.38258c0.61197 1.1554 1.2183 2.3121 1.8173 3.4753l-12.849 6.536c-0.55429-1.0758-1.124-2.1514-1.6898-3.2202l12.721-6.7911zm-27.866 0.54202 0.25505 0.44636 8.0345 14.698 0.25505 0.44636-0.44635 0.25507-2.3275 1.3072-0.44635 0.25507-0.25507-0.44637-5.994-10.968-7.2693 3.9535 5.1332 9.4055 0.25505 0.44637-0.44635 0.25507-2.3275 1.3072-0.44635 0.25507-0.25507-0.44637-5.165-9.4374-12.402 6.7592-0.44637 0.25506-0.25507-0.44636-1.7854-3.284-0.25507-0.44635 0.44637-0.25507 25.698-14.06 0.44637-0.25506zm-578.52 5.0056 12.849 6.5679c-0.54782 1.0823-1.0899 2.1629-1.626 3.2521l-12.945-6.3128c0.57444-1.1672 1.1343-2.3475 1.7217-3.5071zm609.41 0.35071c0.58711 1.1626 1.1794 2.3369 1.7536 3.5071l-12.945 6.3128c-0.53986-1.1005-1.0742-2.1905-1.626-3.284l12.817-6.536zm-612.31 5.5795 12.913 6.3128c-0.52332 1.086-1.0188 2.1913-1.5304 3.284l-13.072-6.0578c0.55523-1.186 1.1214-2.3605 1.6898-3.539zm615.28 0.35072c0.56919 1.1838 1.102 2.3795 1.6579 3.5709l-13.104 6.0578c-0.51425-1.1021-1.0042-2.2204-1.5304-3.3158l12.976-6.3128zm-618.12 5.6433 13.072 6.0578c-0.50826 1.1094-1.0023 2.2317-1.4985 3.3477l-13.2-5.8027c0.53504-1.2039 1.0775-2.4063 1.626-3.6028zm620.92 0.38258c0.5455 1.1939 1.0621 2.4015 1.5941 3.6028l-13.2 5.7708c-0.49074-1.1076-0.99584-2.2148-1.4985-3.3158l13.104-6.0578zm-623.63 5.7071 13.2 5.8027c-0.48325 1.1118-0.96353 2.2295-1.4347 3.3477l-13.327-5.5476c0.50781-1.2055 1.041-2.4044 1.5623-3.6028zm626.31 0.3826c0.52058 1.2011 1.0552 2.3946 1.5623 3.6028l-13.327 5.5158c-0.46983-1.1189-0.95285-2.2352-1.4347-3.3477l13.2-5.7708zm-73.554 1.6579c0.7493-0.29633 13.118 25.331 16.675 34.561 9.4681 24.573 15.812 52.749 17.759 78.815 0.49256 6.5934 0.77747 16.187 0.63765 21.298l-0.25507 9.278-29.428-26.367c-16.197-14.498-36.168-32.307-44.349-39.567-8.1816-7.2595-14.87-13.357-14.889-13.582-0.0444-0.53272 53.119-64.146 53.85-64.436zm-479.52 0.35071c0.5695-0.34662 53.583 62.443 53.946 63.894 0.081 0.32375-6.5506 6.5149-14.73 13.773-8.1794 7.2586-27.826 24.83-43.68 39.025s-29.196 26.022-29.651 26.303c-1.0988 0.67929-1.1052-17.306 0-31.15 2.2303-27.937 9.8782-59.355 20.596-84.586 3.8725-9.1159 12.596-26.699 13.518-27.26zm517.27 0.25507c2.003-0.0488 4.0139 0.29848 5.994 1.0522 3.9649 1.5091 6.8376 4.3752 8.5765 8.4809 1.744 4.1178 1.821 8.2184 0.1913 12.243-1.6279 4.0198-4.4938 6.9516-8.4809 8.6403-3.9855 1.688-8.0512 1.7178-12.084 0.0956-4.0256-1.6302-6.9595-4.585-8.7041-8.7041-1.7397-4.1075-1.77-8.1551-0.0956-12.052 1.6847-3.8962 4.6058-6.7218 8.6084-8.4171 2.0012-0.84758 3.9903-1.2902 5.994-1.3391zm-562.32 1.8173 0.22318 0.54201 1.3072 3.1564 0.15942 0.41448-0.3826 0.22319c-2.2243 1.3008-3.7335 3.001-4.623 5.165-1.1582 2.8177-1.0967 5.5798 0.1913 8.449 1.2893 2.8721 3.348 4.9028 6.3128 6.1215 2.9664 1.2193 5.8652 1.2619 8.7997 0.12748 2.935-1.1345 4.9319-3.0499 6.0896-5.8665 0.91191-2.2185 1.0743-4.5288 0.41448-6.9505l-0.12753-0.41448 0.41447-0.1913 3.1564-1.3391 0.54201-0.22319 0.15942 0.5739c0.89175 3.4978 0.68738 6.9152-0.63766 10.139-1.6362 3.9804-4.5273 6.836-8.5446 8.5128-4.0304 1.6715-8.0725 1.6995-12.052 0.0638-3.9795-1.6358-6.8669-4.5251-8.5446-8.5446-1.6776-4.0193-1.6994-8.0725-0.06377-12.052 1.3351-3.2479 3.5986-5.7913 6.6954-7.62l0.51013-0.28695zm-30.799 1.6579 13.327 5.5476c-0.45914 1.1157-0.92386 2.2258-1.371 3.3477l-13.423-5.2607c0.48509-1.218 0.96794-2.4236 1.4666-3.6347zm631.54 0.3826c0.49583 1.2086 0.98431 2.4192 1.4666 3.6346l-13.423 5.2607c-0.45077-1.1355-0.93976-2.2504-1.4028-3.3796l13.359-5.5158zm-38.132 0.82895c-1.4595 0.0687-2.9261 0.41444-4.4317 1.0522-3.0111 1.2753-5.1594 3.2814-6.4404 6.0259h0.0318c-1.2734 2.7512-1.3022 5.4931-0.0638 8.4171 1.238 2.923 3.2838 4.9079 6.2172 6.0259 2.9367 1.1192 5.8525 1.0386 8.8316-0.22319 2.9781-1.2614 5.0411-3.2966 6.281-6.1853 1.239-2.887 1.2379-5.7165 0-8.6403-1.238-2.923-3.229-4.8355-6.0897-5.8346-1.4326-0.4952-2.88-0.70632-4.3361-0.63766zm-595.86 4.9419 13.423 5.2607c-0.44498 1.1442-0.87479 2.293-1.3072 3.4434l-13.544-5.07c0.45954-1.2229 0.92972-2.4504 1.4029-3.6666zm636.45 0.38259c0.47184 1.2174 0.94462 2.4425 1.4029 3.6666l-13.55 5.0056c-0.42623-1.1382-0.83677-2.2794-1.2753-3.4115l13.423-5.2607zm-638.81 5.8346 13.518 5.0056c-0.41818 1.1412-0.80578 2.2962-1.2116 3.4434l-13.646-4.7506c0.43736-1.2372 0.88791-2.4679 1.3391-3.6984zm641.17 0.38261c0.44961 1.231 0.8714 2.4608 1.3072 3.6984l-13.646 4.7506c-0.40428-1.1477-0.79488-2.3016-1.2116-3.4434l13.55-5.0056zm-643.4 5.8984 13.646 4.7506c-0.39504 1.1475-0.79709 2.2901-1.1797 3.4434l-13.71-4.4955c0.40926-1.234 0.82052-2.4707 1.2434-3.6984zm645.6 0.35071c0.42471 1.2375 0.83261 2.4864 1.2434 3.7303l-13.71 4.4636c-0.38117-1.1536-0.78604-2.2954-1.1797-3.4434l13.646-4.7506zm-647.7 5.9302 13.742 4.4955c-0.37493 1.1626-0.78558 2.307-1.1478 3.4752l-13.773-4.2404c0.38722-1.2491 0.77853-2.4874 1.1797-3.7303zm649.81 0.3826c0.40261 1.2528 0.79119 2.5031 1.1797 3.7622l-13.805 4.1767c-0.35979-1.1653-0.74349-2.3156-1.1159-3.4753l13.742-4.4636zm-624.62 2.5188 0.47824 0.15941 27.802 9.2142 0.47825 0.15941-0.15942 0.47824-1.1797 3.5709-0.15942 0.47825-0.47824-0.15943-27.802-9.2142-0.47824-0.15942 0.15941-0.47825 1.1797-3.5709 0.15941-0.47824zm599.78 0.95649 0.12748 0.47824 2.71 8.8954c0.85297 2.7976 0.69455 5.501-0.47824 8.0026-1.1769 2.5102-3.1517 4.1876-5.8346 5.0056-2.0053 0.61139-3.9957 0.60402-5.8984-0.0638-1.7046-0.5873-3.1262-1.6398-4.3042-3.0608l-8.5128 9.2461-0.60578 0.63767-0.25507-0.82897-1.1159-3.6028-0.0956-0.28695 0.1913-0.22317 8.1939-8.8635-1.5304-5.0375-9.7243 2.9651-0.51014 0.15941-0.12747-0.47824-1.084-3.6028-0.15943-0.51012 0.47825-0.12748 28.025-8.5446 0.51012-0.15941zm-626.95 2.4869 13.805 4.2086c-0.35076 1.1655-0.6822 2.3362-1.0203 3.5071l-13.901-3.9535c0.36229-1.2554 0.73963-2.5128 1.1159-3.7622zm653.73 0.38261c0.37461 1.2494 0.75526 2.5068 1.1159 3.7622l-13.869 3.9535c-0.33743-1.1744-0.70194-2.3382-1.0521-3.5071l13.805-4.2086zm-29.045 2.8057-11.542 3.5071 1.4666 4.8143c0.48446 1.5889 1.4015 2.7521 2.8057 3.5071 0.009 0.004 0.0236-0.004 0.0318 0 1.418 0.73638 2.9286 0.86733 4.623 0.35073 1.7056-0.52005 2.9002-1.4818 3.6666-2.9014 0.767-1.421 0.90073-2.8687 0.41448-4.4636l-1.4666-4.8143zm-626.53 3.1883 13.869 3.9535c-0.32465 1.161-0.6125 2.341-0.92461 3.5071l-13.965-3.6666c0.33922-1.2685 0.66682-2.5315 1.0203-3.7941zm657.43 0.3826c0.35525 1.275 0.71139 2.545 1.0521 3.826l-13.965 3.6347c-0.31136-1.1694-0.63251-2.343-0.95649-3.5071l13.869-3.9535zm-629.79 3.1245 0.31883 0.51012 1.7854 2.9651 0.22318 0.3826-0.35071 0.28695c-2.0176 1.6056-3.2866 3.5052-3.8578 5.7708-0.7445 2.9529-0.28189 5.6636 1.4029 8.3215 1.6841 2.6569 4.0316 4.349 7.1418 5.1332 3.1106 0.7843 5.9605 0.42547 8.7041-1.1159 2.7429-1.541 4.4528-3.744 5.1969-6.6954 0.61464-2.4377 0.3481-4.7742-0.73331-7.078l-6.3128-1.5942-1.2434 4.9419-0.12753 0.47825-0.51013-0.0957-2.5825-0.63765-0.47825-0.12748 0.09564-0.51013 2.2637-9.1185 0.12753-0.47825 0.51013 0.0957 10.872 2.7419 0.1913 0.0638 0.12753 0.1913c0.6359 1.0647 1.124 2.0954 1.4666 3.0608 1.057 2.9901 1.1892 6.0458 0.41448 9.1185-1.0517 4.1711-3.498 7.4271-7.2374 9.6606-3.7532 2.2302-7.7552 2.8047-11.924 1.7536-4.1711-1.0517-7.4271-3.498-9.6606-7.2374-2.2334-3.7394-2.8372-7.7528-1.7854-11.924 0.85772-3.4017 2.7089-6.2276 5.5158-8.4809l0.44636-0.3826zm-29.364 2.9332 13.933 3.6347c-0.30604 1.183-0.56776 2.3828-0.86084 3.5709l-14.029-3.4115c0.31162-1.264 0.63083-2.5357 0.95649-3.7941zm660.87 0.3826c0.32408 1.2585 0.64645 2.53 0.95649 3.7941l-14.029 3.3796c-0.28653-1.1673-0.56182-2.3448-0.86085-3.5071-0.003-0.0101 0.003-0.0219 0-0.0318l13.933-3.6347zm-662.47 6.0259 14.029 3.4115c-0.28019 1.1777-0.56156 2.3564-0.82896 3.539l-14.092-3.1245c0.28875-1.2781 0.58967-2.5534 0.89272-3.826zm664.06 0.41448c0.30132 1.2727 0.6057 2.5478 0.89272 3.826l-14.092 3.0926c-0.26537-1.1804-0.51897-2.3634-0.79707-3.539l13.997-3.3796zm-665.56 6.0578 14.124 3.1564c-0.25672 1.1816-0.55317 2.3527-0.79708 3.539l-14.156-2.8376c0.26529-1.2918 0.54911-2.5714 0.82896-3.8578zm667.02 0.41448c0.27602 1.2767 0.56727 2.544 0.82895 3.826l-14.124 2.8376c-0.24472-1.198-0.53929-2.3778-0.79708-3.5709l14.092-3.0926zm-37.494 0.15941c3.0685-0.0317 6.0106 0.87475 8.7359 2.6782 3.6312 2.4029 5.9012 5.7325 6.7592 9.9475 0.7 3.4389 0.24774 6.8276-1.3072 10.075l-0.25506 0.54201-0.47824-0.35071-2.8695-1.913-0.35071-0.22319 0.1913-0.41448c1.1233-2.3206 1.4228-4.596 0.95649-6.8867-0.60754-2.9844-2.1768-5.2204-4.8462-6.8867-2.6701-1.6667-5.564-2.2015-8.7041-1.5623-3.1428 0.63974-5.5593 2.205-7.365 4.7824-1.8032 2.5738-2.3612 5.3364-1.7536 8.3215 0.47834 2.3499 1.6068 4.2837 3.5071 5.9302l0.35071 0.28695-0.25505 0.3826-1.913 2.8695-0.31882 0.47825-0.44637-0.3826c-2.6911-2.41-4.3752-5.3578-5.0694-8.7678-0.85769-4.2134-0.0761-8.1645 2.3275-11.797 2.4171-3.6348 5.7948-5.9328 10.011-6.7911 1.0554-0.21482 2.0728-0.30832 3.0927-0.31883zm-630.87 5.9621 14.124 2.8376c-0.234 1.1888-0.44848 2.3775-0.66954 3.5709l-14.217-2.58c0.23876-1.2907 0.48006-2.5723 0.73331-3.8578zm669.7 0.41447c0.25165 1.2861 0.49613 2.5666 0.73331 3.8578l-14.156 2.5188c-0.21986-1.1952-0.46859-2.3802-0.70142-3.5709l14.124-2.8057zm-154.03 2.0086 29.651 26.463c68.426 61.006 63.564 56.463 63.575 59.175 0.0635 17.962-9.5134 58.443-19.544 82.545-1.7355 4.1699-3.6596 8.5215-4.2723 9.6605-0.99451 1.8488-79.999-82.64-112.1-119.88l-3.0289-3.5071 20.915-24.901c11.498-13.7 21.789-25.954 22.86-27.228l1.9449-2.3275zm-361.71 0.3826c0.4248-0.11884 36.254 42.198 44.03 52.001l1.7855 2.2637-10.681 11.797c-5.8871 6.4937-13.908 15.302-17.823 19.576-3.9144 4.2742-24.545 26.916-45.816 50.311s-38.928 42.844-39.248 43.201c-1.2894 1.4421-10.477-22.082-15.559-39.79-5.1907-18.089-10.511-48.259-9.6605-54.839 0.19346-1.4971 6.9146-7.9569 25.219-24.295 13.722-12.248 34.445-30.771 46.071-41.161s21.384-18.983 21.68-19.066zm-155.17 3.7303 14.188 2.5506c-0.21109 1.1952-0.4396 2.4031-0.63766 3.6028l-14.22-2.2956c0.21248-1.289 0.44265-2.5738 0.66954-3.8578zm672.16 0.3826c0.22679 1.2924 0.42547 2.5924 0.63767 3.8897l-14.22 2.2637c-0.19639-1.1987-0.39638-2.4085-0.60577-3.6028l14.188-2.5506zm-647.58 1.8173 0.47825 0.0638 2.6463 0.3826 0.51013 0.0638-0.06377 0.51012-2.168 14.252 8.162 1.2434 1.7854-11.733 0.09566-0.51014 0.47824 0.0638 2.6463 0.38261 0.51013 0.0638-0.06377 0.51012-1.7854 11.765 10.808 1.6579 2.168-14.252 0.09564-0.51013 0.47824 0.0638 2.6463 0.41449 0.51013 0.0956-0.06377 0.47825-2.7738 18.46-0.09564 0.51014-0.47825-0.0638-28.982-4.368-0.51013-0.0956 0.06377-0.47824 2.8057-18.46 0.09564-0.51013zm-25.698 4.3361 14.252 2.2956c-0.18815 1.2017-0.367 2.3968-0.54201 3.6028l-14.284-2.0405c0.18673-1.2879 0.37282-2.5746 0.57389-3.8578zm674.36 0.41448c0.19933 1.2826 0.35704 2.5706 0.54201 3.8578l-14.252 2.0086c-0.1736-1.2066-0.35528-2.4005-0.54201-3.6028l14.252-2.2637zm-675.28 6.1534 14.252 2.0086c-0.16525 1.2093-0.32626 2.4212-0.47824 3.6347l-14.348-1.73c0.16358-1.3083 0.36366-2.6179 0.54201-3.9216zm676.21 0.38259c0.17672 1.303 0.34814 2.6139 0.51012 3.9216l-14.284 1.7217c-0.15045-1.2131-0.31453-2.4257-0.47824-3.6347l14.252-2.0086zm-24.231 4.1767 0.0638 0.51012 1.9768 18.588 0.0638 0.51012-0.51012 0.0638-2.6782 0.28694-0.51012 0.0638-0.0638-0.51012-1.4985-14.347-8.2258 0.86083 1.2434 11.829 0.0638 0.51012-0.51012 0.0638-2.6463 0.28695-0.51013 0.0638-0.0638-0.51012-1.2753-11.829-10.872 1.1478 1.5304 14.315 0.0638 0.51014-0.51014 0.0638-2.6782 0.28694-0.51014 0.0638-0.0638-0.51013-1.9768-18.556-0.0638-0.51012 0.51012-0.0638 29.141-3.1245 0.51012-0.0638zm-652.84 2.0405 14.315 1.7217c-0.14133 1.2088-0.28638 2.4218-0.41448 3.6347l-14.348-1.47c0.13664-1.2957 0.26338-2.5984 0.41448-3.8897zm677.9 0.41448c0.14957 1.2921 0.31127 2.5932 0.44637 3.8897l-14.347 1.4347c-0.12675-1.2134-0.27454-2.4252-0.41447-3.6346l14.315-1.6898zm-678.6 6.1853 14.347 1.4347c-0.11801 1.2126-0.21411 2.4182-0.31883 3.6347l-14.411-1.1797c0.11186-1.3023 0.25614-2.5916 0.3826-3.8897zm679.3 0.41448c0.12489 1.2987 0.2723 2.5868 0.3826 3.8897l-14.411 1.1797c-0.10314-1.216-0.20245-2.4226-0.31884-3.6347l14.347-1.4347zm-654.85 1.0522 0.51013 0.0318 2.7738 0.15942 0.51013 0.0318-0.03188 0.51012-0.54201 8.2577 25.953 1.7217 0.51013 0.0318-0.03188 0.51014-0.25506 3.7622-0.03189 0.51012-0.51013-0.0318-25.953-1.7217-0.54201 8.2577-0.03189 0.51013-0.51013-0.0318-2.7738-0.15941-0.51013-0.0318 0.03188-0.51014 1.4029-21.298 0.03188-0.51012zm-25.028 5.1332 14.347 1.1797c-0.09448 1.215-0.17392 2.4479-0.25506 3.6665l-14.379-0.92459c0.08661-1.3036 0.18572-2.6221 0.28695-3.9216zm680.48 0.41448c0.0987 1.2867 0.17076 2.5991 0.25507 3.8897l-14.411 0.89274c-0.0784-1.1963-0.13194-2.41-0.22318-3.6028l14.379-1.1797zm-680.93 6.2172 14.379 0.9246c-0.07012 1.2025-0.13422 2.3968-0.1913 3.6028l-14.411-0.60578c0.06185-1.3134 0.14652-2.6121 0.22318-3.9216zm681.34 0.38259c0.0758 1.3191 0.13064 2.6304 0.1913 3.9535l-14.379 0.5739c-0.0562-1.2151-0.122-2.423-0.1913-3.6347l14.379-0.89272zm-24.646 4.9738h0.51012v0.51013 3.7622 0.25507l-0.22317 0.15941-12.275 8.6403 12.371 8.5446 0.22319 0.15943v0.25505l0.0318 3.7303v0.51014h-0.51013l-29.3 0.15941h-0.51014v-0.51012l-0.0318-3.7622v-0.51012h0.51012l21.872-0.12747-9.3098-6.5998-0.22318-0.15943v-0.25505-2.8695-0.25506l0.22318-0.15942 9.1823-6.6636-21.808 0.0956h-0.51012v-0.51012l-0.0318-3.7303v-0.51014h0.51012l29.3-0.15941zm-657.01 1.2753 14.379 0.60578c-0.04756 1.2145-0.09327 2.4168-0.12753 3.6347l-14.411-0.31883c0.03641-1.3048 0.10839-2.6206 0.15942-3.9216zm681.98 0.41448c0.0494 1.3001 0.0928 2.6178 0.12748 3.9216l-14.411 0.31884c-0.033-1.2299-0.0809-2.4401-0.12748-3.6666l14.411-0.5739zm-627.62 5.4839 0.03188 0.76519 0.09564 3.7303v0.31884l-0.28695 0.15941-9.3736 4.2723 0.35071 11.701 9.5649 3.6347 0.31883 0.12748v0.35071l0.09564 3.7303 0.03189 0.7333-0.73331-0.25505-29.619-11.255-0.31883-0.12747v-0.35072l-0.09564-3.7622v-0.31883l0.28695-0.15941 28.95-13.008 0.70143-0.28694zm-54.584 0.73331 14.411 0.31882c-0.02454 1.2272-0.0209 2.4679-0.03188 3.6984l-14.411-0.0956c0.01152-1.3096 0.0056-2.6156 0.03188-3.9216zm682.39 0.41448c0.0246 1.3064 0.0219 2.6116 0.0318 3.9216l-14.411 0.0318c-0.009-1.2105-0.009-2.4273-0.0318-3.6347l14.411-0.31884zm-211.16 3.284c0.76696-0.0333 5.529 5.159 59.781 64.691 27.664 30.357 51.656 56.698 53.308 58.505l3.0289 3.284-5.6114 10.043c-9.6674 17.356-22.288 35.181-34.944 49.355-3.4853 3.9031-6.6233 7.1401-6.9505 7.1737-0.32728 0.0336-7.1462-8.131-15.176-18.141-8.0303-10.01-25.419-31.626-38.61-48.048s-31.867-39.696-41.512-51.714c-11.664-14.535-17.325-22.224-16.898-22.924 0.35296-0.57899 6.3531-7.8414 13.327-16.165 6.974-8.3233 16.526-19.755 21.234-25.379 4.7085-5.6239 8.7368-10.392 8.9272-10.617 0.0291-0.0343 0.0445-0.0615 0.0956-0.0638zm-260.17 0.0956c0.51914 0.0431 41.102 48.268 43.361 51.523 1.177 1.6963 2.6091-0.15221-95.362 121.79-8.4655 10.537-15.751 19.273-16.197 19.417-3.225 1.0427-30.404-35.35-42.245-56.56l-5.4839-9.82 2.6782-2.8695c1.4781-1.5747 18.111-19.796 36.952-40.491 59.927-65.825 75.746-83.037 76.296-82.991zm-211.13 2.8376 14.411 0.0956c-0.000064 0.0854 0 0.1696 0 0.25506 0 1.1325 0.02038 2.2498 0.03188 3.3796l-14.411 0.1913c-0.01224-1.1921-0.03188-2.3759-0.03188-3.5709 0-0.1174-0.000119-0.23338 0-0.35071zm682.52 0.41448c-0.0002 1.0883-0.0215 2.1662-0.0318 3.2521l-14.411-0.15943c0.009-1.0127 0.0315-2.014 0.0318-3.0289l14.411-0.0638zm-641.14 3.0608-10.84 4.6549 11.063 3.9854-0.22318-8.6403zm626.66 2.7419 14.411 0.15942c-0.0229 1.3174-0.0261 2.6398-0.0638 3.9535l-14.411-0.47824c0.0344-1.2057 0.0425-2.4258 0.0638-3.6347zm-653.57 0.22319c0.02213 1.2102 0.0604 2.4278 0.09564 3.6347l-14.411 0.47824c-0.03829-1.3032-0.07201-2.6148-0.09564-3.9216l14.411-0.19129zm653.38 6.1215 14.443 0.47824c-0.0478 1.3093-0.12877 2.6161-0.1913 3.9216l-14.379-0.76519c0.0575-1.2046 0.0831-2.4266 0.12748-3.6346zm-653.19 0.22317c0.04519 1.2072 0.06927 2.4308 0.12753 3.6347l-14.379 0.7652c-0.06339-1.3054-0.11072-2.6124-0.15941-3.9216l14.411-0.47825zm652.93 6.1215 14.379 0.76519c-0.0732 1.3104-0.16719 2.6152-0.25507 3.9216l-14.379-1.0202c0.0822-1.2239 0.18638-2.439 0.25506-3.6666zm-40.491 0.0318 0.51014 0.0318 29.141 2.8376 0.47825 0.0638-0.0318 0.51012-1.7854 18.588-0.0638 0.47824-0.51014-0.0318-2.6782-0.25507-0.47825-0.0638 0.0318-0.51013 1.371-14.347-8.1939-0.76519-1.1478 11.829-0.0638 0.47825-0.51012-0.0318-2.6782-0.25505-0.47824-0.0638 0.0318-0.51013 1.1478-11.829-10.904-1.0203-1.371 14.315-0.0638 0.47824-0.51014-0.0318-2.6782-0.25507-0.47825-0.0638 0.0318-0.51012 1.8173-18.588 0.0638-0.47824zm-612.15 0.1913c0.06946 1.226 0.14024 2.4442 0.22318 3.6666l-14.379 1.0203c-0.08866-1.3049-0.14924-2.6127-0.22318-3.9216l14.379-0.76519zm40.778 5.3564 0.12753 0.89272 0.47824 3.7303 0.03189 0.28694-0.22318 0.1913-9.5649 7.3331 0.66954 5.2607 10.075-1.2753 0.51013-0.0638 0.06377 0.51014 0.47825 3.7303 0.06377 0.51012-0.51013 0.0638-29.045 3.6984-0.51013 0.0638-0.06377-0.51012-1.1797-9.2461c-0.3691-2.9009 0.23976-5.5115 1.8173-7.7795 1.5813-2.2732 3.8152-3.631 6.5998-3.9854 2.0824-0.26496 4.0425 0.10645 5.8027 1.084 1.5713 0.8608 2.7743 2.1424 3.6984 3.7303l9.9794-7.6838 0.70143-0.54201zm611.45 0.76519 14.379 1.0203c-0.0995 1.3252-0.20426 2.6325-0.31883 3.9535l-14.379-1.3391c0.10458-1.2093 0.2275-2.4217 0.31884-3.6347zm-651.82 0.22318c0.09221 1.2133 0.2134 2.4251 0.31883 3.6347l-14.379 1.3391c-0.11463-1.3113-0.21908-2.606-0.31883-3.9216l14.379-1.0521zm651.24 6.1215 14.379 1.3391c-0.12316 1.299-0.27688 2.595-0.41448 3.8897l-14.315-1.5942c0.12863-1.2118 0.23542-2.4189 0.35071-3.6347zm-650.7 0.22318c0.11621 1.2164 0.25308 2.4222 0.3826 3.6347l-14.347 1.5942c-0.13832-1.2932-0.25877-2.5922-0.3826-3.8897l14.347-1.3391zm20.915 0.7652c-0.20576 0.009-0.44359 0.035-0.66954 0.0638-1.7673 0.2249-3.0864 0.96175-4.081 2.2318-1.0002 1.2773-1.39 2.6515-1.1797 4.3042l0.63766 5.0056 11.988-1.5304-0.63766-4.9737c-0.21054-1.6546-0.93082-2.939-2.1999-3.9216-1.1177-0.8555-2.3703-1.2424-3.8578-1.1797zm629.15 5.3245 14.315 1.5942c-0.14983 1.3118-0.31358 2.6144-0.47825 3.9216l-14.252-1.8811c0.15148-1.2049 0.27617-2.4258 0.41448-3.6347zm-649.39 0.25507c0.13806 1.1982 0.26349 2.4086 0.41448 3.6028l-14.284 1.8811c-0.16405-1.2953-0.29688-2.59-0.44636-3.8897l14.315-1.5941zm607.98 4.91 0.51012 0.0956 28.758 5.5476 0.51012 0.0956-0.0956 0.51014-0.70142 3.6984-0.0638 0.28696-0.25506 0.0956-23.753 9.4055 20.851 4.0173 0.51012 0.0956-0.0956 0.51012-0.70142 3.6984-0.0957 0.51012-0.51013-0.0956-28.758-5.5795-0.51012-0.0956 0.0956-0.51012 0.70142-3.6666 0.0638-0.28694 0.25507-0.0956 23.753-9.4055-20.851-4.0491-0.51012-0.0956 0.0956-0.51012 0.70142-3.6666 0.0956-0.51013zm40.651 1.1797 14.252 1.8492c-0.17394 1.298-0.35352 2.5963-0.54201 3.8897l-14.22-2.1362c0.1749-1.2013 0.34834-2.3972 0.51012-3.6028zm-647.86 0.2232c0.1627 1.2057 0.33432 2.4013 0.51013 3.6028l-14.22 2.1362c-0.18944-1.2936-0.36714-2.5914-0.54201-3.8897l14.252-1.8492zm646.94 6.0578 14.252 2.1362c-0.19917 1.2944-0.39211 2.6002-0.60578 3.8897l-14.22-2.4231c0.19851-1.1988 0.38848-2.3996 0.57389-3.6028zm-646.01 0.22317c0.18624 1.2028 0.37457 2.4044 0.5739 3.6028l-14.22 2.4231c-0.2146-1.2896-0.40569-2.5952-0.60578-3.8897l14.252-2.1362zm14.794 3.9535 0.12753 0.51014 1.7217 8.0983 25.411-5.4839 0.47824-0.0956 0.12753 0.51013 0.79708 3.6666 0.09564 0.47824-0.51013 0.12748-25.411 5.452 1.7536 8.1302 0.09564 0.47825-0.51013 0.12747-2.7101 0.57389-0.47825 0.0956-0.12753-0.51013-4.4955-20.851-0.09564-0.47824 0.51013-0.12748 2.7419-0.60578 0.47825-0.0956zm630.2 2.1043 14.188 2.4231c-0.22455 1.2911-0.46242 2.5718-0.70142 3.8578l-14.156-2.6782c0.22247-1.1979 0.46017-2.4003 0.66953-3.6028zm-643.94 0.22319c0.2082 1.1905 0.41661 2.3848 0.63766 3.5709l-14.156 2.7101c-0.23995-1.2861-0.47595-2.5667-0.70143-3.8578l14.22-2.4231zm642.79 6.0259 14.124 2.7101c-0.24795 1.2769-0.47114 2.5542-0.7333 3.826l-14.124-2.9651c0.24559-1.1923 0.50074-2.3739 0.73331-3.5709zm-641.65 0.22319c0.233 1.1944 0.45545 2.3812 0.70143 3.5709l-14.092 2.9651c-0.26352-1.2738-0.51591-2.547-0.76519-3.826l14.156-2.71zm373.99 5.165c0.95629-0.3614 107.38 154.32 106.81 155.24-0.91071 1.4736-18.667 12.853-28.089 18.014-32.684 17.902-70.453 29.343-108.15 32.712-52.106 4.6573-108.47-7.0076-154.09-31.883-11.74-6.402-29.927-18.034-29.938-19.13-0.009-0.76868 11.203-17.106 95.107-138.56 6.3037-9.1252 11.746-16.483 12.084-16.356 0.33733 0.1269 12.227 13.297 26.431 29.269s26.24 29.014 26.718 29.014c0.47814 0 12.485-13.042 26.686-29.014s26.091-29.172 26.431-29.3zm266.35 0.82896 14.124 2.997c-0.27428 1.2783-0.57227 2.553-0.86085 3.826l-14.029-3.2202c0.27117-1.1968 0.50719-2.4011 0.76518-3.6028zm-639.04 0.27c0.25646 1.1902 0.4958 2.3856 0.76519 3.5709l-14.06 3.252c-0.2889-1.2703-0.55428-2.5503-0.82896-3.826l14.124-2.997zm36.41 5.3564c1.7727-0.12071 3.5044 0.419 5.1332 1.5304 2.1586 1.473 3.6471 3.4758 4.3999 5.994 0.6288 2.1034 0.61538 4.3237 0.03189 6.5998h0.03188c-0.24639 1.0045-0.61569 1.9535-1.1159 2.8376l-0.15941 0.28696-0.35071-0.0318-3.4434-0.51014-0.70143-0.0956 0.31883-0.63765c0.43246-0.92001 0.75902-1.7795 0.98837-2.6144v-0.0318c0.59568-1.993 0.70341-3.518 0.3826-4.5912-0.43517-1.4557-1.2285-2.5543-2.3593-3.3158-1.1296-0.74911-2.2372-0.89929-3.539-0.51012-1.1351 0.33936-1.9893 1.0257-2.6463 2.168-0.6816 1.1662-1.1676 2.5243-1.4347 4.0173l-0.89272 4.623c-0.33077 1.5987-0.89863 3.0545-1.7217 4.368v0.0318h-0.03188c-0.86466 1.3411-2.0488 2.2327-3.539 2.6782-2.2018 0.65824-4.4053 0.25141-6.3447-1.2116-1.9186-1.4474-3.2317-3.3885-3.9535-5.8027-0.5573-1.8643-0.68305-3.8479-0.3826-5.9302 0.09367-0.72906 0.34054-1.5796 0.70143-2.5188l0.15942-0.3826 0.3826 0.0638 3.3477 0.51013 0.63766 0.0956-0.22318 0.60578c-0.27148 0.69888-0.46352 1.361-0.60578 2.0724-0.33286 1.6661-0.32513 3.0887 0 4.2404 0.0026 0.009-0.0026 0.0228 0 0.0318 0.38196 1.26 1.0432 2.2866 1.9767 3.0608 0.89901 0.75859 1.7828 0.94016 2.9014 0.60578 0.45154-0.13497 0.8014-0.33151 1.1159-0.60578 0.29267-0.26825 0.59226-0.68176 0.79708-1.2116v-0.0318l0.51013-1.371v-0.0318c0.10568-0.28678 0.25912-0.80637 0.41448-1.626 0.07741-0.42498 0.15058-0.74817 0.1913-0.98837 0.03579-0.21119 0.05923-0.31153 0.09564-0.44637h-0.03188l0.03188-0.0638 0.44636-2.1043c0.2268-1.049 0.40086-1.786 0.54201-2.2318l0.54201-1.7536c0.25182-0.82124 0.53092-1.4285 0.86084-1.8811 0.004-0.006-0.004-0.0258 0-0.0318 0.27923-0.39046 0.66119-0.84102 1.084-1.3391 0.4563-0.5567 0.96819-0.99698 1.5942-1.3391 0.61384-0.33543 1.303-0.59896 2.0724-0.82896 0.58752-0.17563 1.1883-0.31011 1.7854-0.35072zm601.22 0.66955 14.06 3.2202c-0.30043 1.2777-0.60987 2.5538-0.92461 3.826l-13.997-3.5071c0.29092-1.1765 0.5827-2.3576 0.86084-3.539zm-636.23 0.19128c0.27915 1.1823 0.56889 2.3617 0.86084 3.539l-13.997 3.539c-0.31561-1.2717-0.62331-2.5487-0.92461-3.826l14.06-3.2521zm621.65 0.66955 0.51013 0.15942 2.6782 0.79707 0.47825 0.12747-0.15941 0.47825-5.9302 20.501-0.12748 0.51012-0.51013-0.15941-2.6782-0.79708-0.47824-0.12748 0.15941-0.47826 2.3274-7.9388-24.996-7.2693-0.51014-0.12748 0.15941-0.47824 1.0522-3.6028 0.12747-0.51014 0.47825 0.15943 24.964 7.2693 2.3274-8.0026 0.12748-0.51014zm13.072 5.2926 13.965 3.539c-0.32395 1.2657-0.65031 2.5341-0.98836 3.7941l-13.933-3.7941c0.31702-1.1821 0.65244-2.3517 0.95649-3.539zm-633.23 0.22318c0.30252 1.1776 0.64122 2.3347 0.95649 3.5071l-13.933 3.826c-0.33969-1.2624-0.69473-2.526-1.0203-3.7941l13.997-3.539zm631.57 5.9302 13.933 3.7941c-0.34865 1.2591-0.72134 2.509-1.084 3.7622l-13.837-4.0492c0.33765-1.1671 0.66342-2.3347 0.98837-3.5071zm-629.91 0.1913c0.32576 1.1722 0.64991 2.3402 0.98837 3.5071l-13.837 4.081c-0.36349-1.2525-0.73455-2.5038-1.084-3.7622l13.933-3.826zm628.16 5.8983 13.837 4.081c-0.37425 1.2554-0.72764 2.5129-1.1159 3.7622l-13.773-4.3361c0.3616-1.1639 0.70323-2.3377 1.0521-3.5071zm-626.37 0.22319c0.34893 1.1662 0.65869 2.3465 1.0203 3.5071l-13.742 4.3361c-0.39018-1.252-0.77169-2.504-1.1478-3.7622l13.869-4.081zm624.49 5.8665 13.773 4.368c-0.39934 1.249-0.83014 2.4876-1.2434 3.7303l-13.678-4.623c0.38354-1.1541 0.77681-2.3154 1.1478-3.4752zm-622.64 0.19c0.37482 1.1691 0.7602 2.3438 1.1478 3.5071l-13.678 4.5912c-0.41404-1.2422-0.84335-2.4817-1.2434-3.7303l13.773-4.368zm620.63 5.8346 13.71 4.623c-0.42269 1.2382-0.87071 2.4667-1.3072 3.6984l-13.582-4.8781c0.40493-1.1434 0.78714-2.2941 1.1797-3.4434zm-618.63 0.22318c0.39452 1.1522 0.80456 2.297 1.2116 3.4434l-13.582 4.8781c-0.43731-1.231-0.88367-2.4609-1.3072-3.6984l13.678-4.623zm616.52 5.8027 13.582 4.8462c-0.44839 1.2337-0.9088 2.4714-1.371 3.6984l-13.487-5.1332c0.4279-1.1367 0.85978-2.2688 1.2753-3.4115zm-614.42 0.1913c0.41637 1.1425 0.84661 2.275 1.2753 3.4115l-13.473 5.18c-0.46245-1.2251-0.89038-2.4667-1.3391-3.6984l13.55-4.8781zm612.19 5.739 13.487 5.1332c-0.47608 1.2342-0.94476 2.4712-1.4347 3.6984l-13.391-5.4201c0.45275-1.1347 0.89872-2.2706 1.3391-3.4115zm-609.94 0.23c0.43766 1.1313 0.88924 2.2544 1.3391 3.3796l-13.359 5.4201c-0.48691-1.2172-0.96149-2.4425-1.4347-3.6666l13.455-5.1332zm607.59 5.7071 13.391 5.4201c-0.49377 1.2085-0.99133 2.4013-1.4985 3.6028l-13.295-5.6433c0.47404-1.1234 0.94105-2.2498 1.4029-3.3796zm-605.2 0.1913c0.46106 1.1257 0.89775 2.2602 1.371 3.3796l-13.263 5.6752c-0.51192-1.2102-1.0002-2.4174-1.4985-3.6347l13.391-5.4201zm602.75 5.6752 13.263 5.6433c-0.51843 1.2013-1.0305 2.4087-1.5623 3.6028l-13.168-5.8984c0.49429-1.1104 0.98439-2.2308 1.4666-3.3477zm-600.29 0.1913c0.48303 1.1165 0.97153 2.2377 1.4666 3.3477l-13.136 5.9302c-0.53363-1.1957-1.0739-2.3999-1.5942-3.6028l13.263-5.6752zm597.71 5.6114 13.168 5.9302c-0.54086 1.1887-1.1039 2.3577-1.6579 3.539l-13.04-6.1534c0.51801-1.105 1.0244-2.2041 1.5304-3.3158zm-595.13 0.1913c0.50677 1.1113 1.0116 2.2112 1.5304 3.3158l-13.008 6.1853c-0.55908-1.1896-1.1122-2.3738-1.6579-3.5709l13.136-5.9302zm592.45 5.5795 13.04 6.1853c-0.56784 1.1857-1.1725 2.3609-1.7536 3.539l-12.881-6.4404c0.53794-1.0914 1.0681-2.1857 1.5942-3.284zm-589.77 0.1913c0.52807 1.1004 1.0861 2.1905 1.626 3.284l-12.913 6.4085c-0.57623-1.1665-1.1584-2.3331-1.7217-3.5071l13.008-6.1853zm586.97 5.5158 12.881 6.4404c-0.5823 1.1573-1.1585 2.3255-1.7536 3.4752l-12.785-6.6636c0.55902-1.0804 1.1107-2.1646 1.6579-3.2521zm-584.13 0.1913c0.54804 1.087 1.0981 2.1721 1.6579 3.2521l-12.785 6.6954c-0.60335-1.1634-1.1952-2.3359-1.7854-3.5071l12.913-6.4404zm581.2 5.452 12.785 6.6954c-0.61266 1.1608-1.2236 2.3224-1.8492 3.4752l-12.626-6.9186c0.5828-1.0743 1.1187-2.1705 1.6898-3.2521zm-578.29 0.1913c0.57284 1.0831 1.1052 2.1763 1.6898 3.2521l-12.626 6.9186c-0.62641-1.1524-1.2357-2.3149-1.8492-3.4752l12.785-6.6954zm575.27 5.4201 12.658 6.9186c-0.63544 1.1491-1.2647 2.3024-1.913 3.4434l-12.498-7.1737c0.59708-1.0514 1.1678-2.1297 1.7536-3.1883zm-572.24 0.1913c0.58199 1.0501 1.1604 2.1134 1.7536 3.1564l-12.498 7.2056c-0.6465-1.136-1.2473-2.2992-1.8811-3.4434l12.626-6.9186zm569.14 5.3564 12.498 7.1737c-0.65368 1.1294-1.3424 2.2265-2.0086 3.3477l-12.339-7.3968c0.61785-1.0404 1.2426-2.0768 1.8492-3.1245zm-566.02 0.19128c0.60739 1.0473 1.2306 2.0846 1.8492 3.1245l-12.339 7.4288c-0.67047-1.1263-1.3508-2.2449-2.0086-3.3796l12.498-7.1737zm562.77 5.2607 12.371 7.3969c-0.67947 1.1231-1.3804 2.2331-2.0724 3.3477l-12.211-7.6519c0.64023-1.0318 1.284-2.0532 1.913-3.0926zm-559.55 0.1913c0.63275 1.0439 1.3008 2.0564 1.9449 3.0926l-12.211 7.6519c-0.68893-1.1079-1.3959-2.1995-2.0724-3.3158l12.339-7.4287zm556.2 5.2288 12.211 7.6519c-0.70239 1.1114-1.4213 2.2131-2.1362 3.3158l-12.052-7.907c0.6601-1.0189 1.3278-2.0341 1.9768-3.0608zm-552.82 0.15941c0.6544 1.0336 1.3111 2.0669 1.9767 3.0926l-12.084 7.907c-0.7182-1.1062-1.3986-2.2327-2.1043-3.3477l12.211-7.6519zm549.34 5.1969 12.084 7.8751c-0.72246 1.0954-1.4334 2.1974-2.168 3.284l-11.924-8.1302c0.676-1.0004 1.3435-2.0207 2.0086-3.0289zm-545.87 0.15942c0.67098 1.0154 1.3267 2.0533 2.0086 3.0608l-11.892 8.0983c-0.73393-1.0837-1.4782-2.1595-2.1999-3.2521l12.084-7.907zm542.33 5.1013 11.892 8.0983c-0.73899 1.0746-1.4809 2.1546-2.2318 3.2202l-11.733-8.3215c0.70196-0.9964 1.3813-1.9924 2.0724-2.997zm-538.79 0.15941c0.6936 1.0068 1.3997 1.9984 2.1043 2.997l-11.765 8.3852c-0.75685-1.0721-1.4871-2.1709-2.2318-3.2521l11.892-8.1302zm535.16 5.0375 11.733 8.3534c-0.76771 1.0712-1.5477 2.1264-2.3274 3.1883l-11.574-8.5765c0.72527-0.98806 1.4536-1.9686 2.168-2.9651zm-531.49 0.15942c0.71511 0.99601 1.442 1.9775 2.168 2.9651l-11.605 8.5765c-0.7736-1.0521-1.5657-2.0951-2.3275-3.1564l11.765-8.3852zm527.73 4.9738 11.605 8.5765c-0.78808 1.0558-1.6232 2.0782-2.4231 3.1245l-11.382-8.7997c0.73572-0.96278 1.4747-1.9302 2.1999-2.9013zm-523.97 0.1913c0.72078 0.96366 1.4688 1.9141 2.1999 2.8695l-11.414 8.8316c-0.79467-1.0379-1.5764-2.0773-2.3593-3.1245l11.574-8.5765zm520.11 4.8781 11.414 8.7997c-0.80288 1.0332-1.6406 2.0372-2.455 3.0608l-11.223-8.991c0.75678-0.95148 1.5174-1.9094 2.2637-2.8695zm-516.25 0.15942c0.74815 0.96101 1.5051 1.9171 2.2637 2.8695l-11.255 9.0229c-0.81729-1.0256-1.6174-2.0574-2.4231-3.0927l11.414-8.7997zm512.3 4.8143 11.223 8.991c-0.82763 1.0236-1.6477 2.047-2.4869 3.0608l-11.032-9.2142c0.7738-0.93525 1.532-1.8936 2.2956-2.8376zm-508.34 0.15941c0.76609 0.94573 1.5192 1.9006 2.2956 2.8376l-11.063 9.2461c-0.83557-1.0078-1.6308-2.0432-2.455-3.0608l11.223-9.0229zm504.29 4.7506 11.063 9.2142c-0.85005 1.0106-1.6891 2.0284-2.5506 3.0289l-10.872-9.4692c0.79125-0.91956 1.5782-1.8454 2.3594-2.7738zm-500.24 0.15941c0.78188 0.92787 1.5674 1.8548 2.3593 2.7738l-10.872 9.4692c-0.85698-0.9938-1.705-1.9933-2.5506-2.997l11.063-9.2461zm496.1 4.6549 10.872 9.4374c-0.85923 0.9822-1.7122 1.961-2.5825 2.9332l-10.713-9.6287c0.81401-0.90971 1.6192-1.8231 2.4231-2.7419zm-491.95 0.19129c0.79482 0.90694 1.5866 1.812 2.3912 2.7101l-10.649 9.6606c-0.87885-0.9802-1.7468-1.9747-2.6144-2.9651l10.872-9.4055zm487.75 4.5912 10.681 9.6287c-0.88037 0.96787-1.7868 1.9118-2.6782 2.8695l-10.521-9.8518c0.8286-0.89071 1.7-1.7464 2.5188-2.6463zm-483.54 0.15941c0.81457 0.89402 1.6626 1.7614 2.4869 2.6463l-10.49 9.8518c-0.88706-0.95182-1.77-1.9075-2.6463-2.8695l10.649-9.6287zm479.17 4.4955 10.521 9.8518c-0.89211 0.94337-1.8074 1.8726-2.7101 2.8057l-10.298-10.043c0.83695-0.8656 1.6595-1.7396 2.4869-2.6144zm-474.8 0.15941c0.83179 0.87807 1.6774 1.7456 2.5188 2.6144l-10.298 10.043c-0.91553-0.94498-1.8373-1.8821-2.7419-2.8376l10.521-9.82zm413.59 3.1883 0.28695 0.41448 16.962 23.88 0.28695 0.41448-0.41448 0.28696-1.5942 1.1159-0.15942-0.22318-1.7854 1.3391-23.689-9.5968 12.339 17.344 0.28694 0.41448-0.41448 0.28695-1.7217 1.2116-0.15942-0.22319-1.7854 1.1797-0.0956-0.12748-16.994-23.848-0.28694-0.41447 0.41447-0.28695 3.0608-2.168 0.22318-0.15943 0.25507 0.0956 23.689 9.5968-12.339-17.376-0.28695-0.41448 0.41448-0.28696 3.0927-2.168 0.41448-0.28695zm-351.89 0.22318 0.41448 0.28694 3.0289 2.1999 0.41448 0.28694-0.28694 0.41448-15.336 21.075 11.063 8.0345 0.41448 0.28696-0.28694 0.41447-1.626 2.2318-0.28694 0.4145-0.41448-0.28696-0.79708-0.57389 0.12748-0.1913-2.2318-1.5304-0.0956 0.12748-2.8057-2.0405 0.0638-0.0956-2.1999-1.5623-0.0318 0.0638-2.8376-2.0724 0.0638-0.0638-2.168-1.626-0.0957 0.0956-1.4985-1.084-0.41447-0.28694 0.28694-0.41448 17.249-23.689 0.28694-0.41448zm408.71 0.98838 10.298 10.075c-0.90923 0.92496-1.8223 1.8592-2.742 2.7738l-10.107-10.266c0.85978-0.85542 1.7004-1.7176 2.5506-2.5825zm-466 0.15941c0.84907 0.86243 1.6921 1.7295 2.5506 2.5825l-10.107 10.266c-0.9275-0.92109-1.825-1.8741-2.7419-2.8057l10.298-10.043zm461.51 4.3361 10.107 10.234c-0.93224 0.91266-1.8631 1.84-2.8057 2.742l-9.9156-10.458c0.87623-0.83863 1.7475-1.6705 2.6144-2.5188zm-456.98 0.12747c0.87282 0.8529 1.7321 1.7075 2.6144 2.5506l-9.9475 10.458c-0.94331-0.90137-1.8728-1.8299-2.8057-2.7419l10.139-10.266zm452.39 4.2723 9.9156 10.458c-0.94706 0.89196-1.9123 1.7651-2.8695 2.6463l-9.7243-10.617c0.89543-0.82431 1.792-1.6527 2.6782-2.4869zm-447.8 0.12748c0.88114 0.82829 1.756 1.6683 2.6463 2.4869l-9.7243 10.649c-0.9522-0.87532-1.8954-1.7603-2.8376-2.6463l9.9156-10.49zm443.11 4.2086 9.7243 10.649c-0.96697 0.87598-1.9562 1.7175-2.9332 2.5825l-9.5011-10.84c0.90269-0.79938 1.8163-1.582 2.71-2.3912zm-438.46 0.12747c0.90546 0.81878 1.8273 1.6144 2.7419 2.4231l-9.5011 10.84c-0.98904-0.87424-1.9864-1.7289-2.9651-2.6144l9.7243-10.649zm64.722 2.6144c0.3821-0.0209 0.76902-0.013 1.1478 0 2.5146 0.088 4.9651 0.84604 7.365 2.2637 3.8528 2.276 6.347 5.5838 7.4287 9.7881 1.0811 4.2019 0.51021 8.1999-1.6898 11.924-2.2008 3.7255-5.4524 6.1764-9.6606 7.2693-2.9297 0.75376-5.7772 0.68335-8.5446-0.19129l0.15941-0.25507-2.3593-1.371-0.31883 0.57389c-0.34769-0.17653-0.70775-0.33857-1.0521-0.54201-0.6859-0.40519-1.3141-0.84094-1.913-1.3072l0.28696-0.47824-2.2956-1.4029c-1.6433-1.8179-2.7965-3.9583-3.3796-6.4404-0.96133-4.1343-0.29871-8.1483 1.913-11.892 2.2117-3.7441 5.3937-6.1924 9.4693-7.3331 1.1458-0.32068 2.2971-0.54308 3.4434-0.60578zm369.01 1.4666 9.5011 10.808c-0.98963 0.8624-1.9974 1.6995-2.997 2.5506l-9.3098-11c0.9302-0.79209 1.8845-1.5571 2.8057-2.3594zm-428.99 0.12747c0.92693 0.80619 1.8696 1.5954 2.8057 2.3912l-9.3098 11c-1.0003-0.85035-2.0067-1.689-2.997-2.5506l9.5011-10.84zm362.35 1.7536c1.5413-0.0331 3.0891 0.19704 4.6549 0.63766 4.174 1.1746 7.3837 3.653 9.5011 7.4288 2.1172 3.7756 2.5704 7.8026 1.4028 11.988-0.68779 2.4442-1.8532 4.5588-3.4752 6.3447l-1.626 0.95649 0.2232 0.41447c-0.82377 0.70245-1.7377 1.3498-2.742 1.913-0.0339 0.019-0.0618 0.0449-0.0956 0.0638l-0.38258-0.66955-2.3912 1.3072 0.25506 0.47825c-3.0863 1.107-6.2447 1.185-9.4055 0.22317-4.0544-1.2438-7.182-3.7619-9.3098-7.5563-2.1272-3.7932-2.6548-7.7939-1.5942-11.892 1.0628-4.1068 3.5695-7.319 7.4606-9.5011 2.4388-1.3676 4.9607-2.081 7.5244-2.1362zm-301.17 0.98837c-1.0479-0.0154-2.0998 0.14087-3.1883 0.47824-2.8932 0.90697-5.1605 2.7334-6.823 5.5476-1.6632 2.8154-2.1643 5.6685-1.5623 8.6403 0.61163 2.9702 2.2105 5.2095 4.9419 6.823 2.7304 1.6129 5.5823 1.9933 8.6084 1.1478 3.0279-0.84611 5.305-2.6347 6.9505-5.4201 1.6455-2.7857 2.0913-5.6437 1.371-8.7041-0.71941-3.056-2.3993-5.3355-5.1332-6.9505-1.7104-1.0104-3.4171-1.5366-5.165-1.5623zm362.96 1.2434 9.2779 11c-1.0009 0.83865-1.9864 1.6914-2.997 2.5188l-9.0867-11.191c0.93934-0.76912 1.8751-1.5481 2.8057-2.3274zm-419.26 0.15941c0.9197 0.76896 1.8456 1.5366 2.7738 2.2956l-9.0548 11.223c-1.0166-0.83077-2.0221-1.6766-3.0289-2.5188l9.3098-11zm357.28 1.9449c-1.8024 0.007-3.5281 0.49504-5.2607 1.4666-2.769 1.5528-4.4557 3.775-5.1332 6.7273-0.66847 2.9564-0.229 5.7873 1.371 8.6403 1.6 2.8531 3.7925 4.7357 6.6636 5.7071 2.8719 0.96146 5.6484 0.65995 8.4171-0.89272 2.7683-1.5524 4.5038-3.7806 5.2926-6.823 0.78943-3.0451 0.40197-5.9155-1.1797-8.736-1.5823-2.8215-3.8464-4.6655-6.8548-5.5795-1.1296-0.34318-2.2378-0.51422-3.3158-0.51013zm57.039 1.9449 9.0867 11.159c-1.0251 0.82561-2.026 1.673-3.0608 2.4869l-8.8635-11.35c0.95425-0.75084 1.892-1.5344 2.8376-2.2956zm-409.41 0.12748c0.93979 0.75546 1.8574 1.5503 2.8057 2.2956l-8.8316 11.35c-1.027-0.80675-2.0433-1.6368-3.0608-2.455l9.0867-11.191zm404.44 3.826 8.8635 11.318c-1.0413 0.80596-2.0737 1.629-3.1245 2.4231l-8.6403-11.542c0.96644-0.73071 1.9433-1.4588 2.9014-2.1999zm-399.46 0.0956c0.9668 0.74695 1.926 1.4955 2.9014 2.2318l-8.6403 11.542c-1.0463-0.78963-2.0877-1.5899-3.1245-2.3912l8.8635-11.382zm322.56 1.5623 0.22319 0.44637 12.243 26.59 0.19129 0.47824-0.44636 0.22318-1.7536 0.79708-0.0318-0.0956-2.1362 0.98838-0.1913-0.3826-12.275-26.59-0.19128-0.47825 0.44635-0.22317 3.4434-1.5623 0.47825-0.1913zm-244.45 1.2434c2.0135 0.057 4.0332 0.51833 5.994 1.4028 3.2006 1.4439 5.6727 3.7917 7.3968 6.9505l0.28696 0.51012-0.54201 0.22318-3.2202 1.2116-0.41448 0.15941-0.22317-0.38258c-1.2248-2.2669-2.9056-3.8526-5.0375-4.8143-2.7788-1.2535-5.5396-1.3172-8.449-0.12748-2.9105 1.1902-4.9613 3.228-6.281 6.1534-1.319 2.9239-1.4806 5.8297-0.44635 8.7997 1.0347 2.9716 2.8983 4.9964 5.6752 6.2491 2.288 1.0321 4.6338 1.2214 7.078 0.5739l2.6782-5.9621-4.623-2.1043-0.44637-0.22317 0.1913-0.47825 1.084-2.4231 0.22318-0.44637 0.47824 0.1913 8.5446 3.8578 0.44636 0.22317-0.19129 0.47825-4.5912 10.203-0.0956 0.1913-0.1913 0.0638c-1.1659 0.44101-2.2508 0.72679-3.2521 0.89272-1.9434 0.31961-3.8688 0.28579-5.7389-0.0956l0.15941-0.38259-2.4869-1.084-0.28695 0.66954c-0.24517-0.0967-0.49057-0.17744-0.73331-0.28695-0.84879-0.38289-1.622-0.84552-2.3594-1.3391l0.19131-0.44637-1.9449-0.89272c-1.7933-1.6286-3.1528-3.6677-4.081-6.1215-1.5342-4.0839-1.4507-8.161 0.31884-12.084 1.7687-3.9208 4.7255-6.6847 8.7997-8.2258 2.0359-0.77007 4.0741-1.1412 6.0897-1.084zm316.28 0.9246 8.6403 11.542c-1.0521 0.78213-2.1269 1.5253-3.1883 2.2956l-8.3852-11.669c0.98504-0.71517 1.9566-1.4422 2.9332-2.168zm-389.32 0.12748c0.97733 0.72518 1.9476 1.4535 2.9332 2.168l-8.3852 11.669c-1.062-0.76964-2.1356-1.5141-3.1883-2.2956l8.6403-11.542zm304.51 3.5709c0.5192-0.021 1.0473 0.001 1.5623 0.0318 0.72404 0.032 1.5474 0.19559 2.5188 0.47825l0.41448 0.0956-0.0318 0.41449-0.1913 3.3796-0.0318 0.63767-0.63767-0.1913c-0.71004-0.20944-1.4413-0.33154-2.168-0.41448-1.7068-0.19457-3.088-0.0758-4.2085 0.35071-1.2336 0.48445-2.2011 1.2269-2.9014 2.2318-0.67908 0.95688-0.77701 1.8795-0.35071 2.9651 0.16422 0.41823 0.40379 0.75903 0.70142 1.0522 0.28674 0.26458 0.69964 0.50547 1.2753 0.66955h0.0318l1.4028 0.44635h0.0318c0.25887 0.0687 0.82588 0.1367 1.6579 0.22319 0.43454 0.0421 0.77042 0.0684 1.0203 0.0956 0.23346 0.0254 0.32006 0.0383 0.44635 0.0638 0.009 0.001 0.0226-0.001 0.0318 0l2.1362 0.28695c1.057 0.13742 1.7927 0.25246 2.2318 0.35071 0.006 0.001 0.0258-0.001 0.0318 0l1.7855 0.38259c0.84701 0.18396 1.4896 0.40074 1.9768 0.70144 0.41576 0.24674 0.89606 0.57175 1.4347 0.95649 0.59449 0.40925 1.0729 0.90257 1.4666 1.4985 0.38023 0.57554 0.75489 1.2517 1.0522 2.0086 0.90785 2.3119 0.68955 4.694-0.60578 6.9824-0.59343 1.0484-1.3199 1.9677-2.168 2.7419l-0.35071 0.12748 0.0638 0.12748c-0.88631 0.75193-1.9016 1.3563-3.0289 1.8173l-0.25505-0.63765-2.5188 0.95649 0.15941 0.38258c-1.3134 0.20146-2.6734 0.20257-4.081-0.0318-0.0101-0.001-0.0217 0.001-0.0318 0-1.0132-0.16285-1.9918-0.44235-2.9014-0.86083l-0.31884-0.15943 0.0318-0.35071 0.1913-3.4434 0.0318-0.70144 0.66954 0.25507c0.94366 0.3506 1.8485 0.57259 2.7101 0.73331 2.0359 0.42701 3.5785 0.4102 4.623 0 1.4148-0.55558 2.4287-1.4246 3.0926-2.6144 0.65376-1.1914 0.71862-2.3092 0.22319-3.5709-0.4321-1.1004-1.2-1.9286-2.3912-2.4869-1.215-0.57977-2.5652-0.91022-4.081-1.0521h-0.0318l-4.6868-0.51014c-1.6221-0.19614-3.1187-0.66106-4.4955-1.371h-0.0318c-1.406-0.74809-2.4267-1.8634-2.997-3.3158-0.84061-2.1407-0.59271-4.3561 0.70144-6.4085 1.2833-2.0351 3.1398-3.5112 5.4839-4.4317 1.3546-0.53191 2.7786-0.8311 4.3042-0.89272zm79.676 0.0638 8.3852 11.701c-1.0544 0.75238-2.125 1.4912-3.1883 2.2318l-8.1939-11.86c0.9999-0.69669 2.0053-1.3649 2.997-2.0724zm-379.06 0.12748c0.98945 0.70479 1.9994 1.3784 2.997 2.0724l-8.1939 11.86c-1.0719-0.74551-2.1254-1.5062-3.1883-2.2637l8.3852-11.669zm87.87 2.9651 0.47825 0.1913 3.539 1.3072 0.47825 0.1913-0.19131 0.47825-10.107 27.483-0.1913 0.47825-0.22318-0.0956 0.0318-0.12747-2.5506-0.92461-0.0318 0.0956-1.2434-0.44637-0.47824-0.19129 0.1913-0.47824 10.107-27.483 0.1913-0.47825zm285.96 0.54201 8.1939 11.829c-1.0838 0.74231-2.1592 1.5017-3.2521 2.2318l-7.9708-12.02c1.0131-0.67689 2.0238-1.3526 3.0289-2.0405zm-368.6 0.0956c1.0053 0.68714 2.0155 1.3644 3.0289 2.0405l-7.9708 12.052c-1.0934-0.7294-2.1676-1.4902-3.2521-2.2318l8.1939-11.86zm276.36 2.6782 0.15941 0.47825 9.1185 27.834 0.15941 0.47824-0.47824 0.15941-2.2637 0.76521-0.0318-0.0638-1.7536 0.57388-0.15941-0.41447-9.1185-27.834-0.15942-0.47824 0.47824-0.15941 3.5709-1.1797 0.47825-0.15942zm86.945 0.7652 7.9708 12.02c-1.0921 0.71713-2.1832 1.4313-3.2839 2.1362l-7.7157-12.179c1.0127-0.64873 2.0239-1.3172 3.0289-1.9768zm-358.01 0.0956c1.021 0.66905 2.0319 1.3508 3.0608 2.0086l-7.7157 12.179c-1.103-0.70515-2.1897-1.4506-3.284-2.168l7.9389-12.02zm92.301 0.92461c1.1791-0.0163 2.3678 0.1771 3.5709 0.54201 1.8495 0.56103 3.5645 1.539 5.1332 2.9332v0.0318c0.55845 0.48657 1.1166 1.1402 1.6898 1.9449l0.22318 0.31882-0.25505 0.31883-2.2637 2.5188-0.41448 0.47824-0.38259-0.54201c-0.43405-0.61409-0.89144-1.1814-1.4029-1.6898-1.2153-1.2075-2.4227-1.966-3.5709-2.3274-1.2696-0.38503-2.4271-0.38722-3.6028-0.0318h-0.0318c-1.1331 0.33186-1.8 0.99617-2.1362 2.1043-0.13064 0.43064-0.14564 0.8354-0.0956 1.2434 0.001 0.0101-0.001 0.0215 0 0.0318 0.0653 0.37999 0.26287 0.8314 0.60578 1.3072l0.86084 1.2115c0.16448 0.22432 0.54255 0.65385 1.1478 1.2434 0.30378 0.29168 0.5589 0.53346 0.7333 0.70142 0.16209 0.1561 0.2311 0.21691 0.31883 0.31884h0.0318c0.004 0.006-0.004 0.0268 0 0.0318l1.5304 1.5623h-0.0318c0.74914 0.76814 1.2678 1.2932 1.5623 1.6579l1.1478 1.4347c0.53478 0.65025 0.91159 1.213 1.1159 1.7536h0.0318c0.003 0.007-0.001 0.0246 0 0.0318 0.17074 0.44876 0.33531 0.99142 0.51012 1.5942 0.003 0.0115-0.003 0.0209 0 0.0318 0.20334 0.67061 0.31566 1.3596 0.25506 2.0724-0.0588 0.68979-0.21117 1.4564-0.44635 2.2318-0.72189 2.3798-2.3793 4.1088-4.8143 5.1013-1.5131 0.61669-3.0658 0.86882-4.623 0.79706l0.0956-0.38259-2.6144-0.76518-0.1913 0.70142c-0.032-0.009-0.0638-0.0222-0.0957-0.0318-1.0998-0.33358-2.1352-0.82873-3.0926-1.4666l0.0638-0.22318-0.66955-0.22317c-0.63829-0.48554-1.2475-1.0273-1.8173-1.6579-0.70223-0.76098-1.2924-1.6128-1.7536-2.5188l-0.15941-0.31882 0.22318-0.25506 2.3275-2.5825 0.47824-0.51013 0.35071 0.60578c0.5302 0.87183 1.0598 1.6151 1.626 2.2637v0.0318c1.3299 1.5938 2.5861 2.5098 3.6665 2.8376 1.4602 0.44291 2.7618 0.39317 4.0173-0.12748 1.2526-0.52991 2.0308-1.3849 2.4231-2.6782 0.34264-1.1297 0.23837-2.2339-0.35071-3.4115-0.59596-1.2123-1.4524-2.3316-2.5506-3.3796v-0.0318l-3.3796-3.3158c-1.1505-1.1589-2.0701-2.4158-2.71-3.826v-0.0318c-0.64113-1.4625-0.70626-2.9761-0.25507-4.4636 0.66642-2.1971 2.2062-3.7507 4.4955-4.5593 1.1322-0.3999 2.2953-0.62133 3.4752-0.63765zm170.64 1.1159-0.0638 0.70144-2.7738 30.958-0.0318 0.3826-0.0957 0.0318-0.0318-0.0638-2.6144 0.66955 0.0318 0.0638-1.2753 0.31882-0.35071 0.0638-0.1913-0.28695-17.249-25.825-0.41448-0.60578 0.70144-0.15941 3.6028-0.92461 0.35071-0.0956 0.1913 0.28696 13.455 20.309 2.0405-24.263 0.0318-0.38259 0.35073-0.0956 3.6346-0.92462 0.70142-0.15941zm89.719 1.3072 7.7157 12.179c-1.102 0.69323-2.2054 1.3915-3.3158 2.0724l-7.4925-12.339c1.0358-0.63528 2.0645-1.2665 3.0926-1.913zm-347.3 0.0957c1.0299 0.6466 2.0551 1.3094 3.0926 1.9448l-7.4925 12.307c-1.111-0.68033-2.2133-1.3798-3.3158-2.0724l7.7157-12.179zm99.953 1.5623 0.47824 0.0956 20.851 4.623 0.51013 0.12748-0.0956 0.47824-0.60578 2.7101-0.12747 0.51014-0.47825-0.0957-8.0983-1.8173-5.6433 25.379-0.0956 0.41448-1.8811-0.41448-0.0318 0.0956-2.2956-0.51012-0.47824-0.12747 0.0956-0.47825 5.6752-25.379-8.0983-1.7854-0.51014-0.12748 0.0956-0.47824 0.60578-2.71 0.12748-0.51013zm241.96 1.6579 7.4606 12.339c-1.1123 0.66987-2.2273 1.3192-3.3477 1.9767l-7.2693-12.434c1.0564-0.61994 2.1076-1.2497 3.1564-1.8811zm-336.53 0.12747c1.0447 0.62801 2.1042 1.2326 3.1564 1.8492l-7.2374 12.466c-1.1336-0.66414-2.2544-1.3318-3.3796-2.0086l7.4606-12.307zm223.31 2.1362 0.0956 0.51013 5.3564 28.79 0.0956 0.44637-0.41447 0.0956v0.0318l-0.0957 0.0318-3.3158 0.63765v-0.0638l-0.89272 0.15941-0.0956-0.44635-5.3564-28.79-0.0956-0.51012 0.51013-0.0956 3.6984-0.70142 0.51012-0.0956zm107.73 0.98838 7.2374 12.466c-1.129 0.65031-2.2744 1.2753-3.4115 1.913l-7.0143-12.594c1.0596-0.59438 2.1361-1.1796 3.1883-1.7854zm-325.56 0.0956c1.0562 0.60723 2.1248 1.1897 3.1883 1.7854l-6.9824 12.594c-1.1455-0.64142-2.3061-1.2588-3.4434-1.913l7.2374-12.466zm113.98 0.15941 0.51012 0.0638 3.6984 0.60578 0.47825 0.0956-0.0638 0.51012-4.7187 28.918-0.0638 0.35071-1.6898-0.25507-0.0318 0.12748-2.5506-0.41448-0.47824-0.0956 0.0638-0.51012 4.7506-28.918 0.0956-0.47824zm80.823 2.3594c3.7927-0.11365 7.0952 0.97458 9.8518 3.2521 3.1531 2.5919 4.9743 6.0138 5.452 10.171 0.47774 4.1578-0.5149 7.9207-2.997 11.159-2.4779 3.2494-6.0305 5.1273-10.521 5.6433l-1.5304 0.15942v-0.0638l-2.7101 0.25507v0.12748l-3.4434 0.41447-0.0318-0.25506-1.7536 0.15941-0.0318-0.22318-3.3477-29.077-0.0638-0.51012 0.51012-0.0638 8.9272-1.0202c0.55671-0.064 1.142-0.11106 1.6898-0.12748zm-57.963 0.0638c0.51393 0.001 1.0512 0.0115 1.5942 0.0638 3.495 0.33371 6.5947 1.7432 9.2461 4.1767l0.41448 0.41448-0.44637 0.35071-2.6463 2.1999-0.35071 0.28694-0.31882-0.28694c-1.8927-1.752-3.9877-2.7431-6.3128-2.9651-3.0308-0.28935-5.6636 0.58045-8.0345 2.6463-2.3719 2.0667-3.6803 4.6482-3.9854 7.8432-0.30479 3.1921 0.51705 5.9708 2.455 8.449 1.9376 2.4778 4.3643 3.8234 7.3969 4.1129 2.3873 0.22794 4.5676-0.32142 6.6954-1.6579l0.3826-0.22318 0.28695 0.35071 2.1999 2.6463 0.3826 0.44635-0.51012 0.31884c-1.8807 1.1387-3.8625 1.8718-5.8984 2.1999l0.0318-0.35071-2.71-0.1913-0.0638 0.73331c-0.4083-0.009-0.83099-0.0243-1.2434-0.0638-0.77387-0.0739-1.5072-0.20942-2.2318-0.38259l0.0638-0.60577-2.5825-0.25507c-2.2145-0.9695-4.1678-2.4449-5.8346-4.4636-2.7699-3.3702-4.0119-7.2568-3.6028-11.542 0.40907-4.2844 2.3506-7.8137 5.7071-10.585 2.9376-2.4255 6.2574-3.6757 9.9156-3.6665zm183.17 0.41447 6.9824 12.594c-1.1456 0.63048-2.2898 1.2634-3.4434 1.8811l-6.7592-12.721c1.0771-0.57694 2.1504-1.165 3.2202-1.7536zm-314.46 0.12748c1.0654 0.58517 2.1476 1.1481 3.2202 1.7217l-6.7273 12.721c-1.1623-0.62132-2.3211-1.2468-3.4752-1.8811l6.9824-12.562zm154.54 0.51012c1.944 0.0176 3.8691 0.50098 5.7708 1.4029v-0.0318c0.65578 0.29861 1.3715 0.74456 2.168 1.371l0.31883 0.25507-0.15942 0.38259-1.4347 3.0927-0.28694 0.57388-0.51012-0.38258c-0.58842-0.46623-1.2151-0.89955-1.8492-1.2434-1.5075-0.81714-2.8485-1.2201-4.0491-1.2434-1.3241-0.0115-2.4798 0.31687-3.5071 0.98838-0.98773 0.63363-1.4241 1.4445-1.4347 2.6144-0.004 0.46928 0.0863 0.89507 0.25507 1.2753 0.17504 0.35351 0.47324 0.70121 0.9246 1.0521l1.1797 0.92462c0.22836 0.17453 0.69154 0.49931 1.4347 0.89272 0.38522 0.2004 0.71073 0.33519 0.92461 0.44637 0.1946 0.10111 0.27129 0.15114 0.38259 0.22317 0.0115 0.007 0.0203 0.0236 0.0318 0.0318l1.913 1.0521c0.94141 0.52964 1.5752 0.92342 1.9449 1.1797l1.5304 1.0202c0.71378 0.48525 1.2039 0.96747 1.5304 1.4028h0.0318c0.004 0.006-0.004 0.0258 0 0.0318 0.2868 0.37661 0.60434 0.8184 0.95649 1.371 0.39948 0.60356 0.68649 1.2762 0.82896 1.9768 0.1377 0.67699 0.19844 1.3913 0.1913 2.1999-0.0225 2.482-1.0971 4.6411-3.1564 6.281-0.90507 0.72073-1.8749 1.2645-2.9013 1.6579h-1.6898v0.47825c-0.79452 0.16299-1.6057 0.26273-2.455 0.25506-0.33945-0.003-0.68439-0.0327-1.0203-0.0638v-0.70143l-2.7101-0.0318v0.15943c-0.87934-0.29776-1.7385-0.69352-2.5825-1.2116-0.89251-0.53507-1.6989-1.1792-2.3912-1.913l-0.2232-0.25506 0.12748-0.31884 1.4666-3.1564 0.31883-0.63765 0.51012 0.47824c0.75223 0.68538 1.5035 1.2892 2.2318 1.7536 1.7244 1.1545 3.1765 1.6796 4.3042 1.6898 1.5219 0.0144 2.7642-0.38724 3.826-1.2434 1.0529-0.86142 1.55-1.9001 1.5623-3.2521 0.0101-1.1807-0.40762-2.1895-1.3072-3.1564-0.91238-0.99449-2.0297-1.8537-3.3796-2.5506h-0.0318l-4.1448-2.2318c-1.4312-0.78848-2.6548-1.7915-3.6666-2.9651-1.0255-1.2209-1.5445-2.6224-1.5304-4.1767 0.0207-2.2946 1.0578-4.2531 3.0289-5.6752 1.9516-1.408 4.2092-2.0952 6.7273-2.0724zm154.31 2.3912 6.7592 12.721c-1.1572 0.60776-2.3103 1.2225-3.4752 1.8173l-6.5041-12.849c1.0814-0.55239 2.1458-1.1258 3.2202-1.6898zm-303.21 0.0956c1.0721 0.56186 2.1411 1.1396 3.2202 1.6898l-6.4722 12.849c-1.1737-0.59819-2.3414-1.206-3.5071-1.8173l6.7592-12.721zm182.18 0.35071c-0.45945 0.0207-0.93583 0.0702-1.4347 0.12747l-3.0608 0.35072 2.5825 22.573 3.0608-0.35073c1.9858-0.22817 3.6819-0.66384 5.1013-1.3391 1.4412-0.68561 2.5304-1.461 3.284-2.2956 0.76838-0.86547 1.3445-1.8588 1.7536-2.9651 0.42952-1.1276 0.69275-2.1619 0.76519-3.0926 0.0858-0.97006 0.0544-1.9691-0.0638-2.997-0.11811-1.0274-0.30379-1.9894-0.60576-2.9014-0.28489-0.90832-0.76257-1.8715-1.4348-2.8695-0.64575-0.97922-1.4445-1.7967-2.3912-2.455-0.92457-0.65436-2.1646-1.1415-3.7303-1.4666-1.158-0.25313-2.4342-0.38148-3.826-0.31884zm115.38 2.455 6.4722 12.849c-1.165 0.58311-2.3346 1.1834-3.5071 1.7536l-6.2491-13.008c1.0942-0.53228 2.1966-1.0501 3.284-1.5942zm-291.92 0.0956c1.0833 0.54106 2.162 1.0648 3.2521 1.5942l-6.2172 13.008c-1.173-0.56941-2.3417-1.1712-3.5071-1.7536l6.4722-12.849zm286.18 2.6782 6.281 13.008c-1.1861 0.56516-2.3773 1.1061-3.5709 1.6579l-6.03-13.18c1.1082-0.51236 2.2144-1.006 3.3158-1.5304zm-280.47 0.0956c1.0979 0.52179 2.2113 1.0205 3.3158 1.5304l-5.994 13.136c-1.1854-0.54704-2.361-1.0977-3.539-1.6579l6.2172-13.008zm274.74 2.5825 5.994 13.136c-1.1944 0.5406-2.4011 1.067-3.6028 1.5941l-5.7389-13.263c1.1136-0.48876 2.2407-0.96583 3.3477-1.4666zm-268.97 0.0957c1.1074 0.50001 2.2338 0.97861 3.3477 1.4666l-5.739 13.231c-1.198-0.52471-2.412-1.0242-3.6028-1.5623l5.994-13.136zm263.1 2.455 5.7708 13.263c-1.2092 0.51903-2.4183 1.025-3.6347 1.5304l-5.4839-13.359c1.1211-0.46603 2.233-0.95662 3.3477-1.4347zm-257.26 0.0956c1.1113 0.47587 2.2301 0.939 3.3477 1.4029l-5.452 13.359c-1.2171-0.50482-2.4247-1.0119-3.6347-1.5304l5.7389-13.231zm251.4 2.3594 5.5158 13.359c-1.219 0.49519-2.4405 0.98517-3.6665 1.4666l-5.2288-13.455c1.1335-0.44533 2.2523-0.91337 3.3796-1.371zm-245.53 0.0956c1.1238 0.4554 2.2496 0.89586 3.3796 1.3391l-5.1969 13.487c-1.2262-0.48064-2.4472-0.97225-3.6665-1.4666l5.4839-13.359zm239.63 2.2318 5.2288 13.487c-1.2142 0.46568-2.4457 0.91882-3.6666 1.371l-4.9738-13.55c1.1436-0.42362 2.274-0.87119 3.4115-1.3072zm-233.7 0.0957c1.1344 0.43393 2.2711 0.85368 3.4115 1.2753l-4.9737 13.582c-1.2246-0.45261-2.4487-0.93663-3.6666-1.4028l5.2288-13.455zm227.74 2.1362 4.9738 13.55c-1.2346 0.44602-2.4572 0.90692-3.6984 1.3391l-4.7187-13.678c1.1495-0.40035 2.2998-0.79877 3.4434-1.2116zm-221.78 0.0638c1.1345 0.4087 2.2712 0.81509 3.4115 1.2116l-4.6868 13.678c-1.2379-0.43016-2.467-0.86322-3.6984-1.3072l4.9738-13.582zm215.78 2.0405 4.6868 13.678c-1.2354 0.419-2.4886 0.80638-3.7303 1.2116l-4.4318-13.742c1.1572-0.37777 2.3238-0.75748 3.4753-1.1478zm-209.79 0.0638c1.1558 0.39097 2.3136 0.76944 3.4752 1.1478l-4.4317 13.742c-1.2324-0.4013-2.4723-0.79665-3.6984-1.2116l4.6549-13.678zm203.73 1.913 4.4318 13.742c-1.2537 0.39801-2.5022 0.79581-3.7622 1.1797l-4.1448-13.837c1.1602-0.3538 2.3206-0.71769 3.4752-1.084zm-197.71 0.0638c1.1666 0.36932 2.3349 0.72748 3.5071 1.084l-4.1448 13.837c-1.2601-0.38308-2.5083-0.78246-3.7622-1.1797l4.3998-13.742zm191.65 1.7854 4.1448 13.837c-1.2474 0.36922-2.5089 0.72873-3.7622 1.084l-3.8897-13.869c1.1759-0.33355 2.3366-0.7058 3.5071-1.0521zm-185.56 0.0638c1.1802 0.34829 2.3533 0.71686 3.539 1.0521l-3.8897 13.869c-1.2638-0.35732-2.5362-0.71254-3.7941-1.084l4.1448-13.837zm179.44 1.6898 3.8897 13.901c-1.2721 0.3496-2.5479 0.68504-3.826 1.0202l-3.6028-13.965c1.1854-0.31116 2.359-0.63239 3.539-0.95649zm-173.28 0.0638c1.1661 0.31929 2.3358 0.64984 3.5071 0.95649l-3.6028 13.965c-1.2681-0.33177-2.5318-0.67433-3.7941-1.0202l3.8897-13.901zm167.13 1.5623 3.5709 13.997c-1.2581 0.31915-2.5304 0.61947-3.7941 0.92461l-3.3158-14.029c1.1813-0.28553 2.3628-0.59439 3.539-0.89272zm-161.01 0.0638c1.1741 0.29701 2.3598 0.57658 3.539 0.86084l-3.3158 14.029c-1.2641-0.30446-2.5355-0.60611-3.7941-0.9246l3.5709-13.965zm154.82 1.4666 3.3158 14.029c-1.2705 0.296-2.55 0.57907-3.826 0.86084l-3.0608-14.092c1.1916-0.26335 2.3842-0.52073 3.5709-0.79706zm-148.64 0.0638c1.1845 0.27503 2.3815 0.50306 3.5709 0.76519l-3.0608 14.092c-1.2761-0.28101-2.5553-0.56559-3.826-0.86083l3.3158-13.997zm142.42 1.3072 3.0608 14.092c-1.2752 0.27093-2.5456 0.54043-3.826 0.79708l-2.7738-14.124c1.1868-0.23812 2.357-0.51426 3.539-0.76519zm-136.2 0.0318c1.1926 0.25241 2.3736 0.52582 3.5709 0.76519l-2.7738 14.124c-1.2886-0.2574-2.5745-0.49333-3.8578-0.76519l3.0608-14.124zm129.99 1.2434 2.7738 14.124c-1.2979 0.24932-2.5866 0.49873-3.8897 0.73331l-2.4869-14.188c1.2032-0.2169 2.4042-0.43951 3.6028-0.66954zm-123.77 0.0638c1.1968 0.22891 2.4014 0.42185 3.6028 0.63765l-2.4869 14.188c-1.2931-0.23199-2.5699-0.48678-3.8578-0.73331l2.7419-14.092zm117.49 1.084 2.5188 14.188c-1.292 0.22204-2.5928 0.43019-3.8897 0.63766l-2.1999-14.252c1.1889-0.19058 2.3863-0.37052 3.5709-0.57389zm-111.21 0.0318c1.185 0.20271 2.3815 0.38397 3.5709 0.57389l-2.1999 14.252c-1.2866-0.20506-2.5761-0.41828-3.8578-0.63766l2.4869-14.188zm6.2491 0.98837c1.2145 0.18359 2.4158 0.37182 3.6347 0.54201l-1.9449 14.284c-1.3012-0.18146-2.5933-0.37782-3.8897-0.5739l2.1999-14.252zm98.71 0 2.1999 14.22c-1.2861 0.19528-2.567 0.39302-3.8578 0.57389l-1.9449-14.284c1.2066-0.16933 2.4004-0.32765 3.6028-0.51013zm-6.3128 0.89273 1.9449 14.252c-1.2947 0.17089-2.5904 0.35379-3.8897 0.51013l-1.6898-14.315c1.2109-0.14586 2.4279-0.28731 3.6347-0.44636zm-86.084 0.0318c1.195 0.15677 2.4038 0.27064 3.6028 0.41448l-1.6579 14.315c-1.2984-0.15548-2.5959-0.30822-3.8897-0.47825l1.9449-14.252zm79.771 0.70142 1.6579 14.315c-1.2925 0.14509-2.5929 0.31578-3.8897 0.44637l-1.371-14.347c1.2042-0.12157 2.4025-0.27989 3.6028-0.41448zm-73.458 0.0318c1.2101 0.13497 2.4206 0.26087 3.6346 0.38259l-1.371 14.379c-1.3077-0.13079-2.6183-0.30083-3.9216-0.44637l1.6579-14.315zm67.146 0.60578 1.371 14.379c-1.3101 0.12142-2.6072 0.24415-3.9216 0.35071l-1.1159-14.411c1.2251-0.0995 2.4454-0.20579 3.6666-0.31882zm-60.801 0.0318c1.2104 0.1112 2.4205 0.22088 3.6347 0.31882l-1.1159 14.379c-1.3032-0.10487-2.5907-0.19931-3.8897-0.31884l1.371-14.379zm54.456 0.51012 1.1159 14.379c-1.299 0.0951-2.6186 0.17453-3.9216 0.25505l-0.82895-14.379c1.2097-0.075 2.4286-0.16693 3.6346-0.25507zm-48.111 0.0318c1.1956 0.0866 2.4036 0.14951 3.6028 0.22317l-0.82895 14.379c-1.2932-0.0792-2.6004-0.16152-3.8897-0.25507l1.1159-14.347zm6.3128 0.3826c1.2168 0.0647 2.4463 0.10817 3.6666 0.15941l-0.57389 14.411c-1.3108-0.0549-2.6147-0.12157-3.9216-0.1913l0.82896-14.379zm35.454 0 0.82895 14.379c-1.3071 0.0704-2.6106 0.13568-3.9216 0.1913l-0.57389-14.411c1.2209-0.052 2.4491-0.0941 3.6666-0.15941zm-6.3766 0.25505 0.57391 14.411c-1.3015 0.0449-2.6165 0.0971-3.9216 0.12748l-0.28694-14.411c1.2173-0.0285 2.4207-0.0857 3.6346-0.12748zm-22.701 0.0318c1.2128 0.0411 2.4185 0.0678 3.6347 0.0956l-0.25506 14.411c-1.3156-0.0298-2.6416-0.051-3.9535-0.0956l0.57388-14.411zm6.3447 0.15943c1.2119 0.0179 2.4196 0.0272 3.6347 0.0318l0.0318 14.411c-1.3112-0.006-2.6139-0.013-3.9216-0.0318l0.25506-14.411zm9.1185 0c0.29593-0.004 0.59696 0.004 0.89272 0l0.25507 14.411c-1.2969 0.02-2.5894 0.0264-3.8897 0.0318v-14.411c0.91787-0.004 1.8259-0.0203 2.742-0.0318z"/>
    <text id="text3922" style="word-spacing:0px;letter-spacing:0px" line-height="120.00000477%" transform="translate(928.57)" font-size="24px" y="55.459078" x="987.05234" font-family="Sans" xml:space="preserve" fill="#ffffff">STRATEGIC HOMELAND INTERVENTION ENFORCEMENT</text>
  </g>
  <metadata>
    <rdf:RDF>
      <cc:Work>
        <dc:format>image/svg+xml</dc:format>
        <dc:type rdf:resource="http://purl.org/dc/dcmitype/StillImage"/>
        <cc:license rdf:resource="http://creativecommons.org/licenses/publicdomain/"/>
        <dc:publisher>
          <cc:Agent rdf:about="http://openclipart.org/">
            <dc:title>Openclipart</dc:title>
          </cc:Agent>
        </dc:publisher>
        <dc:title>S.H.I.E.L.D. logo</dc:title>
        <dc:date>2013-11-13T09:02:40</dc:date>
        <dc:description>Logo from Marvel's Agents of S.H.I.E.L.D.</dc:description>
        <dc:source>http://openclipart.org/detail/188711/s.h.i.e.l.d.-logo-by-ra100-188711</dc:source>
        <dc:creator>
          <cc:Agent>
            <dc:title>Ra100</dc:title>
          </cc:Agent>
        </dc:creator>
        <dc:subject>
          <rdf:Bag>
            <rdf:li>S.H.I.E.L.D.</rdf:li>
            <rdf:li>shield</rdf:li>
            <rdf:li>logo</rdf:li>
            <rdf:li>marvel</rdf:li>
            <rdf:li>eagle</rdf:li>
          </rdf:Bag>
        </dc:subject>
      </cc:Work>
      <cc:License rdf:about="http://creativecommons.org/licenses/publicdomain/">
        <cc:permits rdf:resource="http://creativecommons.org/ns#Reproduction"/>
        <cc:permits rdf:resource="http://creativecommons.org/ns#Distribution"/>
        <cc:permits rdf:resource="http://creativecommons.org/ns#DerivativeWorks"/>
      </cc:License>
    </rdf:RDF>
  </metadata>
</svg>
