<?xml version="1.0"?>
<svg xmlns:rdf="http://www.w3.org/1999/02/22-rdf-syntax-ns#" xmlns="http://www.w3.org/2000/svg" xmlns:cc="http://web.resource.org/cc/" xmlns:dc="http://purl.org/dc/elements/1.1/" xmlns:sodipodi="http://inkscape.sourceforge.net/DTD/sodipodi-0.dtd" xmlns:svg="http://www.w3.org/2000/svg" id="svg2" height="841.89pt" sodipodi:version="0.32" width="595.28pt" sodipodi:docname="emule.svg" sodipodi:docbase="/mnt/trabalho/logos/meus/emule">
  <sodipodi:namedview id="base" bordercolor="#666666" borderopacity="1.0" pagecolor="#ffffff"/>
  <g id="g7216" transform="matrix(19.714 0 0 19.714 -6671.9 -9724.2)">
    <path id="path2088" d="m353.95 514.91c-0.55-0.01-1.42 0.76-1.91 1.19-0.55 0.48-0.65 0.94-0.95 1.55-0.28 0.56-0.24 1.14-0.24 1.78 0 0.72 0.21 1.19 0.36 1.67 0.22 0.73 0.61 0.93 0.95 1.31 0.16 0.18 1.19 0.29 1.43 0.36 0.56 0.17 0.96 0.41 1.43 0.6 0.59 0.23 0.73 0.48 1.19 0.83 0.63 0.47 0.55 0.29 1.31 0.59 1.04 0.42 1.28-0.88 1.55-1.42 0.34-0.69 0.12-1.88 0.12-2.63 0-0.76-0.16-1.24-0.36-1.9-0.18-0.59-0.85-1.27-1.19-1.79-0.34-0.51-0.97-1.04-1.31-1.43-0.39-0.44-1.16-0.47-1.55-0.59-0.27-0.08-0.56-0.08-0.83-0.12z" style="color:#000000" fill="#ffca88" fill-rule="evenodd"/>
    <path id="path7212" d="m353.95 514.91c-0.55-0.01-1.42 0.76-1.91 1.19-0.55 0.48-0.65 0.94-0.95 1.55-0.28 0.56-0.24 1.14-0.24 1.78 0 0.72 0.21 1.19 0.36 1.67 0.22 0.73 0.61 0.93 0.95 1.31 0.16 0.18 1.19 0.29 1.43 0.36 0.56 0.17 0.96 0.41 1.43 0.6 0.59 0.23 0.73 0.48 1.19 0.83 0.63 0.47 0.55 0.29 1.31 0.59 1.04 0.42 1.28-0.88 1.55-1.42 0.34-0.69 0.12-1.88 0.12-2.63 0-0.76-0.16-1.24-0.36-1.9-0.18-0.59-0.85-1.27-1.19-1.79-0.34-0.51-0.97-1.04-1.31-1.43-0.39-0.44-1.16-0.47-1.55-0.59-0.27-0.08-0.56-0.08-0.83-0.12z" style="color:#000000" fill-rule="evenodd" fill-opacity=".077586"/>
    <path id="path2826" d="m350.48 522.42c-0.55 0-1.42 0.76-1.91 1.2-0.55 0.48-0.65 0.93-0.95 1.54-0.28 0.57-0.24 1.14-0.24 1.79 0 0.71 0.21 1.19 0.36 1.67 0.22 0.73 0.61 0.92 0.95 1.31 0.16 0.18 1.19 0.28 1.43 0.35 0.56 0.17 0.96 0.41 1.43 0.6 0.59 0.24 0.73 0.49 1.19 0.83 0.63 0.48 0.56 0.3 1.31 0.6 1.04 0.42 1.28-0.89 1.55-1.43 0.34-0.68 0.12-1.87 0.12-2.62 0-0.77-0.16-1.25-0.36-1.91-0.18-0.59-0.84-1.26-1.19-1.78-0.34-0.52-0.97-1.04-1.31-1.43-0.39-0.44-1.16-0.48-1.55-0.6-0.27-0.08-0.55-0.08-0.83-0.12z" style="color:#000000" fill="#ffca88" fill-rule="evenodd"/>
    <path id="path2834" d="m372.87 525.29c-0.08-0.29-0.36-0.97-0.55-1.4s-0.42-0.86-0.62-1.27c-0.19-0.39-0.38-0.49-0.69-0.77-0.33-0.3-0.6-0.5-0.96-0.71-0.32-0.18-0.7-0.34-0.96-0.49-0.26-0.14-0.75-0.19-1.03-0.28-0.3-0.09-0.79 0-1.1 0h-2.13c-0.39 0-0.69 0.07-1.03 0.14-0.38 0.08-0.7 0.21-1.03 0.35-0.37 0.15-0.66 0.4-0.9 0.57-0.33 0.22-0.55 0.46-0.89 0.77-0.31 0.28-0.52 0.63-0.76 0.98-0.24 0.37-0.32 0.73-0.48 1.13-0.2 0.52-0.22 1.06-0.27 1.61-0.05 0.56 0 1.14 0 1.69 0 0.56 0.05 1.05 0.14 1.55 0.12 0.71 0.35 1.33 0.48 2.04 0.08 0.49 0.35 0.89 0.55 1.26 0.21 0.4 0.85 0.78 1.17 1.06 0.44 0.4 0.93 0.62 1.44 0.91 0.56 0.32 1.31 0.38 1.92 0.49 0.71 0.14 1.39 0.07 2.06-0.07 0.66-0.13 1.38-0.67 1.99-0.98 0.76-0.39 1.4-0.9 2.07-1.34 0.57-0.37 0.76-0.95 1.03-1.54 0.36-0.81 0.46-1.69 0.75-2.46 0.19-0.51 0.11-1.25 0.21-1.76 0.06-0.34 0.07-0.68 0.07-1.06 0-0.04-0.2-0.33-0.21-0.35" fill="#ffca88" fill-rule="evenodd"/>
    <path id="path6484" d="m372.87 525.29c-0.08-0.29-0.36-0.97-0.55-1.4s-0.42-0.86-0.62-1.27c-0.19-0.39-0.38-0.49-0.69-0.77-0.33-0.3-0.6-0.5-0.96-0.71-0.32-0.18-0.7-0.34-0.96-0.49-0.26-0.14-0.75-0.19-1.03-0.28-0.3-0.09-0.79 0-1.1 0h-2.13c-0.39 0-0.69 0.07-1.03 0.14-0.38 0.08-0.7 0.21-1.03 0.35-0.37 0.15-0.66 0.4-0.9 0.57-0.33 0.22-0.55 0.46-0.89 0.77-0.31 0.28-0.52 0.63-0.76 0.98-0.24 0.37-0.32 0.73-0.48 1.13-0.2 0.52-0.22 1.06-0.27 1.61-0.05 0.56 0 1.14 0 1.69 0 0.56 0.05 1.05 0.14 1.55 0.12 0.71 0.35 1.33 0.48 2.04 0.08 0.49 0.35 0.89 0.55 1.26 0.21 0.4 0.85 0.78 1.17 1.06 0.44 0.4 0.93 0.62 1.44 0.91 0.56 0.32 1.31 0.38 1.92 0.49 0.71 0.14 1.39 0.07 2.06-0.07 0.66-0.13 1.38-0.67 1.99-0.98 0.76-0.39 1.4-0.9 2.07-1.34 0.57-0.37 0.76-0.95 1.03-1.54 0.36-0.81 0.46-1.69 0.75-2.46 0.19-0.51 0.11-1.25 0.21-1.76 0.06-0.34 0.07-0.68 0.07-1.06 0-0.04-0.2-0.33-0.21-0.35" fill-rule="evenodd" fill-opacity=".077586"/>
    <path id="path7214" d="m350.48 522.42c-0.55 0-1.42 0.76-1.91 1.2-0.55 0.48-0.65 0.93-0.95 1.54-0.28 0.57-0.24 1.14-0.24 1.79 0 0.71 0.21 1.19 0.36 1.67 0.22 0.73 0.61 0.92 0.95 1.31 0.16 0.18 1.19 0.28 1.43 0.35 0.56 0.17 0.96 0.41 1.43 0.6 0.59 0.24 0.73 0.49 1.19 0.83 0.63 0.48 0.56 0.3 1.31 0.6 1.04 0.42 1.28-0.89 1.55-1.43 0.34-0.68 0.12-1.87 0.12-2.62 0-0.77-0.16-1.25-0.36-1.91-0.18-0.59-0.84-1.26-1.19-1.78-0.34-0.52-0.97-1.04-1.31-1.43-0.39-0.44-1.16-0.48-1.55-0.6-0.27-0.08-0.55-0.08-0.83-0.12z" style="color:#000000" fill-rule="evenodd" fill-opacity=".077586"/>
    <path id="path1321" fill="#d28c4c" d="m342.15 531.58c0.07-2.61 0.38-5.2 0.68-5.75s0.5-3.32 0.44-6.17c-0.06-2.84 0.24-4.95 0.67-4.69s0.78-0.84 0.78-2.44c0-3.8 3.47-8.2 6.47-8.2 1.85 0 2.23 0.42 1.81 2-0.62 2.4-0.51 2.41 4.06 0.5 3.82-1.6 13.66-2.07 13.66-0.65 0 1.47-3.42 4.01-8.33 6.18l-4.76 2.1 3.59 2.44c1.97 1.34 4.48 2.43 5.59 2.43 3.47 0 6.91 4.42 6.91 8.88 0 6.72-6.64 10.07-13.63 6.88-2.16-0.98-2.8-0.98-3.13 0-0.28 0.84-2.79 1.24-7.68 1.24h-7.27l0.14-4.75zm29.76-0.77c0.92-2.03 0.82-3.21-0.51-6-1.71-3.6-4.54-4.51-7.68-2.48-1.17 0.76-0.9 0.98 1.25 0.99 3.22 0.02 3.52 1.04 0.82 2.74-1.51 0.94-2.05 0.93-2.48-0.01-0.3-0.67-0.45-0.32-0.34 0.78s-0.14 2.53-0.55 3.18c-1.12 1.8 1.16 2.67 3.03 1.16 0.95-0.77 1.35-0.84 0.95-0.17-0.69 1.15 0.61 2.1 3.09 2.25 0.7 0.05 1.79-1.05 2.42-2.44zm-21.19-5.48c0-0.55-0.45-1-1-1s-1 0.45-1 1 0.45 1 1 1 1-0.45 1-1zm6.65-4.5c0.76-1.64 0.81-2.71 0.15-3.11-1.48-0.92-4.17 2.21-3.47 4.04 0.86 2.25 1.99 1.93 3.32-0.93z"/>
    <path id="path1319" fill="#c77732" d="m342.15 531.49c0.07-2.56 0.38-5.11 0.68-5.66s0.5-3.32 0.44-6.17c-0.06-2.84 0.24-4.95 0.67-4.69s0.78-0.84 0.78-2.44c0-3.8 3.47-8.2 6.47-8.2 1.85 0 2.23 0.42 1.81 2-0.62 2.4-0.51 2.41 4.06 0.5 3.82-1.6 13.66-2.07 13.66-0.65 0 1.47-3.42 4.01-8.33 6.18l-4.76 2.1 3.59 2.44c1.97 1.34 4.48 2.43 5.59 2.43 3.47 0 6.91 4.42 6.91 8.88 0 6.67-6.64 10.07-13.53 6.93-1.74-0.79-2.85-0.85-3.3-0.18-0.37 0.56-3.87 1.05-7.78 1.1l-7.1 0.08 0.14-4.65zm23.44 1.09c-1.24-1.57-1.2-1.61 0.32-0.42 0.93 0.73 2.73 1.18 4 1 1.86-0.26 2.36-1.04 2.61-4.03 0.41-4.91-1.11-7.49-4.91-8.32-4.15-0.91-5.88 0.95-6.47 6.93-0.55 5.67-0.1 6.59 3.26 6.59 2.29 0 2.42-0.18 1.19-1.75zm-1.37-8.25c-0.34-0.55 0.05-1 0.88-1 0.82 0 1.78 0.45 2.12 1s-0.06 1-0.89 1c-0.82 0-1.77-0.45-2.11-1zm-10.24 3.61c-0.5-2.6-3.71-6.61-5.28-6.61-1.43 0-2.39 5-1.2 6.19 1.49 1.49 5.6 3.55 6.33 3.18 0.34-0.18 0.41-1.42 0.15-2.76zm3.95-4.45c-1.77-1.13-0.38-4.43 1.56-3.69 1.25 0.48 1.29 0.32 0.24-0.94-1.57-1.9-4.4-1.97-5.91-0.15-1.42 1.7-0.49 4.36 1.73 4.95 2.82 0.75 3.73 0.68 2.38-0.17zm-6.21-9.32c0-0.65 0.28-0.89 0.62-0.54 0.67 0.67 5.9-1.71 8.38-3.81 0.82-0.71 2.4-1.5 3.5-1.76s0.2-0.47-2-0.46-5.35 0.68-7 1.49c-5.54 2.73-8.35 6.24-5 6.24 0.82 0 1.5-0.52 1.5-1.16zm-2.88-6.59c1.25-1.58 1.21-1.62-0.37-0.37-0.97 0.75-1.75 1.54-1.75 1.75 0 0.82 0.82 0.29 2.12-1.38z"/>
    <path id="path1317" fill="#b4682a" d="m342.15 531.58c-0.03-4.27 1.65-8.43 1.06-12.72-0.02-1.84 0.43-3.71 1.41-5.28 0.09-2.72 0.87-5.55 2.95-7.43 1.16-1.12 2.72-1.91 4.36-1.89 1.78 0.46 0.38 4.59 2.93 3.44 3.66-1.68 7.71-2.38 11.72-2.33 1.47-0.43 4.5 0.25 3.32 2.28-1.19 1.82-3.4 2.49-5.18 3.57-2.32 1.17-4.7 2.21-7.09 3.24 3.12 2.08 6.22 4.69 10.11 5 5.73 1.73 8.01 10.02 3.83 14.37-2.95 3.11-8.02 3.15-11.6 1.14-1.93-1.21-3.48 0.76-5.09 1.23-2.12 0.05-3.83-1.78-5.99-1.46-1.89 0.27-3.48 2.34-5.52 1.4-1.85-0.9-1.18-2.97-1.22-4.56zm23.44 1c0.4-1.35 2.15 1.06 3.21 0.67 2.02 0.23 3.74-1.48 3.67-3.46 0.22-1.99 0.07-4.06-0.55-5.96-1.39-2.45-4.48-3.5-7.17-3.29-2.3 0.43-3.86 2.74-6.26 2.79-2.15-0.2-1.9-3.52 0.22-3.45 1.17 0.06 1.74-0.99 0.5-1.56-1.42-1.23-3.84-1.26-5.08 0.25-1.21 1.17-2.5-0.63-1.44-1.63-0.55-1.99-3.71 0.47-1.82 1.65 0.89 1.88-1.63 2.77-2.88 1.62-1.69 0.2-1.85 2.35-2.26 3.66-0.44 2.11 0.31 4.6 2.34 5.62 1.62 0.91 3.47 1.57 5.33 1.61 1.99-0.16 3.88-2.43 2.89-4.36-1.07-1.75 0.87-3.62 2.48-2.26 1.78 0.77 3.06 2.92 2.24 4.81-0.45 1.64-0.3 3.89 1.46 4.69 1.02 0.96 4.47 0.53 3.12-1.4zm-1.37-8.25c-0.07-2.71 4.43 0.72 1.54 0.95-0.63-0.07-1.12-0.52-1.54-0.95zm-6.83-11.42c3.05-1.25 6.26-2.36 8.8-4.54-0.9-1.98-3.3-0.76-4.91-0.81-5.27 0.31-10.68 3.06-13.11 7.91-1.15 0.53-0.71 3.13 0.55 1.48 2.69-1.74 5.71-2.86 8.67-4.04zm-7.71-5.95c-1.71-0.7-4.05 2.85-1.75 3.1 1.13-0.57 1.07-2.16 1.75-3.1z"/>
    <path id="path1315" fill="#914b19" d="m342.15 531.58c0.07-2.61 0.38-5.2 0.68-5.75s0.5-3.32 0.44-6.17c-0.06-2.84 0.24-4.95 0.67-4.69s0.78-0.84 0.78-2.44c0-3.8 3.47-8.2 6.47-8.2 1.85 0 2.23 0.42 1.81 2-0.62 2.4-0.51 2.41 4.06 0.5 3.82-1.6 13.66-2.07 13.66-0.65 0 1.47-3.42 4.01-8.33 6.18l-4.76 2.1 3.59 2.44c1.97 1.34 4.48 2.43 5.59 2.43 3.47 0 6.91 4.42 6.91 8.88 0 6.67-6.64 10.07-13.53 6.93-2.08-0.95-2.78-0.93-3.42 0.1-0.61 0.99-1.29 1.03-2.86 0.2-2.57-1.38-8.19-1.45-8.19-0.11 0 0.55-0.84 1-1.86 1-1.56 0-1.83-0.74-1.71-4.75zm24.03 1.71c-1.84-2.03-1.83-2.03 1.04-0.54 2.1 1.09 3.24 1.21 4.19 0.42 1.67-1.39 1.69-7.93 0.03-10.2-1.58-2.16-8.45-3.89-9.39-2.36-0.39 0.62-1 0.16-1.47-1.11-0.98-2.64-4.41-2.85-7.89-0.49l-2.47 1.68 1.9-2.18c1.89-2.16 1.89-2.18-0.5-2.26l-2.4-0.09 2.5-0.8c5.66-1.82 16.46-6.92 16.8-7.94 0.54-1.62-5.72-1.34-11.13 0.51-5.84 1.99-10.13 6.98-11.73 13.65-1.07 4.45-0.99 5.21 0.78 7.6 2.63 3.54 7.58 4.05 11.46 1.17l2.88-2.13-0.64 2.55c-0.52 2.06-0.18 2.73 1.72 3.49 1.29 0.52 3.21 0.97 4.26 1.01 1.85 0.06 1.86 0.01 0.06-1.98zm-0.96-8.96c-0.34-0.55-0.17-1 0.38-1s1.28 0.45 1.62 1 0.16 1-0.39 1-1.27-0.45-1.61-1zm-7.77-1.6c-0.8-0.8 0.25-3.4 1.37-3.4 0.49 0 0.9 0.9 0.9 2 0 1.95-1.07 2.61-2.27 1.4zm-7.73-14.14c0-2.11-0.24-2.31-1.5-1.26-0.83 0.69-1.5 2.37-1.5 3.75 0 2.11 0.23 2.3 1.5 1.25 0.82-0.68 1.5-2.37 1.5-3.74z"/>
    <path id="path1313" fill="#6d2f0a" d="m342.15 531.58c0.07-2.61 0.38-5.2 0.68-5.75s0.5-3.32 0.44-6.17c-0.06-2.84 0.24-4.95 0.67-4.69s0.78-0.84 0.78-2.44c0-3.8 3.47-8.2 6.47-8.2 1.85 0 2.23 0.42 1.81 2-0.62 2.4-0.51 2.41 4.06 0.5 3.82-1.6 13.66-2.07 13.66-0.65 0 2.25-13.59 9.79-16.13 8.94-0.66-0.22 1.53-1.4 4.88-2.62s7.13-3.09 8.41-4.16l2.34-1.94-5-0.01c-10.03-0.02-17.49 5.72-19.53 15.03-1.87 8.57 1.37 12.39 10 11.79 1.94-0.13 4.51 0.29 5.71 0.94s3.39 1.18 4.86 1.18h2.68l-2.36-2.06-2.36-2.06 2.75 1.68c3.69 2.25 5.75 0.57 5.75-4.68 0-4.44-2.72-7.87-6.25-7.88-1.24-0.01-3.57-0.88-5.18-1.94-2.71-1.78-3.22-1.82-6.5-0.45-2.99 1.24-3.33 1.25-2.07 0.06 2.68-2.55 6.53-2.82 9.28-0.66 1.39 1.1 3.49 1.99 4.67 1.99 3.59 0 7.05 4.35 7.05 8.88 0 6.72-6.64 10.07-13.63 6.88-2.18-0.99-2.8-0.98-3.14 0.05-0.28 0.81-0.85 0.95-1.58 0.36-0.64-0.5-2.5-1.13-4.15-1.4s-3.75-0.81-4.66-1.2c-1.18-0.5-1.86-0.1-2.32 1.36-1.15 3.63-2.24 2.24-2.09-2.68zm9.49-24.51c-0.06-2.13-0.1-2.14-0.86-0.24-0.8 2-0.8 2-1.23 0-0.38-1.74-0.66-1.58-2.14 1.2-0.93 1.76-1.68 4.24-1.67 5.5 0.03 2.19 0.18 2.14 3-0.96 1.64-1.8 2.94-4.27 2.9-5.5zm14.08 17.26c-0.91-0.58-1.03-0.97-0.31-0.98 0.65-0.01 1.47 0.43 1.81 0.98 0.76 1.24 0.42 1.24-1.5 0zm-8.27-1.6c-0.8-0.8 0.25-3.4 1.37-3.4 0.49 0 0.9 0.9 0.9 2 0 1.95-1.07 2.61-2.27 1.4z"/>
    <path id="path1311" fill="#1d2026" d="m360.82 535.42c-0.77-0.49-2.94-0.89-4.82-0.89s-3.73-0.31-4.1-0.7c-0.69-0.71 5.99-0.17 13.32 1.08l4 0.68-2.5-2.19-2.5-2.19 2.75 1.68c3.69 2.25 5.75 0.57 5.75-4.68 0-4.53-2.74-7.88-6.45-7.88-1.34 0-2.72-0.45-3.06-1.01-0.34-0.55-2.27-1.85-4.29-2.88l-3.66-1.88 6.59-2.99c3.63-1.64 6.91-3.49 7.29-4.11 1.03-1.67-7.75-1.44-11.96 0.32-1.9 0.8-3.46 1.23-3.46 0.95 0-0.27 1.56-1.15 3.46-1.95 3.73-1.56 13.54-1.99 13.54-0.6 0 1.47-3.42 4.01-8.33 6.18l-4.76 2.1 3.59 2.44c1.97 1.34 4.48 2.43 5.59 2.43 3.47 0 6.91 4.42 6.91 8.88 0 3.11-0.58 4.43-2.64 6.05-2.72 2.14-7.81 2.71-10.26 1.16zm-12.66-2.64c-1.87-1.5-1.86-1.51 0.31-0.47 1.23 0.6 2.25 1.3 2.25 1.56 0 0.76-0.52 0.54-2.56-1.09zm-5.37-0.86c-0.04-1.06 0.2-1.65 0.53-1.32 0.33 0.34 0.37 1.2 0.08 1.92-0.32 0.8-0.56 0.56-0.61-0.6zm0.28-7.6c0.07-1.64 0.47-2.99 0.88-2.99 1.07 0 0.96 4.76-0.12 5.43-0.48 0.3-0.83-0.8-0.76-2.44zm22.65 0.01c-0.91-0.58-1.03-0.97-0.31-0.98 0.65-0.01 1.47 0.43 1.81 0.98 0.76 1.24 0.42 1.24-1.5 0zm-8-2.94c0-1.13 0.45-2.06 1-2.06s1 0.65 1 1.44c0 0.8-0.45 1.72-1 2.06s-1-0.31-1-1.44zm-14.55-3.99c-0.02-1.61 0.32-2.71 0.75-2.44 0.44 0.27 0.8-0.84 0.8-2.46s0.92-4.01 2.05-5.31l2.06-2.36-1.68 2.77c-1.2 1.96-1.53 4-1.13 6.95 0.36 2.72 0.24 3.67-0.36 2.73-0.71-1.13-0.92-0.95-0.93 0.8-0.02 3.37-1.51 2.72-1.56-0.68zm6.21-5.07c1.19-1.37 2.36-3.62 2.61-5l0.45-2.5 0.14 2.58c0.09 1.67-0.83 3.43-2.61 5l-2.75 2.42 2.16-2.5z"/>
    <path id="path1309" fill="#501200" d="m353.72 534.33c-2.33-0.74-2.35-0.8-0.31-0.9 1.2-0.05 2.47 0.35 2.81 0.9s0.47 0.96 0.3 0.9c-0.17-0.05-1.43-0.46-2.8-0.9zm-5.56-1.55c-1.87-1.5-1.86-1.51 0.31-0.47 1.23 0.6 2.25 1.3 2.25 1.56 0 0.76-0.52 0.54-2.56-1.09zm-5.37-0.86c-0.04-1.06 0.2-1.65 0.53-1.32 0.33 0.34 0.37 1.2 0.08 1.92-0.32 0.8-0.56 0.56-0.61-0.6zm0.33-8.02c0-1.34 0.36-2.22 0.8-1.94 1.04 0.64 1.04 4.37 0 4.37-0.44 0-0.8-1.09-0.8-2.43zm0.05-6.59c-0.02-1.56 0.32-2.62 0.75-2.35 0.44 0.27 0.8-0.84 0.8-2.46s0.92-4.01 2.05-5.31l2.06-2.36-1.68 2.77c-1.2 1.96-1.53 4-1.13 6.95 0.36 2.72 0.24 3.67-0.36 2.73-0.76-1.21-0.92-1.17-0.93 0.24-0.03 2.96-1.52 2.75-1.56-0.21zm20.04 2.01c-0.34-0.55-2.27-1.85-4.29-2.88l-3.66-1.88 6.59-2.99c3.63-1.64 6.91-3.49 7.29-4.11 1.03-1.67-7.75-1.44-11.96 0.32-1.9 0.8-3.46 1.23-3.46 0.95 0-0.27 1.56-1.15 3.46-1.95 3.73-1.56 13.54-1.99 13.54-0.6 0 1.48-3.43 4.01-8.4 6.21l-4.82 2.13 3 1.83c2.78 1.69 4.99 3.98 3.83 3.98-0.27 0-0.78-0.45-1.12-1.01zm-13.83-6.99c1.19-1.37 2.36-3.62 2.61-5l0.45-2.5 0.14 2.58c0.09 1.67-0.83 3.43-2.61 5l-2.75 2.42 2.16-2.5z"/>
  </g>
  <metadata>
    <rdf:RDF>
      <cc:Work>
        <dc:format>image/svg+xml</dc:format>
        <dc:type rdf:resource="http://purl.org/dc/dcmitype/StillImage"/>
        <cc:license rdf:resource="http://creativecommons.org/licenses/publicdomain/"/>
        <dc:publisher>
          <cc:Agent rdf:about="http://openclipart.org/">
            <dc:title>Openclipart</dc:title>
          </cc:Agent>
        </dc:publisher>
        <dc:title>emule icon emule.org 01</dc:title>
        <dc:date>2010-04-15T14:43:52</dc:date>
        <dc:description>public domain art uploaded anonymously from OCAL 0.18</dc:description>
        <dc:source>http://openclipart.org/detail/47431/emule-icon-emule.org-01-by-anonymous</dc:source>
        <dc:creator>
          <cc:Agent>
            <dc:title>Anonymous</dc:title>
          </cc:Agent>
        </dc:creator>
        <dc:subject>
          <rdf:Bag>
            <rdf:li>clip art</rdf:li>
            <rdf:li>clipart</rdf:li>
            <rdf:li>emule</rdf:li>
            <rdf:li>icon</rdf:li>
            <rdf:li>logo</rdf:li>
            <rdf:li>mule</rdf:li>
          </rdf:Bag>
        </dc:subject>
      </cc:Work>
      <cc:License rdf:about="http://creativecommons.org/licenses/publicdomain/">
        <cc:permits rdf:resource="http://creativecommons.org/ns#Reproduction"/>
        <cc:permits rdf:resource="http://creativecommons.org/ns#Distribution"/>
        <cc:permits rdf:resource="http://creativecommons.org/ns#DerivativeWorks"/>
      </cc:License>
    </rdf:RDF>
  </metadata>
</svg>
