<?xml version="1.0"?>
<svg xmlns:rdf="http://www.w3.org/1999/02/22-rdf-syntax-ns#" xmlns="http://www.w3.org/2000/svg" xmlns:cc="http://creativecommons.org/ns#" xmlns:dc="http://purl.org/dc/elements/1.1/" xmlns:svg="http://www.w3.org/2000/svg" id="svg2" viewBox="0 0 310 580" version="1.1">
  <title id="title3072">Fox</title>
  <g id="layer1" transform="translate(0 -472.36)">
    <g id="g3771" transform="translate(-242.22 235.41)">
      <g id="g4104" transform="translate(0,158)">
        <path id="path4078" d="m294.91 396.84c-0.41647 0.0225-0.7899 0.0998-1.125 0.28125-20.753 11.237-27.593 62.195-21.562 85.688 4.3356 16.89 8.9687 21.998 11.156 23.531-8.241 5.5062-15.638 12.479-20.531 22.094 0 0 11.923-9.2636 30.562-4.4688 2.6983 0.6941-14.164 1.832-24.406 7.1562-16.805 7.8677-22.261 31.22-19.562 28.156 11.645-13.22 19.866-16.159 23.406-15.906 2.0776 0.14845-14.743 17.914-20.344 28-0.8369 1.5072-1.7746 3.6508-2.625 5.7812 10.057-4.2432 23.062-5.3413 36.5-2.25 26.173 6.0213 51.031 40.651 54.906 60.469 5.1471 10.007 5.3342 6.1439 12.219 8.9688 6.8846 2.8248 0.71726 7.6471 18.562 9.1562l-0.0312-2.125h0.0625l-0.0312 2.125c17.845-1.5092 11.647-6.3314 18.531-9.1562 6.8846-2.8248 7.1029 1.0382 12.25-8.9688 3.8756-19.818 28.702-54.447 54.875-60.469 13.438-3.0913 26.443-1.9932 36.5 2.25-0.85038-2.1305-1.7881-4.2741-2.625-5.7812-5.6006-10.086-22.421-27.852-20.344-28 3.5404-0.25297 11.762 2.6867 23.406 15.906 2.6986 3.0636-2.7571-20.289-19.562-28.156-10.242-5.3242-27.105-6.4622-24.406-7.1562 18.64-4.7948 30.562 4.4688 30.562 4.4688-4.8928-9.6148-12.29-16.588-20.531-22.094 2.1875-1.5336 6.8207-6.6416 11.156-23.531 6.0305-23.493-0.8096-74.45-21.562-85.688-0.3351-0.18145-0.70853-0.25875-1.125-0.28125-12.911-0.69752-63.469 72.594-63.469 72.594s-3.5657 3.2698-5 7.0312c-1.1567-0.31462-3.6305-0.55657-8.6562-0.59375-5.0768-0.0376-7.5783 0.20955-8.7188 0.53125-1.4507-3.7335-4.9688-6.9688-4.9688-6.9688s-50.558-73.291-63.469-72.594zm0.4375 7.5c9.3311-0.29782 32.75 54.031 32.75 54.031s7.7464 19.45-11.625 29.156c-24.456 12.254-31.688 16.906-31.688 16.906s-7.9622-10.235-8.75-30.156c-0.10919-2.7608-0.1391-5.9803-0.0937-9.4375l4.5 1s-3.629-4.5847-5.1562-10.5c-0.52486-2.0328 0.0323-8.6788 2-7.8125l7.25 3.1875s-4.441-2.7307-5.8125-6.9062c-1.1211-3.4133-0.25885-7.6481 0.3125-10.5l10.312 1.8125s-7.0223-3.2683-7.3125-9.8438c-0.0507-1.1499 0.0625-3.5 0.0625-3.5 2.8112-8.1514 6.7748-14.59 12.375-17.219 0.27042-0.12696 0.574-0.20914 0.875-0.21875zm153.41 0c0.301 0.01 0.60458 0.0918 0.875 0.21875 5.6002 2.6292 9.5638 9.0673 12.375 17.219 0 0 0.1132 2.3501 0.0625 3.5-0.29017 6.5754-7.3125 9.8438-7.3125 9.8438l10.312-1.8125c0.57135 2.8519 1.4336 7.0867 0.3125 10.5-1.3715 4.1756-5.8125 6.9062-5.8125 6.9062l7.25-3.1875c1.9677-0.86632 2.5249 5.7797 2 7.8125-1.5273 5.9153-5.1562 10.5-5.1562 10.5l4.5-1c0.0452 3.4572 0.0152 6.6766-0.0937 9.4375-0.78783 19.921-8.75 30.156-8.75 30.156s-7.2318-4.6525-31.688-16.906c-19.38-9.71-11.63-29.15-11.63-29.15s23.419-54.329 32.75-54.031zm-86 77.875c0.0727-0.004 0.146 0.004 0.21875 0-0.28147 1.8492-0.84454 3.8674-1.9375 4.7188-7.0002 5.4524-29.844 10.406-29.844 10.406s29.026-1.1121 40.844-9.1875c11.806 8.0871 40.875 9.1875 40.875 9.1875s-22.844-4.9538-29.844-10.406c-1.0872-0.84681-1.6546-2.8464-1.9375-4.6875 0.0831 0.005 0.16694-0.005 0.25 0 3.3977 13.461 45.531 15.094 45.531 15.094s-22.844-4.9538-29.844-10.406c-0.81515-0.63492-1.33-1.9042-1.6562-3.2812 22.416 3.289 39.554 10.71 44.781 16.5 9.5845 4.3367 19.061 10.283 26.531 19.375 0 0-17.064-5.4014-30.625 1.4688-2.6434-0.29485-5.6732-0.31788-8.625-0.28125-1.3808 0.0171-2.7414 0.0631-4.0312 0.0937-18.498 0.43996-30.12 11.321-31 16.281-0.007 0.0403-0.0255 0.0855-0.0312 0.125-1.0873 2.5162-1.2614 5.0232-0.28125 7.1875 0.27894 0.61594 0.66047 1.1761 1.0938 1.6875-0.0911 0.89524-0.15625 1.8488-0.15625 2.8438 0 4.9881-2.5286 6.5-1 6.5 1.4577 0 6.171-1.3249 6.5-5.8438 2.566 0.84472 6.2016 0.94103 11.344-0.21875 10.069-2.271 29.523-16.42 32.219-20.188 0.65537-0.91574 1.0984-1.7369 1.3438-2.4688 10.426 2.2965 24.817 6.0386 29.969 12.406-5.1967-0.6788-29.312-3.0455-10.938 9.375-13.885 5.8491 8.1226 3.5866 12.75 12.656 0.69149 1.3553-17.871-6.5604-3.1562 8.5-3.0088-1.3816-6.5494-1.9883-10.375-2.0938 0.0409-7.0462-17.688-19.35-32.406-6.375-4.0383 3.5602-8.8952 24.158-16.406 34.812-2.8855 3.6676-3.4577 7.707-5.6875 11.875-0.78096 1.3557-1.5064 2.6722-2.125 3.9062-4.7202 2.5303-8.6318 1.5591-11.156 0.125 0.28044 0.33009 0.52041 0.62941 0.84375 1.0312 14.825 18.424 0.17874 21.898-6.5 27.094-0.0119 0.003-0.0193 0.0285-0.0312 0.0312-0.73932 0.17419-1.5557 0.40476-2.4688 0.8125-5.2572 2.3476-0.1826 6.2272-11.625 7.875v-8.5c11.035-1.7507 19.688-16.576 19.688-23.875 0-4.2105-2.8857-6.8117-7.4375-8.3125-0.0572-0.24959-0.0751-0.22499-0.15625-0.625-0.002-0.0118 0.002-0.0506 0-0.0625-1.0467-5.1711-4.2114-21.788-4.6875-34.844-0.0412-1.1303-0.0645-2.2138-0.0625-3.2812 0.002-0.17029-0.003-0.33135 0-0.5 0.004-0.45753 0.0177-0.93246 0.0312-1.375 0.0666-1.8054 0.19965-3.4965 0.4375-5.0312 0.0185-0.11952 0.0428-0.22619 0.0625-0.34375 0.0645-0.38564 0.14177-0.76155 0.21875-1.125 0.10045-0.47424 0.22071-0.91013 0.34375-1.3438 0.66515-2.1145 1.1932-4.3221 1.6562-6.5 2.1445-2.3212 5.0214-2.9324 5.0938-3.1875 1.3175-4.1885-1-5.0489-3.6875-5.0625 0.54209-4.2771 0.77778-8.0409 0.875-10.375 0.006-0.14049-0.005-0.0886 0-0.21875 0.0115-0.25848-0.008-0.18658 0-0.40625 6.1708-12.116 5.2814-16.28 34.062-17.344-3.5562-3.1227-14.344-1.0621-21.688 0.96875-14.274 3.9473-19.789 27.635-26.75 28.875-6.961-1.24-12.476-24.928-26.75-28.875-4.5899-1.2693-10.515-2.5391-15.188-2.5625-2.8033-0.014-5.1664 0.42275-6.5 1.5938 28.832 1.0656 27.856 5.2475 34.062 17.406 0.007 0.19105-0.01 0.12504 0 0.34375 0.005 0.13019-0.006 0.0783 0 0.21875 0.0972 2.3341 0.33291 6.0979 0.875 10.375-2.6987 0.008-5.0093 0.86037-3.6875 5.0625 0.0721 0.25414 2.9206 0.85679 5.0625 3.1562 0.46439 2.1881 1.0192 4.4067 1.6875 6.5312 0.12304 0.43362 0.2433 0.86951 0.34375 1.3438 0.077 0.36345 0.15427 0.73936 0.21875 1.125 0.0197 0.11756 0.044 0.22423 0.0625 0.34375 0.008 0.0522 0.0226 0.10368 0.0312 0.15625 0.22409 1.4943 0.34187 3.1292 0.40625 4.875 0.0135 0.44254 0.027 0.91747 0.0312 1.375 0.003 0.16865-0.002 0.32971 0 0.5 0.002 1.0674-0.0213 2.1509-0.0625 3.2812-0.47611 13.056-3.6408 29.673-4.6875 34.844-0.002 0.0119 0.002 0.0507 0 0.0625-0.0726 0.35788-0.071 0.32422-0.125 0.5625-4.691 1.4871-7.6875 4.0862-7.6875 8.375 0 7.3062 8.6412 22.147 19.688 23.875v8.5c-11.473-1.6454-6.3947-5.5254-11.656-7.875-0.90094-0.40232-1.7061-0.63856-2.4375-0.8125-6.6766-5.2033-21.381-8.6702-6.5312-27.125 0.32332-0.40182 0.56333-0.70117 0.84375-1.0312-2.5244 1.4339-6.4363 2.4042-11.156-0.125-0.83773-1.6712-1.8442-3.4618-2.9688-5.3438-0.12309-0.22064-0.25001-0.4365-0.375-0.65625-0.004-0.007 0.004-0.024 0-0.0312-1.8998-3.3378-2.0164-6.5795-4.3438-9.5625-7.5387-10.717-12.47-31.419-16.531-35-14.718-12.975-32.447-0.6712-32.406 6.375-3.8376 0.10284-7.3893 0.7084-10.406 2.0938 14.715-15.06-3.8477-7.1447-3.1562-8.5 4.6274-9.0697 26.635-6.8071 12.75-12.656 18.375-12.421-5.7408-10.054-10.938-9.375 5.1566-6.3738 19.572-10.11 30-12.406 0.24539 0.73186 0.68838 1.553 1.3438 2.4688 2.6962 3.7673 22.15 17.916 32.219 20.188 5.0593 1.1411 8.6601 1.0575 11.219 0.25 0.34839 4.4938 5.0456 5.8125 6.5 5.8125 1.5286 0-1-1.5119-1-6.5 0-0.995-0.0652-1.9485-0.15625-2.8438 0.43328-0.51143 0.81481-1.0716 1.0938-1.6875 0.9194-2.0302 0.78677-4.3614-0.125-6.7188 0-0.01 0.0001-0.0216 0-0.0312-0.0488-4.6525-11.853-16.387-31.062-16.844-1.2899-0.0307-2.6504-0.0766-4.0312-0.0937-2.9754-0.0369-6.0294 0.0111-8.6875 0.3125-13.562-6.8773-30.594-1.5-30.594-1.5 7.4867-9.1124 16.988-15.067 26.594-19.406 5.2641-5.7875 22.37-13.188 44.75-16.469-0.3263 1.377-0.84111 2.6463-1.6562 3.2812-7.0002 5.4524-29.844 10.406-29.844 10.406s42.235-1.6284 45.562-15.125zm-12.594 129.69c3.6458-2.0709 4.2927-5.0528 0 0zm43.781 0c-4.293-5.053-3.6458-2.0712 0 0zm-28.375-56.875h13.188l3.875 52.094c-3.1357-0.57068-6.7546-0.8125-10.594-0.8125-3.7486 0-7.2644 0.23949-10.344 0.78125l3.875-52.062zm21.86 56.96c1.7836 0.0959 3.4788 1.0246 4.5 2.625 1.6976 2.6603 0.82388 5.3403-1.875 7.0625-2.382 1.6352-3.4222-1.0451-3.7812-0.90625 0.68089 1.7021 3.4484 5.5683 2.625 6.0938-1.0795 0.68889-2.0373-0.69942-4-2.4062-1.5633-1.6515-1.834-2.5784-2.75-3.5938-1.6976-2.6603-0.88638-6.2153 1.8125-7.9375 0.8434-0.53819 1.7564-0.83457 2.6875-0.90625 0.25606-0.0197 0.52644-0.0449 0.78125-0.0312zm-30.594 0.0312c1.1141-0.0209 2.2692 0.26042 3.2812 0.90625 2.6989 1.7222 3.4789 5.2772 1.7812 7.9375-0.91598 1.0153-1.1867 1.9422-2.75 3.5938-1.9627 1.7068-2.9205 3.0951-4 2.4062-0.82337-0.52541 1.9441-4.3917 2.625-6.0938-0.35905-0.13885-1.368 2.5414-3.75 0.90625-2.6989-1.7222-3.5726-4.4022-1.875-7.0625 1.061-1.6627 2.8307-2.5589 4.6875-2.5938z" />
        <path id="path3069" d="m326.94 526.91c-1.0944 0.0103-2.1262 0.0768-3.0625 0.1875-0.2988 0.0355-0.59754 0.0814-0.875 0.125-0.38575 0.0606-0.75503 0.14481-1.0938 0.21875-0.25877 0.0565-0.4909 0.0934-0.71875 0.15625-0.0704 0.0194-0.15149 0.0425-0.21875 0.0625-0.17212 0.0518-0.34975 0.13261-0.5 0.1875-0.27825 0.10165-0.52283 0.20318-0.71875 0.3125-0.0384 0.0215-0.0901 0.0408-0.125 0.0625-0.12877 0.0823-0.23513 0.16592-0.3125 0.25-0.10409 0.11312-0.18475 0.2307-0.1875 0.34375-0.0787 3.2282 1.2281 8.6073 4.5625 12.781 0.3034 0.3798 0.631 0.73599 0.96875 1.0938 0.33291 0.35167 0.66398 0.70577 1.0312 1.0312 0.006 0.005 0.0256-0.005 0.0312 0 0.74094 0.65467 1.5511 1.2622 2.4375 1.7812 0.44682 0.26165 0.92094 0.49897 1.4062 0.71875 0.48531 0.21978 0.98168 0.44261 1.4688 0.625 0.97415 0.36477 1.9447 0.65425 2.9062 0.875 0.48078 0.11037 0.93351 0.20549 1.4062 0.28125 0.01 0.002 0.0214-0.002 0.0312 0 1.4072 0.22337 2.785 0.28587 4.0625 0.21875 0.85794-0.0451 1.6706-0.14562 2.4375-0.3125 0.76689-0.16688 1.4753-0.40623 2.125-0.6875 0.64968-0.28127 1.2437-0.61175 1.75-1 0.75175-0.57647 1.3547-1.2705 1.7188-2.0625 0.004-0.009-0.004-0.0223 0-0.0312 0.36509-0.80618 0.50419-1.7066 0.46875-2.6875-0.0111-0.32527-0.0404-0.63105-0.0937-0.96875-0.0689-0.44346-0.17259-0.88556-0.3125-1.3438-0.0753-0.24685-0.15454-0.50061-0.25-0.75-0.13006-0.3398-0.27083-0.68939-0.4375-1.0312-0.006-0.0127-0.025-0.0185-0.0312-0.0312-0.14381-0.29267-0.29872-0.58299-0.46875-0.875-0.0357-0.0611-0.0569-0.12649-0.0937-0.1875-0.19817-0.3293-0.42552-0.67468-0.65625-1-0.0165-0.0232-0.0458-0.0393-0.0625-0.0625-0.10749-0.14985-0.22947-0.28897-0.34375-0.4375-0.148-0.192-0.27828-0.40449-0.4375-0.59375-0.26799-0.31845-0.57589-0.62905-0.875-0.9375-0.0202-0.0208-0.0422-0.0417-0.0625-0.0625-0.30154-0.30798-0.60562-0.6113-0.9375-0.90625-0.0218-0.0194-0.0405-0.0432-0.0625-0.0625-0.32885-0.2895-0.67377-0.56978-1.0312-0.84375-0.0293-0.0224-0.0642-0.0402-0.0937-0.0625-0.36051-0.27304-0.73657-0.52672-1.125-0.78125-0.0308-0.0202-0.0628-0.0425-0.0937-0.0625-0.39168-0.25352-0.79982-0.48678-1.2188-0.71875-0.0325-0.018-0.0611-0.0446-0.0937-0.0625-0.41433-0.22646-0.84133-0.45348-1.2812-0.65625 0.009 0.17177 0 0.30441 0 0.5 0 2.9678-1.0076 9.9375-2.25 9.9375-0.94989 0-1.7634-4.0757-2.0938-7.3125 0.20138 0.12278 0.46567 0.21875 0.71875 0.21875 0.7344 0 1.3125-0.60935 1.3125-1.3438 0-0.7344-0.5781-1.3125-1.3125-1.3125-0.31486 0-0.61596 0.0983-0.84375 0.28125-0.004-0.14288-0.0312-0.33995-0.0312-0.46875 0-0.83686 0.10653-1.4281 0.25-1.875-0.002-0.00053 0.002-0.0307 0-0.0312-0.15771-0.0356-0.31059-0.0612-0.46875-0.0937-0.40261-0.0823-0.81558-0.15538-1.2188-0.21875-0.64445-0.10227-1.3017-0.19184-1.9375-0.25-0.47836-0.0425-0.9702-0.074-1.4375-0.0937-0.0421-0.002-0.083 0.002-0.125 0-0.40953-0.0157-0.79067-0.0314-1.1875-0.0312-0.10172-0.00008-0.21179-0.00095-0.3125 0z" fill="#fb5501" />
        <path id="path3125" d="m417 526.91c-0.65239-0.006-1.3123 0.0233-2 0.0625-0.34451 0.0188-0.6812 0.0314-1.0312 0.0625-0.0745 0.007-0.14405 0.0239-0.21875 0.0312-0.57038 0.0549-1.142 0.1281-1.7188 0.21875-0.13808 0.0219-0.26813 0.0697-0.40625 0.0937-0.30997 0.0535-0.62825 0.0914-0.9375 0.15625-0.11553 0.0244-0.22847 0.0365-0.34375 0.0625 0.003 0.008-0.003 0.0228 0 0.0312 0.14347 0.44686 0.21875 1.0381 0.21875 1.875 0 0.1288 0.004 0.32587 0 0.46875-0.22779-0.18291-0.52889-0.28125-0.84375-0.28125-0.7344 0-1.3125 0.5781-1.3125 1.3125s0.5781 1.3438 1.3125 1.3438c0.25308 0 0.48612-0.096 0.6875-0.21875-0.3303 3.2368-1.1439 7.3125-2.0938 7.3125-1.2424 0-2.25-6.9697-2.25-9.9375 0-0.19559 0.0226-0.32823 0.0312-0.5-0.43992 0.20277-0.86692 0.42979-1.2812 0.65625-0.32759 0.17879-0.6263 0.37037-0.9375 0.5625-0.14292 0.0883-0.29809 0.15908-0.4375 0.25-0.012 0.008-0.0193 0.0234-0.0312 0.0312-0.38843 0.25453-0.76449 0.50821-1.125 0.78125-0.22964 0.17371-0.43818 0.35093-0.65625 0.53125-0.15401 0.12743-0.32059 0.24457-0.46875 0.375-0.022 0.0193-0.0407 0.0431-0.0625 0.0625-0.34388 0.30556-0.68871 0.61801-1 0.9375-0.0686 0.0703-0.12052 0.14785-0.1875 0.21875-0.23621 0.2503-0.47155 0.49339-0.6875 0.75-0.0145 0.0172-0.0168 0.0453-0.0312 0.0625-0.26974 0.32313-0.5443 0.63841-0.78125 0.96875-0.013 0.0181-0.0184 0.0444-0.0312 0.0625-0.23434 0.32971-0.45536 0.66619-0.65625 1-0.0116 0.0193-0.0197 0.0432-0.0312 0.0625-0.19813 0.33283-0.36719 0.66614-0.53125 1-0.17324 0.3526-0.33446 0.71203-0.46875 1.0625-0.53939 1.4092-0.75292 2.7936-0.625 4.0312 0.0646 0.61497 0.19659 1.1868 0.4375 1.7188 0.004 0.009-0.004 0.0223 0 0.0312 0.36404 0.79202 0.967 1.486 1.7188 2.0625 0.50631 0.38825 1.0691 0.71873 1.7188 1 0.64968 0.28127 1.3894 0.52062 2.1562 0.6875 0.76689 0.16688 1.5796 0.26742 2.4375 0.3125 0.84823 0.0446 1.7444 0.0192 2.6562-0.0625 0.46114-0.042 0.93376-0.0806 1.4062-0.15625 0.47274-0.0758 0.95672-0.17088 1.4375-0.28125s0.98319-0.26033 1.4688-0.40625c0.48556-0.14592 0.95043-0.28636 1.4375-0.46875s0.98344-0.40522 1.4688-0.625c0.48531-0.21978 0.95943-0.4571 1.4062-0.71875 5.3618-3.1398 7.9685-9.1065 8.75-13.625 0.13024-0.75309 0.21818-1.4727 0.25-2.125 0.0159-0.32613 0.0384-0.64403 0.0312-0.9375-0.002-0.10218-0.0706-0.21011-0.15625-0.3125-0.008-0.01-0.0223-0.0213-0.0312-0.0312-0.0774-0.0841-0.18373-0.16775-0.3125-0.25-0.0334-0.0208-0.0884-0.0419-0.125-0.0625-0.12927-0.0721-0.30294-0.14968-0.46875-0.21875-0.0748-0.0309-0.16821-0.0637-0.25-0.0937-0.15025-0.0549-0.32788-0.13572-0.5-0.1875-0.0673-0.02-0.14835-0.0431-0.21875-0.0625-0.22785-0.0629-0.45998-0.0998-0.71875-0.15625-0.32942-0.0719-0.68851-0.15941-1.0625-0.21875-0.0106-0.002-0.0206 0.002-0.0312 0-0.0409-0.006-0.0836-0.0249-0.125-0.0312-0.24991-0.0378-0.51461-0.0624-0.78125-0.0937-0.51398-0.0608-1.0582-0.0924-1.625-0.125-0.45959-0.0259-0.9511-0.0579-1.4375-0.0625z" fill="#fb5501" />
      </g>
      <path id="path2996" stroke="#000" stroke-width="7.0866" d="m386.21 446.63c32.332 33.805-15.437 57.075-40.427 103.38-11.772 8.5883 16.651 69.338 29.803 72.085 13.151 2.7469-4.0321-45.191 15.842-56.403 78.11-35.03 158.08-65.71 150.14-147.69-10.37-107.04-115.48-51.72-143.32-118.78-8.3834-20.196-4.5171-53.262-4.5171-53.262-88.135 106.42-56.416 148.9-7.526 200.67z" />
      <path id="path3766" d="m393.75 245.97c-73.544 88.804-47.073 108.22-71.359 140.73l34.717-14.309 14.383 43.68 13.97-47.069 35.057 58.366 11.71-47.446 36.13 7.7262-21.839-35.407 33.899-18.939c-21.682-8.3801-59.945 11.185-82.169-34.084-8.3834-20.196-4.5-53.25-4.5-53.25z" stroke="#000" stroke-width="7.0866" fill="#fff" />
    </g>
  </g>
  <metadata>
    <rdf:RDF>
      <cc:Work>
        <dc:format>image/svg+xml</dc:format>
        <dc:type rdf:resource="http://purl.org/dc/dcmitype/StillImage" />
        <cc:license rdf:resource="http://creativecommons.org/licenses/publicdomain/" />
        <dc:publisher>
          <cc:Agent rdf:about="http://openclipart.org/">
            <dc:title>Openclipart</dc:title>
          </cc:Agent>
        </dc:publisher>
        <dc:title>Fox in black</dc:title>
        <dc:date>2013-10-07T16:34:50</dc:date>
        <dc:description>A fox in black colour</dc:description>
        <dc:source>http://openclipart.org/detail/184665/fox-by-dux-phoenix-184665</dc:source>
        <dc:creator>
          <cc:Agent>
            <dc:title>Dux Phoenix</dc:title>
          </cc:Agent>
        </dc:creator>
        <dc:subject>
          <rdf:Bag>
            <rdf:li>logo</rdf:li>
            <rdf:li>clip art</rdf:li>
            <rdf:li>clipart</rdf:li>
            <rdf:li>animal</rdf:li>
            <rdf:li>silhouette</rdf:li>
            <rdf:li>nature</rdf:li>
          </rdf:Bag>
        </dc:subject>
      </cc:Work>
      <cc:License rdf:about="http://creativecommons.org/licenses/publicdomain/">
        <cc:permits rdf:resource="http://creativecommons.org/ns#Reproduction" />
        <cc:permits rdf:resource="http://creativecommons.org/ns#Distribution" />
        <cc:permits rdf:resource="http://creativecommons.org/ns#DerivativeWorks" />
      </cc:License>
    </rdf:RDF>
  </metadata>
</svg>